<ttFont>
    <TTGlyph name=".ttfautohint" xMin="0" yMin="0" xMax="0" yMax="0">
      <contour>
        <pt x="0" y="0" on="1"/>
      </contour>
    </TTGlyph>
    <TTGlyph name="A" xMin="-45" yMin="0" xMax="538" yMax="627">
      <contour>
        <pt x="163" y="178" on="1"/>
        <pt x="103" y="61" on="1"/>
        <pt x="164" y="42" on="1"/>
        <pt x="155" y="0" on="1"/>
        <pt x="-45" y="0" on="1"/>
        <pt x="-37" y="41" on="1"/>
        <pt x="33" y="62" on="1"/>
        <pt x="319" y="614" on="1"/>
        <pt x="387" y="627" on="1"/>
        <pt x="475" y="63" on="1"/>
        <pt x="538" y="41" on="1"/>
        <pt x="530" y="0" on="1"/>
        <pt x="285" y="0" on="1"/>
        <pt x="292" y="42" on="1"/>
        <pt x="357" y="59" on="1"/>
        <pt x="340" y="178" on="1"/>
      </contour>
      <contour>
        <pt x="332" y="231" on="1"/>
        <pt x="301" y="446" on="1"/>
        <pt x="190" y="231" on="1"/>
      </contour>
    </TTGlyph>
    <TTGlyph name="AE" xMin="-127" yMin="0" xMax="674" yMax="613">
      <contour>
        <pt x="516" y="313" on="1"/>
        <pt x="549" y="379" on="1"/>
        <pt x="591" y="379" on="1"/>
        <pt x="555" y="191" on="1"/>
        <pt x="513" y="191" on="1"/>
        <pt x="504" y="260" on="1"/>
        <pt x="411" y="260" on="1"/>
        <pt x="386" y="64" on="1"/>
        <pt x="544" y="64" on="1"/>
        <pt x="586" y="157" on="1"/>
        <pt x="633" y="157" on="1"/>
        <pt x="603" y="0" on="1"/>
        <pt x="173" y="0" on="1"/>
        <pt x="180" y="41" on="1"/>
        <pt x="267" y="63" on="1"/>
        <pt x="293" y="260" on="1"/>
        <pt x="168" y="260" on="1"/>
        <pt x="25" y="61" on="1"/>
        <pt x="87" y="42" on="1"/>
        <pt x="78" y="0" on="1"/>
        <pt x="-127" y="0" on="1"/>
        <pt x="-119" y="41" on="1"/>
        <pt x="-49" y="62" on="1"/>
        <pt x="309" y="556" on="1"/>
        <pt x="252" y="572" on="1"/>
        <pt x="260" y="613" on="1"/>
        <pt x="674" y="613" on="1"/>
        <pt x="647" y="472" on="1"/>
        <pt x="599" y="472" on="1"/>
        <pt x="596" y="551" on="1"/>
        <pt x="449" y="551" on="1"/>
        <pt x="418" y="313" on="1"/>
      </contour>
      <contour>
        <pt x="321" y="472" on="1"/>
        <pt x="206" y="313" on="1"/>
        <pt x="300" y="313" on="1"/>
      </contour>
    </TTGlyph>
    <TTGlyph name="AEacute" xMin="-127" yMin="0" xMax="674" yMax="800">
      <component glyphName=".ttfautohint" x="0" y="0" flags="0x0"/>
      <component glyphName="AE" x="0" y="0" flags="0x0"/>
      <component glyphName="acutecomb" x="524" y="0" flags="0x0"/>
    </TTGlyph>
    <TTGlyph name="Aacute" xMin="-45" yMin="0" xMax="537" yMax="800">
      <contour>
        <pt x="251" y="669" on="1"/>
        <pt x="407" y="800" on="1"/>
        <pt x="497" y="768" on="1"/>
        <pt x="497" y="747" on="1"/>
        <pt x="274" y="640" on="1"/>
      </contour>
      <contour>
        <pt x="-38" y="41" on="1"/>
        <pt x="32" y="62" on="1"/>
        <pt x="319" y="614" on="1"/>
        <pt x="387" y="627" on="1"/>
        <pt x="475" y="63" on="1"/>
        <pt x="537" y="41" on="1"/>
        <pt x="529" y="0" on="1"/>
        <pt x="285" y="0" on="1"/>
        <pt x="292" y="42" on="1"/>
        <pt x="357" y="59" on="1"/>
        <pt x="340" y="178" on="1"/>
        <pt x="162" y="178" on="1"/>
        <pt x="102" y="61" on="1"/>
        <pt x="164" y="42" on="1"/>
        <pt x="155" y="0" on="1"/>
        <pt x="-45" y="0" on="1"/>
      </contour>
      <contour>
        <pt x="332" y="231" on="1"/>
        <pt x="301" y="446" on="1"/>
        <pt x="190" y="231" on="1"/>
      </contour>
    </TTGlyph>
    <TTGlyph name="Abreve" xMin="-45" yMin="0" xMax="537" yMax="787">
      <contour>
        <pt x="250" y="657" on="0"/>
        <pt x="250" y="746" on="1"/>
        <pt x="250" y="759" on="0"/>
        <pt x="257" y="787" on="1"/>
        <pt x="306" y="787" on="1"/>
        <pt x="303" y="780" on="0"/>
        <pt x="303" y="770" on="1"/>
        <pt x="304" y="749" on="0"/>
        <pt x="327" y="726" on="0"/>
        <pt x="362" y="726" on="1"/>
        <pt x="407" y="726" on="0"/>
        <pt x="444" y="758" on="0"/>
        <pt x="450" y="787" on="1"/>
        <pt x="497" y="787" on="1"/>
        <pt x="485" y="728" on="0"/>
        <pt x="420" y="657" on="0"/>
        <pt x="352" y="657" on="1"/>
      </contour>
      <contour>
        <pt x="-38" y="41" on="1"/>
        <pt x="32" y="62" on="1"/>
        <pt x="319" y="614" on="1"/>
        <pt x="387" y="627" on="1"/>
        <pt x="475" y="63" on="1"/>
        <pt x="537" y="41" on="1"/>
        <pt x="529" y="0" on="1"/>
        <pt x="285" y="0" on="1"/>
        <pt x="292" y="42" on="1"/>
        <pt x="357" y="59" on="1"/>
        <pt x="340" y="178" on="1"/>
        <pt x="162" y="178" on="1"/>
        <pt x="102" y="61" on="1"/>
        <pt x="164" y="42" on="1"/>
        <pt x="155" y="0" on="1"/>
        <pt x="-45" y="0" on="1"/>
      </contour>
      <contour>
        <pt x="332" y="231" on="1"/>
        <pt x="301" y="446" on="1"/>
        <pt x="190" y="231" on="1"/>
      </contour>
    </TTGlyph>
    <TTGlyph name="Acircumflex" xMin="-45" yMin="0" xMax="537" yMax="798">
      <contour>
        <pt x="369" y="716" on="1"/>
        <pt x="233" y="643" on="1"/>
        <pt x="211" y="669" on="1"/>
        <pt x="343" y="798" on="1"/>
        <pt x="419" y="798" on="1"/>
        <pt x="500" y="666" on="1"/>
        <pt x="472" y="643" on="1"/>
      </contour>
      <contour>
        <pt x="162" y="178" on="1"/>
        <pt x="102" y="61" on="1"/>
        <pt x="164" y="42" on="1"/>
        <pt x="155" y="0" on="1"/>
        <pt x="-45" y="0" on="1"/>
        <pt x="-38" y="41" on="1"/>
        <pt x="32" y="62" on="1"/>
        <pt x="319" y="614" on="1"/>
        <pt x="387" y="627" on="1"/>
        <pt x="475" y="63" on="1"/>
        <pt x="537" y="41" on="1"/>
        <pt x="529" y="0" on="1"/>
        <pt x="285" y="0" on="1"/>
        <pt x="292" y="42" on="1"/>
        <pt x="357" y="59" on="1"/>
        <pt x="340" y="178" on="1"/>
      </contour>
      <contour>
        <pt x="332" y="231" on="1"/>
        <pt x="301" y="446" on="1"/>
        <pt x="190" y="231" on="1"/>
      </contour>
    </TTGlyph>
    <TTGlyph name="Adieresis" xMin="-45" yMin="0" xMax="545" yMax="789">
      <contour>
        <pt x="231" y="656" on="0"/>
        <pt x="189" y="694" on="0"/>
        <pt x="189" y="721" on="1"/>
        <pt x="189" y="749" on="0"/>
        <pt x="231" y="789" on="0"/>
        <pt x="259" y="789" on="1"/>
        <pt x="287" y="789" on="0"/>
        <pt x="327" y="749" on="0"/>
        <pt x="327" y="721" on="1"/>
        <pt x="327" y="694" on="0"/>
        <pt x="287" y="656" on="0"/>
        <pt x="259" y="656" on="1"/>
      </contour>
      <contour>
        <pt x="449" y="656" on="0"/>
        <pt x="408" y="694" on="0"/>
        <pt x="408" y="721" on="1"/>
        <pt x="408" y="749" on="0"/>
        <pt x="449" y="789" on="0"/>
        <pt x="478" y="789" on="1"/>
        <pt x="505" y="789" on="0"/>
        <pt x="545" y="749" on="0"/>
        <pt x="545" y="721" on="1"/>
        <pt x="545" y="694" on="0"/>
        <pt x="505" y="656" on="0"/>
        <pt x="478" y="656" on="1"/>
      </contour>
      <contour>
        <pt x="-38" y="41" on="1"/>
        <pt x="32" y="62" on="1"/>
        <pt x="319" y="614" on="1"/>
        <pt x="387" y="627" on="1"/>
        <pt x="475" y="63" on="1"/>
        <pt x="537" y="41" on="1"/>
        <pt x="529" y="0" on="1"/>
        <pt x="285" y="0" on="1"/>
        <pt x="292" y="42" on="1"/>
        <pt x="357" y="59" on="1"/>
        <pt x="340" y="178" on="1"/>
        <pt x="162" y="178" on="1"/>
        <pt x="102" y="61" on="1"/>
        <pt x="164" y="42" on="1"/>
        <pt x="155" y="0" on="1"/>
        <pt x="-45" y="0" on="1"/>
      </contour>
      <contour>
        <pt x="332" y="231" on="1"/>
        <pt x="301" y="446" on="1"/>
        <pt x="190" y="231" on="1"/>
      </contour>
    </TTGlyph>
    <TTGlyph name="Agrave" xMin="-45" yMin="0" xMax="537" yMax="800">
      <contour>
        <pt x="213" y="747" on="1"/>
        <pt x="215" y="768" on="1"/>
        <pt x="305" y="800" on="1"/>
        <pt x="459" y="669" on="1"/>
        <pt x="438" y="640" on="1"/>
      </contour>
      <contour>
        <pt x="-38" y="41" on="1"/>
        <pt x="32" y="62" on="1"/>
        <pt x="319" y="614" on="1"/>
        <pt x="387" y="627" on="1"/>
        <pt x="475" y="63" on="1"/>
        <pt x="537" y="41" on="1"/>
        <pt x="529" y="0" on="1"/>
        <pt x="285" y="0" on="1"/>
        <pt x="292" y="42" on="1"/>
        <pt x="357" y="59" on="1"/>
        <pt x="340" y="178" on="1"/>
        <pt x="162" y="178" on="1"/>
        <pt x="102" y="61" on="1"/>
        <pt x="164" y="42" on="1"/>
        <pt x="155" y="0" on="1"/>
        <pt x="-45" y="0" on="1"/>
      </contour>
      <contour>
        <pt x="332" y="231" on="1"/>
        <pt x="301" y="446" on="1"/>
        <pt x="190" y="231" on="1"/>
      </contour>
    </TTGlyph>
    <TTGlyph name="Amacron" xMin="-45" yMin="0" xMax="537" yMax="753">
      <contour>
        <pt x="238" y="753" on="1"/>
        <pt x="491" y="753" on="1"/>
        <pt x="481" y="683" on="1"/>
        <pt x="228" y="683" on="1"/>
      </contour>
      <contour>
        <pt x="-38" y="41" on="1"/>
        <pt x="32" y="62" on="1"/>
        <pt x="319" y="614" on="1"/>
        <pt x="387" y="627" on="1"/>
        <pt x="475" y="63" on="1"/>
        <pt x="537" y="41" on="1"/>
        <pt x="529" y="0" on="1"/>
        <pt x="285" y="0" on="1"/>
        <pt x="292" y="42" on="1"/>
        <pt x="357" y="59" on="1"/>
        <pt x="340" y="178" on="1"/>
        <pt x="162" y="178" on="1"/>
        <pt x="102" y="61" on="1"/>
        <pt x="164" y="42" on="1"/>
        <pt x="155" y="0" on="1"/>
        <pt x="-45" y="0" on="1"/>
      </contour>
      <contour>
        <pt x="332" y="231" on="1"/>
        <pt x="301" y="446" on="1"/>
        <pt x="190" y="231" on="1"/>
      </contour>
    </TTGlyph>
    <TTGlyph name="Aogonek" xMin="-45" yMin="-236" xMax="539" yMax="626">
      <contour>
        <pt x="255" y="-236" on="0"/>
        <pt x="213" y="-194" on="0"/>
        <pt x="213" y="-162" on="1"/>
        <pt x="213" y="-118" on="0"/>
        <pt x="263" y="-51" on="0"/>
        <pt x="308" y="-12" on="1"/>
        <pt x="333" y="11" on="0"/>
        <pt x="357" y="38" on="0"/>
        <pt x="357" y="50" on="1"/>
        <pt x="357" y="55" on="0"/>
        <pt x="355" y="71" on="1"/>
        <pt x="341" y="179" on="1"/>
        <pt x="165" y="179" on="1"/>
        <pt x="102" y="61" on="1"/>
        <pt x="164" y="42" on="1"/>
        <pt x="155" y="0" on="1"/>
        <pt x="-45" y="0" on="1"/>
        <pt x="-38" y="41" on="1"/>
        <pt x="32" y="62" on="1"/>
        <pt x="323" y="613" on="1"/>
        <pt x="393" y="626" on="1"/>
        <pt x="476" y="62" on="1"/>
        <pt x="539" y="41" on="1"/>
        <pt x="531" y="0" on="1"/>
        <pt x="407" y="0" on="1"/>
        <pt x="380" y="0" on="0"/>
        <pt x="328" y="-44" on="0"/>
        <pt x="295" y="-108" on="0"/>
        <pt x="295" y="-134" on="1"/>
        <pt x="295" y="-180" on="0"/>
        <pt x="336" y="-180" on="1"/>
        <pt x="367" y="-180" on="0"/>
        <pt x="396" y="-158" on="1"/>
        <pt x="414" y="-178" on="1"/>
        <pt x="414" y="-180" on="0"/>
        <pt x="384" y="-210" on="0"/>
        <pt x="334" y="-236" on="0"/>
        <pt x="302" y="-236" on="1"/>
      </contour>
      <contour>
        <pt x="333" y="233" on="1"/>
        <pt x="305" y="446" on="1"/>
        <pt x="193" y="233" on="1"/>
      </contour>
    </TTGlyph>
    <TTGlyph name="Aring" xMin="-45" yMin="0" xMax="537" yMax="819">
      <contour>
        <pt x="312" y="631" on="0"/>
        <pt x="263" y="669" on="0"/>
        <pt x="263" y="702" on="1"/>
        <pt x="263" y="753" on="0"/>
        <pt x="328" y="819" on="0"/>
        <pt x="391" y="819" on="1"/>
        <pt x="436" y="819" on="0"/>
        <pt x="481" y="777" on="0"/>
        <pt x="481" y="743" on="1"/>
        <pt x="481" y="694" on="0"/>
        <pt x="411" y="631" on="0"/>
        <pt x="356" y="631" on="1"/>
      </contour>
      <contour>
        <pt x="392" y="674" on="0"/>
        <pt x="415" y="714" on="0"/>
        <pt x="415" y="742" on="1"/>
        <pt x="415" y="758" on="0"/>
        <pt x="397" y="776" on="0"/>
        <pt x="380" y="776" on="1"/>
        <pt x="352" y="776" on="0"/>
        <pt x="329" y="736" on="0"/>
        <pt x="329" y="708" on="1"/>
        <pt x="329" y="691" on="0"/>
        <pt x="343" y="674" on="0"/>
        <pt x="363" y="674" on="1"/>
      </contour>
      <contour>
        <pt x="-38" y="41" on="1"/>
        <pt x="32" y="62" on="1"/>
        <pt x="319" y="614" on="1"/>
        <pt x="387" y="627" on="1"/>
        <pt x="475" y="63" on="1"/>
        <pt x="537" y="41" on="1"/>
        <pt x="529" y="0" on="1"/>
        <pt x="285" y="0" on="1"/>
        <pt x="292" y="42" on="1"/>
        <pt x="357" y="59" on="1"/>
        <pt x="340" y="178" on="1"/>
        <pt x="162" y="178" on="1"/>
        <pt x="102" y="61" on="1"/>
        <pt x="164" y="42" on="1"/>
        <pt x="155" y="0" on="1"/>
        <pt x="-45" y="0" on="1"/>
      </contour>
      <contour>
        <pt x="332" y="231" on="1"/>
        <pt x="301" y="446" on="1"/>
        <pt x="190" y="231" on="1"/>
      </contour>
    </TTGlyph>
    <TTGlyph name="Aringacute" xMin="-45" yMin="0" xMax="581" yMax="980">
      <component glyphName=".ttfautohint" x="0" y="0" flags="0x0"/>
      <component glyphName="A" x="0" y="0" flags="0x0"/>
      <component glyphName="uni030A" x="407" y="0" flags="0x0"/>
      <component glyphName="acutecomb" x="496" y="180" flags="0x4"/>
    </TTGlyph>
    <TTGlyph name="Atilde" xMin="-45" yMin="0" xMax="537" yMax="783">
      <contour>
        <pt x="515" y="713" on="0"/>
        <pt x="476" y="660" on="0"/>
        <pt x="452" y="660" on="1"/>
        <pt x="428" y="660" on="0"/>
        <pt x="362" y="680" on="1"/>
        <pt x="339" y="687" on="0"/>
        <pt x="296" y="698" on="0"/>
        <pt x="285" y="698" on="1"/>
        <pt x="275" y="698" on="0"/>
        <pt x="256" y="683" on="0"/>
        <pt x="244" y="668" on="0"/>
        <pt x="243" y="665" on="1"/>
        <pt x="202" y="681" on="1"/>
        <pt x="219" y="727" on="0"/>
        <pt x="262" y="783" on="0"/>
        <pt x="285" y="783" on="1"/>
        <pt x="309" y="783" on="0"/>
        <pt x="375" y="763" on="1"/>
        <pt x="435" y="745" on="0"/>
        <pt x="453" y="745" on="1"/>
        <pt x="464" y="745" on="0"/>
        <pt x="482" y="759" on="0"/>
        <pt x="494" y="775" on="0"/>
        <pt x="495" y="777" on="1"/>
        <pt x="535" y="760" on="1"/>
      </contour>
      <contour>
        <pt x="162" y="178" on="1"/>
        <pt x="102" y="61" on="1"/>
        <pt x="164" y="42" on="1"/>
        <pt x="155" y="0" on="1"/>
        <pt x="-45" y="0" on="1"/>
        <pt x="-38" y="41" on="1"/>
        <pt x="32" y="62" on="1"/>
        <pt x="319" y="614" on="1"/>
        <pt x="387" y="627" on="1"/>
        <pt x="475" y="63" on="1"/>
        <pt x="537" y="41" on="1"/>
        <pt x="529" y="0" on="1"/>
        <pt x="285" y="0" on="1"/>
        <pt x="292" y="42" on="1"/>
        <pt x="357" y="59" on="1"/>
        <pt x="340" y="178" on="1"/>
      </contour>
      <contour>
        <pt x="332" y="231" on="1"/>
        <pt x="301" y="446" on="1"/>
        <pt x="190" y="231" on="1"/>
      </contour>
    </TTGlyph>
    <TTGlyph name="B" xMin="-14" yMin="0" xMax="534" yMax="613">
      <contour>
        <pt x="494" y="301" on="0"/>
        <pt x="494" y="200" on="1"/>
        <pt x="494" y="142" on="0"/>
        <pt x="429" y="51" on="0"/>
        <pt x="310" y="0" on="0"/>
        <pt x="231" y="0" on="1"/>
        <pt x="-14" y="0" on="1"/>
        <pt x="-7" y="41" on="1"/>
        <pt x="78" y="63" on="1"/>
        <pt x="173" y="550" on="1"/>
        <pt x="96" y="572" on="1"/>
        <pt x="104" y="613" on="1"/>
        <pt x="355" y="613" on="1"/>
        <pt x="446" y="613" on="0"/>
        <pt x="534" y="551" on="0"/>
        <pt x="534" y="497" on="1"/>
        <pt x="534" y="428" on="0"/>
        <pt x="442" y="337" on="0"/>
        <pt x="371" y="324" on="1"/>
      </contour>
      <contour>
        <pt x="313" y="341" on="0"/>
        <pt x="374" y="370" on="0"/>
        <pt x="415" y="436" on="0"/>
        <pt x="415" y="488" on="1"/>
        <pt x="415" y="558" on="0"/>
        <pt x="338" y="558" on="1"/>
        <pt x="307" y="558" on="0"/>
        <pt x="290" y="553" on="1"/>
        <pt x="248" y="341" on="1"/>
        <pt x="281" y="341" on="1"/>
      </contour>
      <contour>
        <pt x="215" y="54" on="0"/>
        <pt x="242" y="54" on="1"/>
        <pt x="297" y="54" on="0"/>
        <pt x="374" y="129" on="0"/>
        <pt x="374" y="202" on="1"/>
        <pt x="374" y="247" on="0"/>
        <pt x="317" y="293" on="0"/>
        <pt x="268" y="293" on="1"/>
        <pt x="239" y="293" on="1"/>
        <pt x="193" y="62" on="1"/>
      </contour>
    </TTGlyph>
    <TTGlyph name="C" xMin="36" yMin="-10" xMax="557" yMax="627">
      <contour>
        <pt x="398" y="6" on="0"/>
        <pt x="315" y="-10" on="0"/>
        <pt x="263" y="-10" on="1"/>
        <pt x="144" y="-10" on="0"/>
        <pt x="36" y="104" on="0"/>
        <pt x="36" y="214" on="1"/>
        <pt x="36" y="323" on="0"/>
        <pt x="118" y="512" on="0"/>
        <pt x="277" y="627" on="0"/>
        <pt x="388" y="627" on="1"/>
        <pt x="484" y="627" on="0"/>
        <pt x="557" y="602" on="1"/>
        <pt x="519" y="454" on="1"/>
        <pt x="472" y="454" on="1"/>
        <pt x="469" y="554" on="1"/>
        <pt x="430" y="566" on="0"/>
        <pt x="379" y="566" on="1"/>
        <pt x="304" y="566" on="0"/>
        <pt x="207" y="462" on="0"/>
        <pt x="163" y="300" on="0"/>
        <pt x="163" y="211" on="1"/>
        <pt x="163" y="129" on="0"/>
        <pt x="222" y="52" on="0"/>
        <pt x="292" y="52" on="1"/>
        <pt x="333" y="52" on="0"/>
        <pt x="377" y="64" on="1"/>
        <pt x="415" y="150" on="1"/>
        <pt x="463" y="150" on="1"/>
        <pt x="444" y="22" on="1"/>
      </contour>
    </TTGlyph>
    <TTGlyph name="Cacute" xMin="31" yMin="-10" xMax="552" yMax="800">
      <contour>
        <pt x="277" y="669" on="1"/>
        <pt x="432" y="800" on="1"/>
        <pt x="523" y="768" on="1"/>
        <pt x="523" y="747" on="1"/>
        <pt x="300" y="640" on="1"/>
      </contour>
      <contour>
        <pt x="394" y="6" on="0"/>
        <pt x="311" y="-10" on="0"/>
        <pt x="259" y="-10" on="1"/>
        <pt x="140" y="-10" on="0"/>
        <pt x="31" y="104" on="0"/>
        <pt x="31" y="214" on="1"/>
        <pt x="31" y="323" on="0"/>
        <pt x="113" y="512" on="0"/>
        <pt x="272" y="627" on="0"/>
        <pt x="383" y="627" on="1"/>
        <pt x="479" y="627" on="0"/>
        <pt x="552" y="602" on="1"/>
        <pt x="514" y="454" on="1"/>
        <pt x="467" y="454" on="1"/>
        <pt x="465" y="554" on="1"/>
        <pt x="426" y="566" on="0"/>
        <pt x="374" y="566" on="1"/>
        <pt x="299" y="566" on="0"/>
        <pt x="203" y="462" on="0"/>
        <pt x="159" y="300" on="0"/>
        <pt x="159" y="211" on="1"/>
        <pt x="159" y="129" on="0"/>
        <pt x="218" y="52" on="0"/>
        <pt x="287" y="52" on="1"/>
        <pt x="328" y="52" on="0"/>
        <pt x="372" y="64" on="1"/>
        <pt x="410" y="150" on="1"/>
        <pt x="458" y="150" on="1"/>
        <pt x="439" y="22" on="1"/>
      </contour>
    </TTGlyph>
    <TTGlyph name="Cacute.loclPLK" xMin="36" yMin="-10" xMax="557" yMax="812">
      <component glyphName=".ttfautohint" x="36" y="0" flags="0x0"/>
      <component glyphName="C" x="0" y="0" flags="0x0"/>
      <component glyphName="acute.loclPLK.case" x="213" y="0" flags="0x0"/>
    </TTGlyph>
    <TTGlyph name="Ccaron" xMin="31" yMin="-10" xMax="552" yMax="799">
      <contour>
        <pt x="389" y="725" on="1"/>
        <pt x="521" y="799" on="1"/>
        <pt x="543" y="772" on="1"/>
        <pt x="415" y="643" on="1"/>
        <pt x="338" y="643" on="1"/>
        <pt x="254" y="775" on="1"/>
        <pt x="283" y="798" on="1"/>
      </contour>
      <contour>
        <pt x="394" y="6" on="0"/>
        <pt x="311" y="-10" on="0"/>
        <pt x="259" y="-10" on="1"/>
        <pt x="140" y="-10" on="0"/>
        <pt x="31" y="104" on="0"/>
        <pt x="31" y="214" on="1"/>
        <pt x="31" y="323" on="0"/>
        <pt x="113" y="512" on="0"/>
        <pt x="272" y="627" on="0"/>
        <pt x="383" y="627" on="1"/>
        <pt x="479" y="627" on="0"/>
        <pt x="552" y="602" on="1"/>
        <pt x="514" y="454" on="1"/>
        <pt x="467" y="454" on="1"/>
        <pt x="465" y="554" on="1"/>
        <pt x="426" y="566" on="0"/>
        <pt x="374" y="566" on="1"/>
        <pt x="299" y="566" on="0"/>
        <pt x="203" y="462" on="0"/>
        <pt x="159" y="300" on="0"/>
        <pt x="159" y="211" on="1"/>
        <pt x="159" y="129" on="0"/>
        <pt x="218" y="52" on="0"/>
        <pt x="287" y="52" on="1"/>
        <pt x="328" y="52" on="0"/>
        <pt x="372" y="64" on="1"/>
        <pt x="410" y="150" on="1"/>
        <pt x="458" y="150" on="1"/>
        <pt x="439" y="22" on="1"/>
      </contour>
    </TTGlyph>
    <TTGlyph name="Ccedilla" xMin="31" yMin="-220" xMax="552" yMax="627">
      <contour>
        <pt x="396" y="6" on="0"/>
        <pt x="314" y="-9" on="0"/>
        <pt x="264" y="-10" on="1"/>
        <pt x="246" y="-45" on="1"/>
        <pt x="291" y="-45" on="0"/>
        <pt x="336" y="-78" on="0"/>
        <pt x="336" y="-106" on="1"/>
        <pt x="336" y="-140" on="0"/>
        <pt x="293" y="-192" on="0"/>
        <pt x="228" y="-220" on="0"/>
        <pt x="197" y="-220" on="1"/>
        <pt x="158" y="-220" on="0"/>
        <pt x="128" y="-207" on="1"/>
        <pt x="144" y="-175" on="1"/>
        <pt x="155" y="-181" on="0"/>
        <pt x="179" y="-181" on="1"/>
        <pt x="206" y="-181" on="0"/>
        <pt x="249" y="-148" on="0"/>
        <pt x="249" y="-123" on="1"/>
        <pt x="249" y="-107" on="0"/>
        <pt x="222" y="-87" on="0"/>
        <pt x="193" y="-86" on="1"/>
        <pt x="190" y="-71" on="1"/>
        <pt x="223" y="-8" on="1"/>
        <pt x="123" y="0" on="0"/>
        <pt x="31" y="113" on="0"/>
        <pt x="31" y="214" on="1"/>
        <pt x="31" y="323" on="0"/>
        <pt x="113" y="512" on="0"/>
        <pt x="272" y="627" on="0"/>
        <pt x="383" y="627" on="1"/>
        <pt x="479" y="627" on="0"/>
        <pt x="552" y="602" on="1"/>
        <pt x="514" y="454" on="1"/>
        <pt x="467" y="454" on="1"/>
        <pt x="465" y="554" on="1"/>
        <pt x="426" y="566" on="0"/>
        <pt x="374" y="566" on="1"/>
        <pt x="299" y="566" on="0"/>
        <pt x="203" y="462" on="0"/>
        <pt x="159" y="300" on="0"/>
        <pt x="159" y="211" on="1"/>
        <pt x="159" y="129" on="0"/>
        <pt x="218" y="52" on="0"/>
        <pt x="287" y="52" on="1"/>
        <pt x="328" y="52" on="0"/>
        <pt x="372" y="64" on="1"/>
        <pt x="410" y="150" on="1"/>
        <pt x="458" y="150" on="1"/>
        <pt x="439" y="22" on="1"/>
      </contour>
    </TTGlyph>
    <TTGlyph name="Ccircumflex" xMin="36" yMin="-10" xMax="557" yMax="798">
      <component glyphName=".ttfautohint" x="36" y="0" flags="0x0"/>
      <component glyphName="C" x="0" y="0" flags="0x0"/>
      <component glyphName="uni0302" x="437" y="0" flags="0x0"/>
    </TTGlyph>
    <TTGlyph name="Cdotaccent" xMin="36" yMin="-10" xMax="557" yMax="794">
      <component glyphName=".ttfautohint" x="36" y="0" flags="0x0"/>
      <component glyphName="C" x="0" y="0" flags="0x0"/>
      <component glyphName="uni0307" x="439" y="0" flags="0x0"/>
    </TTGlyph>
    <TTGlyph name="D" xMin="-12" yMin="0" xMax="614" yMax="613">
      <contour>
        <pt x="-5" y="41" on="1"/>
        <pt x="80" y="63" on="1"/>
        <pt x="175" y="550" on="1"/>
        <pt x="98" y="572" on="1"/>
        <pt x="106" y="613" on="1"/>
        <pt x="370" y="613" on="1"/>
        <pt x="493" y="613" on="0"/>
        <pt x="614" y="502" on="0"/>
        <pt x="614" y="403" on="1"/>
        <pt x="614" y="297" on="0"/>
        <pt x="533" y="113" on="0"/>
        <pt x="374" y="0" on="0"/>
        <pt x="263" y="0" on="1"/>
        <pt x="-12" y="0" on="1"/>
      </contour>
      <contour>
        <pt x="345" y="54" on="0"/>
        <pt x="441" y="159" on="0"/>
        <pt x="487" y="320" on="0"/>
        <pt x="487" y="404" on="1"/>
        <pt x="487" y="483" on="0"/>
        <pt x="422" y="557" on="0"/>
        <pt x="354" y="557" on="1"/>
        <pt x="317" y="557" on="0"/>
        <pt x="291" y="551" on="1"/>
        <pt x="196" y="66" on="1"/>
        <pt x="226" y="54" on="0"/>
        <pt x="274" y="54" on="1"/>
      </contour>
    </TTGlyph>
    <TTGlyph name="Dcaron" xMin="-10" yMin="0" xMax="617" yMax="799">
      <contour>
        <pt x="245" y="775" on="1"/>
        <pt x="274" y="798" on="1"/>
        <pt x="380" y="725" on="1"/>
        <pt x="512" y="799" on="1"/>
        <pt x="534" y="772" on="1"/>
        <pt x="405" y="643" on="1"/>
        <pt x="329" y="643" on="1"/>
      </contour>
      <contour>
        <pt x="-3" y="41" on="1"/>
        <pt x="83" y="63" on="1"/>
        <pt x="178" y="550" on="1"/>
        <pt x="100" y="572" on="1"/>
        <pt x="108" y="613" on="1"/>
        <pt x="372" y="613" on="1"/>
        <pt x="495" y="613" on="0"/>
        <pt x="617" y="502" on="0"/>
        <pt x="617" y="403" on="1"/>
        <pt x="617" y="297" on="0"/>
        <pt x="536" y="113" on="0"/>
        <pt x="376" y="0" on="0"/>
        <pt x="265" y="0" on="1"/>
        <pt x="-10" y="0" on="1"/>
      </contour>
      <contour>
        <pt x="348" y="54" on="0"/>
        <pt x="444" y="159" on="0"/>
        <pt x="490" y="320" on="0"/>
        <pt x="490" y="404" on="1"/>
        <pt x="490" y="483" on="0"/>
        <pt x="424" y="557" on="0"/>
        <pt x="356" y="557" on="1"/>
        <pt x="319" y="557" on="0"/>
        <pt x="293" y="551" on="1"/>
        <pt x="199" y="66" on="1"/>
        <pt x="229" y="54" on="0"/>
        <pt x="277" y="54" on="1"/>
      </contour>
    </TTGlyph>
    <TTGlyph name="Dcroat" xMin="-8" yMin="0" xMax="619" yMax="613">
      <contour>
        <pt x="-1" y="41" on="1"/>
        <pt x="85" y="63" on="1"/>
        <pt x="126" y="275" on="1"/>
        <pt x="58" y="275" on="1"/>
        <pt x="68" y="328" on="1"/>
        <pt x="136" y="328" on="1"/>
        <pt x="180" y="550" on="1"/>
        <pt x="102" y="572" on="1"/>
        <pt x="110" y="613" on="1"/>
        <pt x="374" y="613" on="1"/>
        <pt x="497" y="613" on="0"/>
        <pt x="619" y="502" on="0"/>
        <pt x="619" y="403" on="1"/>
        <pt x="619" y="297" on="0"/>
        <pt x="538" y="113" on="0"/>
        <pt x="378" y="0" on="0"/>
        <pt x="267" y="0" on="1"/>
        <pt x="-8" y="0" on="1"/>
      </contour>
      <contour>
        <pt x="350" y="54" on="0"/>
        <pt x="446" y="160" on="0"/>
        <pt x="492" y="321" on="0"/>
        <pt x="492" y="404" on="1"/>
        <pt x="492" y="483" on="0"/>
        <pt x="426" y="557" on="0"/>
        <pt x="358" y="557" on="1"/>
        <pt x="321" y="557" on="0"/>
        <pt x="295" y="551" on="1"/>
        <pt x="252" y="328" on="1"/>
        <pt x="345" y="328" on="1"/>
        <pt x="335" y="275" on="1"/>
        <pt x="241" y="275" on="1"/>
        <pt x="201" y="66" on="1"/>
        <pt x="231" y="54" on="0"/>
        <pt x="279" y="54" on="1"/>
      </contour>
    </TTGlyph>
    <TTGlyph name="E" xMin="-12" yMin="0" xMax="539" yMax="613">
      <contour>
        <pt x="439" y="398" on="1"/>
        <pt x="403" y="211" on="1"/>
        <pt x="359" y="211" on="1"/>
        <pt x="352" y="280" on="1"/>
        <pt x="240" y="280" on="1"/>
        <pt x="198" y="64" on="1"/>
        <pt x="382" y="64" on="1"/>
        <pt x="424" y="157" on="1"/>
        <pt x="471" y="157" on="1"/>
        <pt x="441" y="0" on="1"/>
        <pt x="-12" y="0" on="1"/>
        <pt x="-5" y="41" on="1"/>
        <pt x="82" y="63" on="1"/>
        <pt x="177" y="550" on="1"/>
        <pt x="98" y="572" on="1"/>
        <pt x="106" y="613" on="1"/>
        <pt x="539" y="613" on="1"/>
        <pt x="512" y="472" on="1"/>
        <pt x="465" y="472" on="1"/>
        <pt x="461" y="551" on="1"/>
        <pt x="292" y="551" on="1"/>
        <pt x="250" y="332" on="1"/>
        <pt x="365" y="332" on="1"/>
        <pt x="395" y="398" on="1"/>
      </contour>
    </TTGlyph>
    <TTGlyph name="Eacute" xMin="-10" yMin="0" xMax="542" yMax="800">
      <contour>
        <pt x="253" y="669" on="1"/>
        <pt x="408" y="800" on="1"/>
        <pt x="499" y="768" on="1"/>
        <pt x="499" y="747" on="1"/>
        <pt x="276" y="640" on="1"/>
      </contour>
      <contour>
        <pt x="442" y="398" on="1"/>
        <pt x="406" y="211" on="1"/>
        <pt x="361" y="211" on="1"/>
        <pt x="355" y="280" on="1"/>
        <pt x="242" y="280" on="1"/>
        <pt x="200" y="64" on="1"/>
        <pt x="384" y="64" on="1"/>
        <pt x="426" y="157" on="1"/>
        <pt x="473" y="157" on="1"/>
        <pt x="444" y="0" on="1"/>
        <pt x="-10" y="0" on="1"/>
        <pt x="-3" y="41" on="1"/>
        <pt x="85" y="63" on="1"/>
        <pt x="179" y="550" on="1"/>
        <pt x="100" y="572" on="1"/>
        <pt x="108" y="613" on="1"/>
        <pt x="542" y="613" on="1"/>
        <pt x="515" y="472" on="1"/>
        <pt x="467" y="472" on="1"/>
        <pt x="464" y="551" on="1"/>
        <pt x="295" y="551" on="1"/>
        <pt x="252" y="332" on="1"/>
        <pt x="367" y="332" on="1"/>
        <pt x="398" y="398" on="1"/>
      </contour>
    </TTGlyph>
    <TTGlyph name="Ebreve" xMin="-12" yMin="0" xMax="539" yMax="787">
      <component glyphName=".ttfautohint" x="0" y="0" flags="0x0"/>
      <component glyphName="E" x="0" y="0" flags="0x0"/>
      <component glyphName="uni0306" x="389" y="0" flags="0x0"/>
    </TTGlyph>
    <TTGlyph name="Ecaron" xMin="-10" yMin="0" xMax="542" yMax="799">
      <contour>
        <pt x="360" y="725" on="1"/>
        <pt x="493" y="799" on="1"/>
        <pt x="515" y="772" on="1"/>
        <pt x="386" y="643" on="1"/>
        <pt x="310" y="643" on="1"/>
        <pt x="226" y="775" on="1"/>
        <pt x="255" y="798" on="1"/>
      </contour>
      <contour>
        <pt x="442" y="398" on="1"/>
        <pt x="406" y="211" on="1"/>
        <pt x="361" y="211" on="1"/>
        <pt x="355" y="280" on="1"/>
        <pt x="242" y="280" on="1"/>
        <pt x="200" y="64" on="1"/>
        <pt x="384" y="64" on="1"/>
        <pt x="426" y="157" on="1"/>
        <pt x="473" y="157" on="1"/>
        <pt x="444" y="0" on="1"/>
        <pt x="-10" y="0" on="1"/>
        <pt x="-3" y="41" on="1"/>
        <pt x="85" y="63" on="1"/>
        <pt x="179" y="550" on="1"/>
        <pt x="100" y="572" on="1"/>
        <pt x="108" y="613" on="1"/>
        <pt x="542" y="613" on="1"/>
        <pt x="515" y="472" on="1"/>
        <pt x="467" y="472" on="1"/>
        <pt x="464" y="551" on="1"/>
        <pt x="295" y="551" on="1"/>
        <pt x="252" y="332" on="1"/>
        <pt x="367" y="332" on="1"/>
        <pt x="398" y="398" on="1"/>
      </contour>
    </TTGlyph>
    <TTGlyph name="Ecircumflex" xMin="-10" yMin="0" xMax="542" yMax="798">
      <contour>
        <pt x="356" y="717" on="1"/>
        <pt x="220" y="643" on="1"/>
        <pt x="199" y="669" on="1"/>
        <pt x="330" y="798" on="1"/>
        <pt x="407" y="798" on="1"/>
        <pt x="488" y="666" on="1"/>
        <pt x="459" y="643" on="1"/>
      </contour>
      <contour>
        <pt x="442" y="398" on="1"/>
        <pt x="406" y="211" on="1"/>
        <pt x="361" y="211" on="1"/>
        <pt x="355" y="280" on="1"/>
        <pt x="242" y="280" on="1"/>
        <pt x="200" y="64" on="1"/>
        <pt x="384" y="64" on="1"/>
        <pt x="426" y="157" on="1"/>
        <pt x="473" y="157" on="1"/>
        <pt x="444" y="0" on="1"/>
        <pt x="-10" y="0" on="1"/>
        <pt x="-3" y="41" on="1"/>
        <pt x="85" y="63" on="1"/>
        <pt x="179" y="550" on="1"/>
        <pt x="100" y="572" on="1"/>
        <pt x="108" y="613" on="1"/>
        <pt x="542" y="613" on="1"/>
        <pt x="515" y="472" on="1"/>
        <pt x="467" y="472" on="1"/>
        <pt x="464" y="551" on="1"/>
        <pt x="295" y="551" on="1"/>
        <pt x="252" y="332" on="1"/>
        <pt x="367" y="332" on="1"/>
        <pt x="398" y="398" on="1"/>
      </contour>
    </TTGlyph>
    <TTGlyph name="Edieresis" xMin="-10" yMin="0" xMax="542" yMax="789">
      <contour>
        <pt x="310" y="694" on="0"/>
        <pt x="269" y="656" on="0"/>
        <pt x="242" y="656" on="1"/>
        <pt x="214" y="656" on="0"/>
        <pt x="171" y="694" on="0"/>
        <pt x="171" y="721" on="1"/>
        <pt x="171" y="749" on="0"/>
        <pt x="214" y="789" on="0"/>
        <pt x="242" y="789" on="1"/>
        <pt x="269" y="789" on="0"/>
        <pt x="310" y="749" on="0"/>
        <pt x="310" y="721" on="1"/>
      </contour>
      <contour>
        <pt x="528" y="694" on="0"/>
        <pt x="487" y="656" on="0"/>
        <pt x="460" y="656" on="1"/>
        <pt x="431" y="656" on="0"/>
        <pt x="390" y="694" on="0"/>
        <pt x="390" y="721" on="1"/>
        <pt x="390" y="749" on="0"/>
        <pt x="431" y="789" on="0"/>
        <pt x="460" y="789" on="1"/>
        <pt x="487" y="789" on="0"/>
        <pt x="528" y="749" on="0"/>
        <pt x="528" y="721" on="1"/>
      </contour>
      <contour>
        <pt x="442" y="398" on="1"/>
        <pt x="406" y="211" on="1"/>
        <pt x="361" y="211" on="1"/>
        <pt x="355" y="280" on="1"/>
        <pt x="242" y="280" on="1"/>
        <pt x="200" y="64" on="1"/>
        <pt x="384" y="64" on="1"/>
        <pt x="426" y="157" on="1"/>
        <pt x="473" y="157" on="1"/>
        <pt x="444" y="0" on="1"/>
        <pt x="-10" y="0" on="1"/>
        <pt x="-3" y="41" on="1"/>
        <pt x="85" y="63" on="1"/>
        <pt x="179" y="550" on="1"/>
        <pt x="100" y="572" on="1"/>
        <pt x="108" y="613" on="1"/>
        <pt x="542" y="613" on="1"/>
        <pt x="515" y="472" on="1"/>
        <pt x="467" y="472" on="1"/>
        <pt x="464" y="551" on="1"/>
        <pt x="295" y="551" on="1"/>
        <pt x="252" y="332" on="1"/>
        <pt x="367" y="332" on="1"/>
        <pt x="398" y="398" on="1"/>
      </contour>
    </TTGlyph>
    <TTGlyph name="Edotaccent" xMin="-10" yMin="0" xMax="542" yMax="794">
      <contour>
        <pt x="430" y="689" on="0"/>
        <pt x="386" y="647" on="0"/>
        <pt x="356" y="647" on="1"/>
        <pt x="325" y="647" on="0"/>
        <pt x="279" y="689" on="0"/>
        <pt x="279" y="719" on="1"/>
        <pt x="279" y="749" on="0"/>
        <pt x="326" y="794" on="0"/>
        <pt x="356" y="794" on="1"/>
        <pt x="386" y="794" on="0"/>
        <pt x="430" y="749" on="0"/>
        <pt x="430" y="719" on="1"/>
      </contour>
      <contour>
        <pt x="442" y="398" on="1"/>
        <pt x="406" y="211" on="1"/>
        <pt x="361" y="211" on="1"/>
        <pt x="355" y="280" on="1"/>
        <pt x="242" y="280" on="1"/>
        <pt x="200" y="64" on="1"/>
        <pt x="384" y="64" on="1"/>
        <pt x="426" y="157" on="1"/>
        <pt x="473" y="157" on="1"/>
        <pt x="444" y="0" on="1"/>
        <pt x="-10" y="0" on="1"/>
        <pt x="-3" y="41" on="1"/>
        <pt x="85" y="63" on="1"/>
        <pt x="179" y="550" on="1"/>
        <pt x="100" y="572" on="1"/>
        <pt x="108" y="613" on="1"/>
        <pt x="542" y="613" on="1"/>
        <pt x="515" y="472" on="1"/>
        <pt x="467" y="472" on="1"/>
        <pt x="464" y="551" on="1"/>
        <pt x="295" y="551" on="1"/>
        <pt x="252" y="332" on="1"/>
        <pt x="367" y="332" on="1"/>
        <pt x="398" y="398" on="1"/>
      </contour>
    </TTGlyph>
    <TTGlyph name="Egrave" xMin="-10" yMin="0" xMax="542" yMax="778">
      <contour>
        <pt x="195" y="753" on="1"/>
        <pt x="224" y="778" on="1"/>
        <pt x="342" y="754" on="1"/>
        <pt x="435" y="663" on="1"/>
        <pt x="345" y="677" on="1"/>
      </contour>
      <contour>
        <pt x="442" y="398" on="1"/>
        <pt x="406" y="211" on="1"/>
        <pt x="361" y="211" on="1"/>
        <pt x="355" y="280" on="1"/>
        <pt x="242" y="280" on="1"/>
        <pt x="200" y="64" on="1"/>
        <pt x="384" y="64" on="1"/>
        <pt x="426" y="157" on="1"/>
        <pt x="473" y="157" on="1"/>
        <pt x="444" y="0" on="1"/>
        <pt x="-10" y="0" on="1"/>
        <pt x="-3" y="41" on="1"/>
        <pt x="85" y="63" on="1"/>
        <pt x="179" y="550" on="1"/>
        <pt x="100" y="572" on="1"/>
        <pt x="108" y="613" on="1"/>
        <pt x="542" y="613" on="1"/>
        <pt x="515" y="472" on="1"/>
        <pt x="467" y="472" on="1"/>
        <pt x="464" y="551" on="1"/>
        <pt x="295" y="551" on="1"/>
        <pt x="252" y="332" on="1"/>
        <pt x="367" y="332" on="1"/>
        <pt x="398" y="398" on="1"/>
      </contour>
    </TTGlyph>
    <TTGlyph name="Emacron" xMin="-10" yMin="0" xMax="542" yMax="753">
      <contour>
        <pt x="490" y="753" on="1"/>
        <pt x="480" y="683" on="1"/>
        <pt x="228" y="683" on="1"/>
        <pt x="237" y="753" on="1"/>
      </contour>
      <contour>
        <pt x="442" y="398" on="1"/>
        <pt x="406" y="211" on="1"/>
        <pt x="361" y="211" on="1"/>
        <pt x="355" y="280" on="1"/>
        <pt x="242" y="280" on="1"/>
        <pt x="200" y="64" on="1"/>
        <pt x="384" y="64" on="1"/>
        <pt x="426" y="157" on="1"/>
        <pt x="473" y="157" on="1"/>
        <pt x="444" y="0" on="1"/>
        <pt x="-10" y="0" on="1"/>
        <pt x="-3" y="41" on="1"/>
        <pt x="85" y="63" on="1"/>
        <pt x="179" y="550" on="1"/>
        <pt x="100" y="572" on="1"/>
        <pt x="108" y="613" on="1"/>
        <pt x="542" y="613" on="1"/>
        <pt x="515" y="472" on="1"/>
        <pt x="467" y="472" on="1"/>
        <pt x="464" y="551" on="1"/>
        <pt x="295" y="551" on="1"/>
        <pt x="252" y="332" on="1"/>
        <pt x="367" y="332" on="1"/>
        <pt x="398" y="398" on="1"/>
      </contour>
    </TTGlyph>
    <TTGlyph name="Eng" xMin="-13" yMin="-178" xMax="714" yMax="613">
      <contour>
        <pt x="714" y="613" on="1"/>
        <pt x="707" y="572" on="1"/>
        <pt x="623" y="551" on="1"/>
        <pt x="528" y="63" on="1"/>
        <pt x="504" y="-71" on="0"/>
        <pt x="407" y="-178" on="0"/>
        <pt x="327" y="-178" on="1"/>
        <pt x="268" y="-178" on="0"/>
        <pt x="208" y="-146" on="1"/>
        <pt x="222" y="-99" on="1"/>
        <pt x="256" y="-113" on="0"/>
        <pt x="300" y="-113" on="1"/>
        <pt x="350" y="-113" on="0"/>
        <pt x="402" y="-39" on="0"/>
        <pt x="410" y="39" on="1"/>
        <pt x="218" y="455" on="1"/>
        <pt x="143" y="63" on="1"/>
        <pt x="219" y="41" on="1"/>
        <pt x="211" y="0" on="1"/>
        <pt x="-13" y="0" on="1"/>
        <pt x="-5" y="41" on="1"/>
        <pt x="77" y="63" on="1"/>
        <pt x="171" y="551" on="1"/>
        <pt x="97" y="572" on="1"/>
        <pt x="105" y="613" on="1"/>
        <pt x="270" y="613" on="1"/>
        <pt x="482" y="157" on="1"/>
        <pt x="558" y="551" on="1"/>
        <pt x="482" y="572" on="1"/>
        <pt x="490" y="613" on="1"/>
      </contour>
    </TTGlyph>
    <TTGlyph name="Eogonek" xMin="-10" yMin="-236" xMax="542" yMax="613">
      <contour>
        <pt x="329" y="-236" on="0"/>
        <pt x="287" y="-194" on="0"/>
        <pt x="287" y="-162" on="1"/>
        <pt x="287" y="-128" on="0"/>
        <pt x="343" y="-42" on="0"/>
        <pt x="400" y="0" on="1"/>
        <pt x="-10" y="0" on="1"/>
        <pt x="-3" y="41" on="1"/>
        <pt x="85" y="63" on="1"/>
        <pt x="179" y="550" on="1"/>
        <pt x="100" y="572" on="1"/>
        <pt x="108" y="613" on="1"/>
        <pt x="542" y="613" on="1"/>
        <pt x="515" y="472" on="1"/>
        <pt x="467" y="472" on="1"/>
        <pt x="464" y="551" on="1"/>
        <pt x="295" y="551" on="1"/>
        <pt x="252" y="332" on="1"/>
        <pt x="367" y="332" on="1"/>
        <pt x="398" y="398" on="1"/>
        <pt x="442" y="398" on="1"/>
        <pt x="406" y="211" on="1"/>
        <pt x="361" y="211" on="1"/>
        <pt x="355" y="280" on="1"/>
        <pt x="242" y="280" on="1"/>
        <pt x="200" y="64" on="1"/>
        <pt x="384" y="64" on="1"/>
        <pt x="426" y="157" on="1"/>
        <pt x="473" y="157" on="1"/>
        <pt x="444" y="0" on="1"/>
        <pt x="416" y="-25" on="0"/>
        <pt x="368" y="-108" on="0"/>
        <pt x="368" y="-137" on="1"/>
        <pt x="368" y="-180" on="0"/>
        <pt x="410" y="-180" on="1"/>
        <pt x="439" y="-180" on="0"/>
        <pt x="470" y="-158" on="1"/>
        <pt x="488" y="-178" on="1"/>
        <pt x="488" y="-180" on="0"/>
        <pt x="457" y="-210" on="0"/>
        <pt x="408" y="-236" on="0"/>
        <pt x="376" y="-236" on="1"/>
      </contour>
    </TTGlyph>
    <TTGlyph name="Eth" xMin="-10" yMin="0" xMax="616" yMax="613">
      <contour>
        <pt x="-3" y="41" on="1"/>
        <pt x="83" y="63" on="1"/>
        <pt x="124" y="275" on="1"/>
        <pt x="56" y="275" on="1"/>
        <pt x="66" y="328" on="1"/>
        <pt x="134" y="328" on="1"/>
        <pt x="177" y="550" on="1"/>
        <pt x="100" y="572" on="1"/>
        <pt x="108" y="613" on="1"/>
        <pt x="372" y="613" on="1"/>
        <pt x="495" y="613" on="0"/>
        <pt x="616" y="502" on="0"/>
        <pt x="616" y="403" on="1"/>
        <pt x="616" y="297" on="0"/>
        <pt x="535" y="113" on="0"/>
        <pt x="376" y="0" on="0"/>
        <pt x="265" y="0" on="1"/>
        <pt x="-10" y="0" on="1"/>
      </contour>
      <contour>
        <pt x="348" y="54" on="0"/>
        <pt x="444" y="160" on="0"/>
        <pt x="490" y="321" on="0"/>
        <pt x="490" y="404" on="1"/>
        <pt x="490" y="483" on="0"/>
        <pt x="424" y="557" on="0"/>
        <pt x="356" y="557" on="1"/>
        <pt x="319" y="557" on="0"/>
        <pt x="293" y="551" on="1"/>
        <pt x="250" y="328" on="1"/>
        <pt x="343" y="328" on="1"/>
        <pt x="333" y="275" on="1"/>
        <pt x="239" y="275" on="1"/>
        <pt x="199" y="66" on="1"/>
        <pt x="229" y="54" on="0"/>
        <pt x="277" y="54" on="1"/>
      </contour>
    </TTGlyph>
    <TTGlyph name="Euro" xMin="0" yMin="-5" xMax="520" yMax="621">
      <contour>
        <pt x="215" y="-5" on="0"/>
        <pt x="133" y="22" on="0"/>
        <pt x="81" y="104" on="0"/>
        <pt x="81" y="180" on="1"/>
        <pt x="81" y="202" on="0"/>
        <pt x="82" y="214" on="1"/>
        <pt x="0" y="214" on="1"/>
        <pt x="18" y="266" on="1"/>
        <pt x="87" y="266" on="1"/>
        <pt x="91" y="292" on="0"/>
        <pt x="99" y="330" on="1"/>
        <pt x="22" y="330" on="1"/>
        <pt x="40" y="383" on="1"/>
        <pt x="113" y="383" on="1"/>
        <pt x="184" y="621" on="0"/>
        <pt x="378" y="621" on="1"/>
        <pt x="452" y="621" on="0"/>
        <pt x="520" y="593" on="1"/>
        <pt x="482" y="464" on="1"/>
        <pt x="443" y="464" on="1"/>
        <pt x="439" y="550" on="1"/>
        <pt x="414" y="559" on="0"/>
        <pt x="382" y="559" on="1"/>
        <pt x="330" y="559" on="0"/>
        <pt x="249" y="484" on="0"/>
        <pt x="221" y="383" on="1"/>
        <pt x="396" y="383" on="1"/>
        <pt x="378" y="330" on="1"/>
        <pt x="208" y="330" on="1"/>
        <pt x="196" y="266" on="1"/>
        <pt x="373" y="266" on="1"/>
        <pt x="355" y="214" on="1"/>
        <pt x="191" y="214" on="1"/>
        <pt x="190" y="204" on="0"/>
        <pt x="190" y="187" on="1"/>
        <pt x="190" y="124" on="0"/>
        <pt x="245" y="55" on="0"/>
        <pt x="311" y="55" on="1"/>
        <pt x="343" y="55" on="0"/>
        <pt x="406" y="68" on="1"/>
        <pt x="405" y="18" on="1"/>
        <pt x="342" y="-5" on="0"/>
        <pt x="273" y="-5" on="1"/>
      </contour>
    </TTGlyph>
    <TTGlyph name="F" xMin="-12" yMin="0" xMax="542" yMax="613">
      <contour>
        <pt x="516" y="472" on="1"/>
        <pt x="468" y="472" on="1"/>
        <pt x="464" y="551" on="1"/>
        <pt x="292" y="551" on="1"/>
        <pt x="247" y="318" on="1"/>
        <pt x="364" y="318" on="1"/>
        <pt x="394" y="384" on="1"/>
        <pt x="439" y="384" on="1"/>
        <pt x="402" y="196" on="1"/>
        <pt x="358" y="196" on="1"/>
        <pt x="353" y="265" on="1"/>
        <pt x="237" y="265" on="1"/>
        <pt x="198" y="64" on="1"/>
        <pt x="293" y="42" on="1"/>
        <pt x="285" y="0" on="1"/>
        <pt x="-12" y="0" on="1"/>
        <pt x="-5" y="41" on="1"/>
        <pt x="82" y="63" on="1"/>
        <pt x="177" y="550" on="1"/>
        <pt x="98" y="572" on="1"/>
        <pt x="106" y="613" on="1"/>
        <pt x="542" y="613" on="1"/>
      </contour>
    </TTGlyph>
    <TTGlyph name="G" xMin="36" yMin="-10" xMax="581" yMax="628">
      <contour>
        <pt x="434" y="566" on="0"/>
        <pt x="383" y="566" on="1"/>
        <pt x="298" y="566" on="0"/>
        <pt x="200" y="450" on="0"/>
        <pt x="163" y="291" on="0"/>
        <pt x="163" y="214" on="1"/>
        <pt x="163" y="139" on="0"/>
        <pt x="218" y="51" on="0"/>
        <pt x="290" y="51" on="1"/>
        <pt x="335" y="51" on="0"/>
        <pt x="368" y="62" on="1"/>
        <pt x="400" y="226" on="1"/>
        <pt x="324" y="248" on="1"/>
        <pt x="332" y="289" on="1"/>
        <pt x="581" y="289" on="1"/>
        <pt x="573" y="246" on="1"/>
        <pt x="509" y="227" on="1"/>
        <pt x="471" y="33" on="1"/>
        <pt x="434" y="14" on="0"/>
        <pt x="328" y="-10" on="0"/>
        <pt x="269" y="-10" on="1"/>
        <pt x="145" y="-10" on="0"/>
        <pt x="36" y="103" on="0"/>
        <pt x="36" y="215" on="1"/>
        <pt x="36" y="327" on="0"/>
        <pt x="117" y="515" on="0"/>
        <pt x="279" y="628" on="0"/>
        <pt x="394" y="628" on="1"/>
        <pt x="446" y="628" on="0"/>
        <pt x="543" y="611" on="0"/>
        <pt x="573" y="598" on="1"/>
        <pt x="534" y="453" on="1"/>
        <pt x="486" y="453" on="1"/>
        <pt x="480" y="553" on="1"/>
      </contour>
    </TTGlyph>
    <TTGlyph name="G_tilde.loclGUA" xMin="32" yMin="-10" xMax="578" yMax="783">
      <contour>
        <pt x="535" y="714" on="0"/>
        <pt x="496" y="660" on="0"/>
        <pt x="473" y="660" on="1"/>
        <pt x="448" y="660" on="0"/>
        <pt x="382" y="680" on="1"/>
        <pt x="360" y="687" on="0"/>
        <pt x="317" y="698" on="0"/>
        <pt x="306" y="698" on="1"/>
        <pt x="295" y="698" on="0"/>
        <pt x="277" y="684" on="0"/>
        <pt x="265" y="668" on="0"/>
        <pt x="264" y="666" on="1"/>
        <pt x="223" y="682" on="1"/>
        <pt x="239" y="727" on="0"/>
        <pt x="282" y="783" on="0"/>
        <pt x="306" y="783" on="1"/>
        <pt x="330" y="783" on="0"/>
        <pt x="396" y="763" on="1"/>
        <pt x="418" y="756" on="0"/>
        <pt x="461" y="745" on="0"/>
        <pt x="473" y="745" on="1"/>
        <pt x="484" y="745" on="0"/>
        <pt x="503" y="760" on="0"/>
        <pt x="515" y="775" on="0"/>
        <pt x="516" y="778" on="1"/>
        <pt x="555" y="761" on="1"/>
      </contour>
      <contour>
        <pt x="431" y="566" on="0"/>
        <pt x="380" y="566" on="1"/>
        <pt x="295" y="566" on="0"/>
        <pt x="197" y="450" on="0"/>
        <pt x="160" y="291" on="0"/>
        <pt x="160" y="214" on="1"/>
        <pt x="160" y="139" on="0"/>
        <pt x="215" y="51" on="0"/>
        <pt x="287" y="51" on="1"/>
        <pt x="332" y="51" on="0"/>
        <pt x="365" y="62" on="1"/>
        <pt x="397" y="226" on="1"/>
        <pt x="321" y="248" on="1"/>
        <pt x="329" y="289" on="1"/>
        <pt x="578" y="289" on="1"/>
        <pt x="570" y="246" on="1"/>
        <pt x="506" y="227" on="1"/>
        <pt x="468" y="33" on="1"/>
        <pt x="431" y="14" on="0"/>
        <pt x="325" y="-10" on="0"/>
        <pt x="266" y="-10" on="1"/>
        <pt x="142" y="-10" on="0"/>
        <pt x="32" y="103" on="0"/>
        <pt x="32" y="215" on="1"/>
        <pt x="32" y="327" on="0"/>
        <pt x="113" y="515" on="0"/>
        <pt x="275" y="628" on="0"/>
        <pt x="391" y="628" on="1"/>
        <pt x="442" y="628" on="0"/>
        <pt x="539" y="611" on="0"/>
        <pt x="570" y="598" on="1"/>
        <pt x="531" y="453" on="1"/>
        <pt x="483" y="453" on="1"/>
        <pt x="477" y="553" on="1"/>
      </contour>
    </TTGlyph>
    <TTGlyph name="Gbreve" xMin="32" yMin="-10" xMax="578" yMax="787">
      <contour>
        <pt x="278" y="657" on="0"/>
        <pt x="278" y="746" on="1"/>
        <pt x="278" y="763" on="0"/>
        <pt x="286" y="787" on="1"/>
        <pt x="334" y="787" on="1"/>
        <pt x="331" y="780" on="0"/>
        <pt x="331" y="770" on="1"/>
        <pt x="332" y="749" on="0"/>
        <pt x="356" y="726" on="0"/>
        <pt x="391" y="726" on="1"/>
        <pt x="436" y="726" on="0"/>
        <pt x="472" y="758" on="0"/>
        <pt x="478" y="787" on="1"/>
        <pt x="525" y="787" on="1"/>
        <pt x="513" y="728" on="0"/>
        <pt x="448" y="657" on="0"/>
        <pt x="380" y="657" on="1"/>
      </contour>
      <contour>
        <pt x="431" y="566" on="0"/>
        <pt x="380" y="566" on="1"/>
        <pt x="295" y="566" on="0"/>
        <pt x="197" y="450" on="0"/>
        <pt x="160" y="291" on="0"/>
        <pt x="160" y="214" on="1"/>
        <pt x="160" y="139" on="0"/>
        <pt x="215" y="51" on="0"/>
        <pt x="287" y="51" on="1"/>
        <pt x="332" y="51" on="0"/>
        <pt x="365" y="62" on="1"/>
        <pt x="397" y="226" on="1"/>
        <pt x="321" y="248" on="1"/>
        <pt x="329" y="289" on="1"/>
        <pt x="578" y="289" on="1"/>
        <pt x="570" y="246" on="1"/>
        <pt x="506" y="227" on="1"/>
        <pt x="468" y="33" on="1"/>
        <pt x="431" y="14" on="0"/>
        <pt x="325" y="-10" on="0"/>
        <pt x="266" y="-10" on="1"/>
        <pt x="142" y="-10" on="0"/>
        <pt x="32" y="103" on="0"/>
        <pt x="32" y="215" on="1"/>
        <pt x="32" y="327" on="0"/>
        <pt x="113" y="515" on="0"/>
        <pt x="275" y="628" on="0"/>
        <pt x="391" y="628" on="1"/>
        <pt x="442" y="628" on="0"/>
        <pt x="539" y="611" on="0"/>
        <pt x="570" y="598" on="1"/>
        <pt x="531" y="453" on="1"/>
        <pt x="483" y="453" on="1"/>
        <pt x="477" y="553" on="1"/>
      </contour>
    </TTGlyph>
    <TTGlyph name="Gcaron" xMin="36" yMin="-10" xMax="581" yMax="799">
      <component glyphName=".ttfautohint" x="36" y="0" flags="0x0"/>
      <component glyphName="G" x="0" y="0" flags="0x0"/>
      <component glyphName="uni030C" x="417" y="0" flags="0x0"/>
    </TTGlyph>
    <TTGlyph name="Gcircumflex" xMin="36" yMin="-10" xMax="581" yMax="798">
      <component glyphName=".ttfautohint" x="36" y="0" flags="0x0"/>
      <component glyphName="G" x="0" y="0" flags="0x0"/>
      <component glyphName="uni0302" x="421" y="0" flags="0x0"/>
    </TTGlyph>
    <TTGlyph name="Gcommaaccent" xMin="32" yMin="-231" xMax="578" yMax="628">
      <contour>
        <pt x="431" y="566" on="0"/>
        <pt x="380" y="566" on="1"/>
        <pt x="295" y="566" on="0"/>
        <pt x="197" y="450" on="0"/>
        <pt x="160" y="291" on="0"/>
        <pt x="160" y="214" on="1"/>
        <pt x="160" y="139" on="0"/>
        <pt x="215" y="51" on="0"/>
        <pt x="287" y="51" on="1"/>
        <pt x="332" y="51" on="0"/>
        <pt x="365" y="62" on="1"/>
        <pt x="397" y="226" on="1"/>
        <pt x="321" y="248" on="1"/>
        <pt x="329" y="289" on="1"/>
        <pt x="578" y="289" on="1"/>
        <pt x="570" y="246" on="1"/>
        <pt x="506" y="227" on="1"/>
        <pt x="468" y="33" on="1"/>
        <pt x="431" y="14" on="0"/>
        <pt x="325" y="-10" on="0"/>
        <pt x="266" y="-10" on="1"/>
        <pt x="142" y="-10" on="0"/>
        <pt x="32" y="103" on="0"/>
        <pt x="32" y="215" on="1"/>
        <pt x="32" y="327" on="0"/>
        <pt x="113" y="515" on="0"/>
        <pt x="275" y="628" on="0"/>
        <pt x="391" y="628" on="1"/>
        <pt x="442" y="628" on="0"/>
        <pt x="539" y="611" on="0"/>
        <pt x="570" y="598" on="1"/>
        <pt x="531" y="453" on="1"/>
        <pt x="483" y="453" on="1"/>
        <pt x="477" y="553" on="1"/>
      </contour>
      <contour>
        <pt x="183" y="-221" on="1"/>
        <pt x="219" y="-45" on="1"/>
        <pt x="305" y="-26" on="1"/>
        <pt x="324" y="-48" on="1"/>
        <pt x="218" y="-231" on="1"/>
      </contour>
    </TTGlyph>
    <TTGlyph name="Gdotaccent" xMin="36" yMin="-10" xMax="581" yMax="794">
      <component glyphName=".ttfautohint" x="36" y="0" flags="0x0"/>
      <component glyphName="G" x="0" y="0" flags="0x0"/>
      <component glyphName="uni0307" x="423" y="0" flags="0x0"/>
    </TTGlyph>
    <TTGlyph name="H" xMin="-14" yMin="0" xMax="725" yMax="613">
      <contour>
        <pt x="-6" y="41" on="1"/>
        <pt x="77" y="63" on="1"/>
        <pt x="172" y="551" on="1"/>
        <pt x="96" y="572" on="1"/>
        <pt x="104" y="613" on="1"/>
        <pt x="378" y="613" on="1"/>
        <pt x="371" y="572" on="1"/>
        <pt x="287" y="551" on="1"/>
        <pt x="245" y="335" on="1"/>
        <pt x="477" y="335" on="1"/>
        <pt x="519" y="551" on="1"/>
        <pt x="443" y="572" on="1"/>
        <pt x="451" y="613" on="1"/>
        <pt x="725" y="613" on="1"/>
        <pt x="717" y="572" on="1"/>
        <pt x="634" y="551" on="1"/>
        <pt x="539" y="63" on="1"/>
        <pt x="615" y="41" on="1"/>
        <pt x="607" y="0" on="1"/>
        <pt x="333" y="0" on="1"/>
        <pt x="341" y="41" on="1"/>
        <pt x="424" y="63" on="1"/>
        <pt x="465" y="275" on="1"/>
        <pt x="234" y="275" on="1"/>
        <pt x="192" y="63" on="1"/>
        <pt x="267" y="41" on="1"/>
        <pt x="260" y="0" on="1"/>
        <pt x="-14" y="0" on="1"/>
      </contour>
    </TTGlyph>
    <TTGlyph name="Hbar" xMin="-14" yMin="0" xMax="725" yMax="613">
      <contour>
        <pt x="634" y="551" on="1"/>
        <pt x="613" y="443" on="1"/>
        <pt x="689" y="443" on="1"/>
        <pt x="678" y="391" on="1"/>
        <pt x="603" y="391" on="1"/>
        <pt x="539" y="63" on="1"/>
        <pt x="615" y="41" on="1"/>
        <pt x="607" y="0" on="1"/>
        <pt x="333" y="0" on="1"/>
        <pt x="341" y="41" on="1"/>
        <pt x="424" y="63" on="1"/>
        <pt x="459" y="244" on="1"/>
        <pt x="227" y="244" on="1"/>
        <pt x="192" y="63" on="1"/>
        <pt x="267" y="41" on="1"/>
        <pt x="260" y="0" on="1"/>
        <pt x="-14" y="0" on="1"/>
        <pt x="-6" y="41" on="1"/>
        <pt x="77" y="63" on="1"/>
        <pt x="141" y="391" on="1"/>
        <pt x="64" y="391" on="1"/>
        <pt x="75" y="443" on="1"/>
        <pt x="151" y="443" on="1"/>
        <pt x="172" y="551" on="1"/>
        <pt x="96" y="572" on="1"/>
        <pt x="104" y="613" on="1"/>
        <pt x="378" y="613" on="1"/>
        <pt x="371" y="572" on="1"/>
        <pt x="287" y="551" on="1"/>
        <pt x="266" y="443" on="1"/>
        <pt x="498" y="443" on="1"/>
        <pt x="519" y="551" on="1"/>
        <pt x="443" y="572" on="1"/>
        <pt x="451" y="613" on="1"/>
        <pt x="725" y="613" on="1"/>
        <pt x="717" y="572" on="1"/>
      </contour>
      <contour>
        <pt x="488" y="391" on="1"/>
        <pt x="256" y="391" on="1"/>
        <pt x="239" y="304" on="1"/>
        <pt x="471" y="304" on="1"/>
      </contour>
    </TTGlyph>
    <TTGlyph name="Hcircumflex" xMin="-14" yMin="0" xMax="725" yMax="798">
      <component glyphName=".ttfautohint" x="0" y="0" flags="0x0"/>
      <component glyphName="H" x="0" y="0" flags="0x0"/>
      <component glyphName="uni0302" x="471" y="0" flags="0x0"/>
    </TTGlyph>
    <TTGlyph name="I" xMin="-12" yMin="0" xMax="384" yMax="613">
      <contour>
        <pt x="-5" y="41" on="1"/>
        <pt x="80" y="63" on="1"/>
        <pt x="175" y="550" on="1"/>
        <pt x="98" y="572" on="1"/>
        <pt x="106" y="613" on="1"/>
        <pt x="384" y="613" on="1"/>
        <pt x="376" y="572" on="1"/>
        <pt x="291" y="550" on="1"/>
        <pt x="196" y="63" on="1"/>
        <pt x="273" y="41" on="1"/>
        <pt x="266" y="0" on="1"/>
        <pt x="-12" y="0" on="1"/>
      </contour>
    </TTGlyph>
    <TTGlyph name="IJ" xMin="-12" yMin="-150" xMax="733" yMax="613">
      <component glyphName=".ttfautohint" x="0" y="0" flags="0x0"/>
      <component glyphName="I" x="0" y="0" flags="0x0"/>
      <component glyphName="J" x="347" y="0" flags="0x0"/>
    </TTGlyph>
    <TTGlyph name="Iacute" xMin="-10" yMin="0" xMax="396" yMax="800">
      <contour>
        <pt x="150" y="669" on="1"/>
        <pt x="305" y="800" on="1"/>
        <pt x="396" y="768" on="1"/>
        <pt x="396" y="747" on="1"/>
        <pt x="173" y="640" on="1"/>
      </contour>
      <contour>
        <pt x="-3" y="41" on="1"/>
        <pt x="83" y="63" on="1"/>
        <pt x="177" y="550" on="1"/>
        <pt x="100" y="572" on="1"/>
        <pt x="108" y="613" on="1"/>
        <pt x="386" y="613" on="1"/>
        <pt x="379" y="572" on="1"/>
        <pt x="293" y="550" on="1"/>
        <pt x="198" y="63" on="1"/>
        <pt x="275" y="41" on="1"/>
        <pt x="268" y="0" on="1"/>
        <pt x="-10" y="0" on="1"/>
      </contour>
    </TTGlyph>
    <TTGlyph name="Iacute_J.loclNLD" xMin="-12" yMin="-150" xMax="781" yMax="800">
      <component glyphName=".ttfautohint" x="0" y="0" flags="0x0"/>
      <component glyphName="I" x="0" y="0" flags="0x0"/>
      <component glyphName="acutecomb" x="355" y="0" flags="0x0"/>
      <component glyphName="J" x="347" y="0" flags="0x0"/>
      <component glyphName="acutecomb" x="696" y="0" flags="0x0"/>
    </TTGlyph>
    <TTGlyph name="Ibreve" xMin="-12" yMin="0" xMax="393" yMax="787">
      <component glyphName=".ttfautohint" x="0" y="0" flags="0x0"/>
      <component glyphName="I" x="0" y="0" flags="0x0"/>
      <component glyphName="uni0306" x="296" y="0" flags="0x0"/>
    </TTGlyph>
    <TTGlyph name="Icircumflex" xMin="-10" yMin="0" xMax="402" yMax="798">
      <contour>
        <pt x="113" y="669" on="1"/>
        <pt x="244" y="798" on="1"/>
        <pt x="321" y="798" on="1"/>
        <pt x="402" y="666" on="1"/>
        <pt x="373" y="643" on="1"/>
        <pt x="270" y="717" on="1"/>
        <pt x="134" y="643" on="1"/>
      </contour>
      <contour>
        <pt x="-3" y="41" on="1"/>
        <pt x="83" y="63" on="1"/>
        <pt x="177" y="550" on="1"/>
        <pt x="100" y="572" on="1"/>
        <pt x="108" y="613" on="1"/>
        <pt x="386" y="613" on="1"/>
        <pt x="379" y="572" on="1"/>
        <pt x="293" y="550" on="1"/>
        <pt x="198" y="63" on="1"/>
        <pt x="275" y="41" on="1"/>
        <pt x="268" y="0" on="1"/>
        <pt x="-10" y="0" on="1"/>
      </contour>
    </TTGlyph>
    <TTGlyph name="Idieresis" xMin="-10" yMin="0" xMax="444" yMax="789">
      <contour>
        <pt x="129" y="656" on="0"/>
        <pt x="87" y="694" on="0"/>
        <pt x="87" y="721" on="1"/>
        <pt x="87" y="749" on="0"/>
        <pt x="129" y="789" on="0"/>
        <pt x="157" y="789" on="1"/>
        <pt x="185" y="789" on="0"/>
        <pt x="225" y="749" on="0"/>
        <pt x="225" y="721" on="1"/>
        <pt x="225" y="694" on="0"/>
        <pt x="185" y="656" on="0"/>
        <pt x="157" y="656" on="1"/>
      </contour>
      <contour>
        <pt x="347" y="656" on="0"/>
        <pt x="306" y="694" on="0"/>
        <pt x="306" y="721" on="1"/>
        <pt x="306" y="749" on="0"/>
        <pt x="347" y="789" on="0"/>
        <pt x="376" y="789" on="1"/>
        <pt x="403" y="789" on="0"/>
        <pt x="444" y="749" on="0"/>
        <pt x="444" y="721" on="1"/>
        <pt x="444" y="694" on="0"/>
        <pt x="403" y="656" on="0"/>
        <pt x="376" y="656" on="1"/>
      </contour>
      <contour>
        <pt x="-3" y="41" on="1"/>
        <pt x="83" y="63" on="1"/>
        <pt x="177" y="550" on="1"/>
        <pt x="100" y="572" on="1"/>
        <pt x="108" y="613" on="1"/>
        <pt x="386" y="613" on="1"/>
        <pt x="379" y="572" on="1"/>
        <pt x="293" y="550" on="1"/>
        <pt x="198" y="63" on="1"/>
        <pt x="275" y="41" on="1"/>
        <pt x="268" y="0" on="1"/>
        <pt x="-10" y="0" on="1"/>
      </contour>
    </TTGlyph>
    <TTGlyph name="Idotaccent" xMin="-10" yMin="0" xMax="386" yMax="794">
      <contour>
        <pt x="235" y="647" on="0"/>
        <pt x="189" y="689" on="0"/>
        <pt x="189" y="719" on="1"/>
        <pt x="189" y="749" on="0"/>
        <pt x="236" y="794" on="0"/>
        <pt x="266" y="794" on="1"/>
        <pt x="296" y="794" on="0"/>
        <pt x="340" y="749" on="0"/>
        <pt x="340" y="719" on="1"/>
        <pt x="340" y="689" on="0"/>
        <pt x="296" y="647" on="0"/>
        <pt x="266" y="647" on="1"/>
      </contour>
      <contour>
        <pt x="-3" y="41" on="1"/>
        <pt x="83" y="63" on="1"/>
        <pt x="177" y="550" on="1"/>
        <pt x="100" y="572" on="1"/>
        <pt x="108" y="613" on="1"/>
        <pt x="386" y="613" on="1"/>
        <pt x="379" y="572" on="1"/>
        <pt x="293" y="550" on="1"/>
        <pt x="198" y="63" on="1"/>
        <pt x="275" y="41" on="1"/>
        <pt x="268" y="0" on="1"/>
        <pt x="-10" y="0" on="1"/>
      </contour>
    </TTGlyph>
    <TTGlyph name="Igrave" xMin="-10" yMin="0" xMax="386" yMax="800">
      <contour>
        <pt x="124" y="747" on="1"/>
        <pt x="126" y="768" on="1"/>
        <pt x="216" y="800" on="1"/>
        <pt x="370" y="669" on="1"/>
        <pt x="349" y="640" on="1"/>
      </contour>
      <contour>
        <pt x="-3" y="41" on="1"/>
        <pt x="83" y="63" on="1"/>
        <pt x="177" y="550" on="1"/>
        <pt x="100" y="572" on="1"/>
        <pt x="108" y="613" on="1"/>
        <pt x="386" y="613" on="1"/>
        <pt x="379" y="572" on="1"/>
        <pt x="293" y="550" on="1"/>
        <pt x="198" y="63" on="1"/>
        <pt x="275" y="41" on="1"/>
        <pt x="268" y="0" on="1"/>
        <pt x="-10" y="0" on="1"/>
      </contour>
    </TTGlyph>
    <TTGlyph name="Imacron" xMin="-10" yMin="0" xMax="401" yMax="755">
      <contour>
        <pt x="155" y="755" on="1"/>
        <pt x="401" y="755" on="1"/>
        <pt x="391" y="685" on="1"/>
        <pt x="145" y="685" on="1"/>
      </contour>
      <contour>
        <pt x="-3" y="41" on="1"/>
        <pt x="83" y="63" on="1"/>
        <pt x="177" y="550" on="1"/>
        <pt x="100" y="572" on="1"/>
        <pt x="108" y="613" on="1"/>
        <pt x="386" y="613" on="1"/>
        <pt x="379" y="572" on="1"/>
        <pt x="293" y="550" on="1"/>
        <pt x="198" y="63" on="1"/>
        <pt x="275" y="41" on="1"/>
        <pt x="268" y="0" on="1"/>
        <pt x="-10" y="0" on="1"/>
      </contour>
    </TTGlyph>
    <TTGlyph name="Iogonek" xMin="-10" yMin="-236" xMax="386" yMax="613">
      <contour>
        <pt x="99" y="-236" on="0"/>
        <pt x="57" y="-192" on="0"/>
        <pt x="57" y="-160" on="1"/>
        <pt x="57" y="-121" on="0"/>
        <pt x="121" y="-32" on="0"/>
        <pt x="176" y="0" on="1"/>
        <pt x="-10" y="0" on="1"/>
        <pt x="-3" y="41" on="1"/>
        <pt x="83" y="63" on="1"/>
        <pt x="177" y="550" on="1"/>
        <pt x="100" y="572" on="1"/>
        <pt x="108" y="613" on="1"/>
        <pt x="386" y="613" on="1"/>
        <pt x="379" y="572" on="1"/>
        <pt x="293" y="550" on="1"/>
        <pt x="198" y="63" on="1"/>
        <pt x="276" y="41" on="1"/>
        <pt x="268" y="0" on="1"/>
        <pt x="236" y="-6" on="0"/>
        <pt x="176" y="-49" on="0"/>
        <pt x="138" y="-107" on="0"/>
        <pt x="138" y="-135" on="1"/>
        <pt x="138" y="-156" on="0"/>
        <pt x="159" y="-180" on="0"/>
        <pt x="180" y="-180" on="1"/>
        <pt x="209" y="-180" on="0"/>
        <pt x="240" y="-158" on="1"/>
        <pt x="258" y="-178" on="1"/>
        <pt x="258" y="-180" on="0"/>
        <pt x="228" y="-210" on="0"/>
        <pt x="178" y="-236" on="0"/>
        <pt x="146" y="-236" on="1"/>
      </contour>
    </TTGlyph>
    <TTGlyph name="Itilde" xMin="-10" yMin="0" xMax="426" yMax="783">
      <contour>
        <pt x="320" y="660" on="0"/>
        <pt x="254" y="680" on="1"/>
        <pt x="231" y="687" on="0"/>
        <pt x="188" y="698" on="0"/>
        <pt x="177" y="698" on="1"/>
        <pt x="166" y="698" on="0"/>
        <pt x="148" y="684" on="0"/>
        <pt x="136" y="668" on="0"/>
        <pt x="135" y="666" on="1"/>
        <pt x="94" y="682" on="1"/>
        <pt x="110" y="727" on="0"/>
        <pt x="153" y="783" on="0"/>
        <pt x="177" y="783" on="1"/>
        <pt x="201" y="783" on="0"/>
        <pt x="267" y="763" on="1"/>
        <pt x="327" y="745" on="0"/>
        <pt x="345" y="745" on="1"/>
        <pt x="356" y="745" on="0"/>
        <pt x="374" y="760" on="0"/>
        <pt x="386" y="775" on="0"/>
        <pt x="387" y="778" on="1"/>
        <pt x="426" y="761" on="1"/>
        <pt x="406" y="713" on="0"/>
        <pt x="367" y="660" on="0"/>
        <pt x="344" y="660" on="1"/>
      </contour>
      <contour>
        <pt x="-3" y="41" on="1"/>
        <pt x="83" y="63" on="1"/>
        <pt x="177" y="550" on="1"/>
        <pt x="100" y="572" on="1"/>
        <pt x="108" y="613" on="1"/>
        <pt x="386" y="613" on="1"/>
        <pt x="379" y="572" on="1"/>
        <pt x="293" y="550" on="1"/>
        <pt x="198" y="63" on="1"/>
        <pt x="275" y="41" on="1"/>
        <pt x="268" y="0" on="1"/>
        <pt x="-10" y="0" on="1"/>
      </contour>
    </TTGlyph>
    <TTGlyph name="J" xMin="-85" yMin="-150" xMax="386" yMax="613">
      <contour>
        <pt x="-48" y="-150" on="0"/>
        <pt x="-85" y="-119" on="1"/>
        <pt x="-74" y="-86" on="1"/>
        <pt x="-10" y="-86" on="1"/>
        <pt x="30" y="-86" on="0"/>
        <pt x="71" y="-23" on="0"/>
        <pt x="83" y="37" on="1"/>
        <pt x="180" y="550" on="1"/>
        <pt x="103" y="572" on="1"/>
        <pt x="111" y="613" on="1"/>
        <pt x="386" y="613" on="1"/>
        <pt x="379" y="572" on="1"/>
        <pt x="293" y="550" on="1"/>
        <pt x="201" y="63" on="1"/>
        <pt x="178" y="-55" on="0"/>
        <pt x="84" y="-150" on="0"/>
        <pt x="9" y="-150" on="1"/>
      </contour>
    </TTGlyph>
    <TTGlyph name="Jcircumflex" xMin="-85" yMin="-150" xMax="391" yMax="798">
      <component glyphName=".ttfautohint" x="0" y="0" flags="0x0"/>
      <component glyphName="J" x="0" y="0" flags="0x0"/>
      <component glyphName="uni0302" x="293" y="0" flags="0x0"/>
    </TTGlyph>
    <TTGlyph name="K" xMin="-12" yMin="0" xMax="638" yMax="613">
      <contour>
        <pt x="368" y="0" on="1"/>
        <pt x="239" y="286" on="1"/>
        <pt x="196" y="63" on="1"/>
        <pt x="263" y="41" on="1"/>
        <pt x="255" y="0" on="1"/>
        <pt x="-12" y="0" on="1"/>
        <pt x="-5" y="41" on="1"/>
        <pt x="80" y="63" on="1"/>
        <pt x="175" y="550" on="1"/>
        <pt x="98" y="572" on="1"/>
        <pt x="106" y="613" on="1"/>
        <pt x="378" y="613" on="1"/>
        <pt x="370" y="571" on="1"/>
        <pt x="291" y="550" on="1"/>
        <pt x="249" y="339" on="1"/>
        <pt x="477" y="555" on="1"/>
        <pt x="425" y="572" on="1"/>
        <pt x="433" y="613" on="1"/>
        <pt x="638" y="613" on="1"/>
        <pt x="631" y="573" on="1"/>
        <pt x="561" y="552" on="1"/>
        <pt x="336" y="337" on="1"/>
        <pt x="468" y="66" on="1"/>
        <pt x="545" y="41" on="1"/>
        <pt x="538" y="0" on="1"/>
      </contour>
    </TTGlyph>
    <TTGlyph name="Kcommaaccent" xMin="-10" yMin="-231" xMax="640" yMax="613">
      <contour>
        <pt x="370" y="0" on="1"/>
        <pt x="241" y="286" on="1"/>
        <pt x="198" y="63" on="1"/>
        <pt x="265" y="41" on="1"/>
        <pt x="257" y="0" on="1"/>
        <pt x="-10" y="0" on="1"/>
        <pt x="-3" y="41" on="1"/>
        <pt x="82" y="63" on="1"/>
        <pt x="177" y="550" on="1"/>
        <pt x="100" y="572" on="1"/>
        <pt x="108" y="613" on="1"/>
        <pt x="380" y="613" on="1"/>
        <pt x="372" y="571" on="1"/>
        <pt x="292" y="550" on="1"/>
        <pt x="251" y="339" on="1"/>
        <pt x="479" y="555" on="1"/>
        <pt x="426" y="572" on="1"/>
        <pt x="434" y="613" on="1"/>
        <pt x="640" y="613" on="1"/>
        <pt x="633" y="573" on="1"/>
        <pt x="563" y="552" on="1"/>
        <pt x="337" y="337" on="1"/>
        <pt x="470" y="66" on="1"/>
        <pt x="547" y="41" on="1"/>
        <pt x="540" y="0" on="1"/>
      </contour>
      <contour>
        <pt x="182" y="-221" on="1"/>
        <pt x="217" y="-45" on="1"/>
        <pt x="303" y="-26" on="1"/>
        <pt x="323" y="-48" on="1"/>
        <pt x="216" y="-231" on="1"/>
      </contour>
    </TTGlyph>
    <TTGlyph name="L" xMin="-12" yMin="0" xMax="444" yMax="613">
      <contour>
        <pt x="-12" y="0" on="1"/>
        <pt x="-5" y="41" on="1"/>
        <pt x="80" y="63" on="1"/>
        <pt x="175" y="550" on="1"/>
        <pt x="98" y="572" on="1"/>
        <pt x="106" y="613" on="1"/>
        <pt x="384" y="613" on="1"/>
        <pt x="376" y="572" on="1"/>
        <pt x="291" y="550" on="1"/>
        <pt x="196" y="64" on="1"/>
        <pt x="356" y="64" on="1"/>
        <pt x="397" y="157" on="1"/>
        <pt x="444" y="157" on="1"/>
        <pt x="414" y="0" on="1"/>
      </contour>
    </TTGlyph>
    <TTGlyph name="Lacute" xMin="-10" yMin="0" xMax="446" yMax="800">
      <contour>
        <pt x="147" y="669" on="1"/>
        <pt x="302" y="800" on="1"/>
        <pt x="393" y="768" on="1"/>
        <pt x="393" y="747" on="1"/>
        <pt x="170" y="640" on="1"/>
      </contour>
      <contour>
        <pt x="-10" y="0" on="1"/>
        <pt x="-3" y="41" on="1"/>
        <pt x="82" y="63" on="1"/>
        <pt x="177" y="550" on="1"/>
        <pt x="100" y="572" on="1"/>
        <pt x="108" y="613" on="1"/>
        <pt x="386" y="613" on="1"/>
        <pt x="378" y="572" on="1"/>
        <pt x="292" y="550" on="1"/>
        <pt x="198" y="64" on="1"/>
        <pt x="357" y="64" on="1"/>
        <pt x="399" y="157" on="1"/>
        <pt x="446" y="157" on="1"/>
        <pt x="416" y="0" on="1"/>
      </contour>
    </TTGlyph>
    <TTGlyph name="Lcaron" xMin="-10" yMin="0" xMax="446" yMax="799">
      <contour>
        <pt x="264" y="725" on="1"/>
        <pt x="397" y="799" on="1"/>
        <pt x="419" y="772" on="1"/>
        <pt x="290" y="643" on="1"/>
        <pt x="214" y="643" on="1"/>
        <pt x="129" y="775" on="1"/>
        <pt x="158" y="798" on="1"/>
      </contour>
      <contour>
        <pt x="-10" y="0" on="1"/>
        <pt x="-3" y="41" on="1"/>
        <pt x="82" y="63" on="1"/>
        <pt x="177" y="550" on="1"/>
        <pt x="100" y="572" on="1"/>
        <pt x="108" y="613" on="1"/>
        <pt x="386" y="613" on="1"/>
        <pt x="378" y="572" on="1"/>
        <pt x="292" y="550" on="1"/>
        <pt x="198" y="64" on="1"/>
        <pt x="357" y="64" on="1"/>
        <pt x="399" y="157" on="1"/>
        <pt x="446" y="157" on="1"/>
        <pt x="416" y="0" on="1"/>
      </contour>
    </TTGlyph>
    <TTGlyph name="Lcommaaccent" xMin="-10" yMin="-231" xMax="446" yMax="613">
      <contour>
        <pt x="-10" y="0" on="1"/>
        <pt x="-3" y="41" on="1"/>
        <pt x="82" y="63" on="1"/>
        <pt x="177" y="550" on="1"/>
        <pt x="100" y="572" on="1"/>
        <pt x="108" y="613" on="1"/>
        <pt x="386" y="613" on="1"/>
        <pt x="378" y="572" on="1"/>
        <pt x="292" y="550" on="1"/>
        <pt x="198" y="64" on="1"/>
        <pt x="357" y="64" on="1"/>
        <pt x="399" y="157" on="1"/>
        <pt x="446" y="157" on="1"/>
        <pt x="416" y="0" on="1"/>
      </contour>
      <contour>
        <pt x="134" y="-221" on="1"/>
        <pt x="170" y="-45" on="1"/>
        <pt x="256" y="-26" on="1"/>
        <pt x="275" y="-48" on="1"/>
        <pt x="169" y="-231" on="1"/>
      </contour>
    </TTGlyph>
    <TTGlyph name="Ldot" xMin="-12" yMin="0" xMax="494" yMax="613">
      <component glyphName=".ttfautohint" x="0" y="0" flags="0x0"/>
      <component glyphName="L" x="0" y="0" flags="0x0"/>
      <component glyphName="periodcentered" x="299" y="163" flags="0x4"/>
    </TTGlyph>
    <TTGlyph name="Lslash" xMin="-10" yMin="0" xMax="446" yMax="613">
      <contour>
        <pt x="-10" y="0" on="1"/>
        <pt x="-3" y="41" on="1"/>
        <pt x="82" y="63" on="1"/>
        <pt x="117" y="245" on="1"/>
        <pt x="43" y="210" on="1"/>
        <pt x="20" y="262" on="1"/>
        <pt x="131" y="314" on="1"/>
        <pt x="177" y="550" on="1"/>
        <pt x="100" y="572" on="1"/>
        <pt x="108" y="613" on="1"/>
        <pt x="386" y="613" on="1"/>
        <pt x="378" y="572" on="1"/>
        <pt x="292" y="550" on="1"/>
        <pt x="258" y="373" on="1"/>
        <pt x="346" y="415" on="1"/>
        <pt x="370" y="363" on="1"/>
        <pt x="244" y="304" on="1"/>
        <pt x="198" y="64" on="1"/>
        <pt x="357" y="64" on="1"/>
        <pt x="399" y="157" on="1"/>
        <pt x="446" y="157" on="1"/>
        <pt x="416" y="0" on="1"/>
      </contour>
    </TTGlyph>
    <TTGlyph name="M" xMin="-19" yMin="-10" xMax="821" yMax="613">
      <contour>
        <pt x="-19" y="0" on="1"/>
        <pt x="-12" y="41" on="1"/>
        <pt x="70" y="63" on="1"/>
        <pt x="185" y="551" on="1"/>
        <pt x="112" y="572" on="1"/>
        <pt x="119" y="613" on="1"/>
        <pt x="315" y="613" on="1"/>
        <pt x="377" y="147" on="1"/>
        <pt x="615" y="613" on="1"/>
        <pt x="821" y="613" on="1"/>
        <pt x="814" y="572" on="1"/>
        <pt x="727" y="550" on="1"/>
        <pt x="654" y="63" on="1"/>
        <pt x="731" y="41" on="1"/>
        <pt x="723" y="0" on="1"/>
        <pt x="447" y="0" on="1"/>
        <pt x="455" y="41" on="1"/>
        <pt x="540" y="63" on="1"/>
        <pt x="599" y="452" on="1"/>
        <pt x="364" y="3" on="1"/>
        <pt x="289" y="-10" on="1"/>
        <pt x="225" y="449" on="1"/>
        <pt x="134" y="63" on="1"/>
        <pt x="210" y="41" on="1"/>
        <pt x="203" y="0" on="1"/>
      </contour>
    </TTGlyph>
    <TTGlyph name="N" xMin="-13" yMin="-11" xMax="714" yMax="613">
      <contour>
        <pt x="714" y="613" on="1"/>
        <pt x="707" y="572" on="1"/>
        <pt x="623" y="551" on="1"/>
        <pt x="516" y="0" on="1"/>
        <pt x="434" y="-11" on="1"/>
        <pt x="218" y="455" on="1"/>
        <pt x="143" y="63" on="1"/>
        <pt x="219" y="41" on="1"/>
        <pt x="211" y="0" on="1"/>
        <pt x="-13" y="0" on="1"/>
        <pt x="-5" y="41" on="1"/>
        <pt x="77" y="63" on="1"/>
        <pt x="171" y="551" on="1"/>
        <pt x="97" y="572" on="1"/>
        <pt x="105" y="613" on="1"/>
        <pt x="270" y="613" on="1"/>
        <pt x="482" y="157" on="1"/>
        <pt x="558" y="551" on="1"/>
        <pt x="482" y="572" on="1"/>
        <pt x="490" y="613" on="1"/>
      </contour>
    </TTGlyph>
    <TTGlyph name="Nacute" xMin="-10" yMin="-11" xMax="718" yMax="800">
      <contour>
        <pt x="340" y="669" on="1"/>
        <pt x="495" y="800" on="1"/>
        <pt x="586" y="768" on="1"/>
        <pt x="586" y="747" on="1"/>
        <pt x="363" y="640" on="1"/>
      </contour>
      <contour>
        <pt x="718" y="613" on="1"/>
        <pt x="710" y="572" on="1"/>
        <pt x="627" y="551" on="1"/>
        <pt x="520" y="0" on="1"/>
        <pt x="437" y="-11" on="1"/>
        <pt x="222" y="455" on="1"/>
        <pt x="146" y="63" on="1"/>
        <pt x="222" y="41" on="1"/>
        <pt x="214" y="0" on="1"/>
        <pt x="-10" y="0" on="1"/>
        <pt x="-2" y="41" on="1"/>
        <pt x="80" y="63" on="1"/>
        <pt x="174" y="551" on="1"/>
        <pt x="101" y="572" on="1"/>
        <pt x="108" y="613" on="1"/>
        <pt x="274" y="613" on="1"/>
        <pt x="486" y="157" on="1"/>
        <pt x="561" y="551" on="1"/>
        <pt x="486" y="572" on="1"/>
        <pt x="493" y="613" on="1"/>
      </contour>
    </TTGlyph>
    <TTGlyph name="Nacute.loclPLK" xMin="-13" yMin="-11" xMax="714" yMax="812">
      <component glyphName=".ttfautohint" x="0" y="0" flags="0x0"/>
      <component glyphName="N" x="0" y="0" flags="0x0"/>
      <component glyphName="acute.loclPLK.case" x="238" y="0" flags="0x0"/>
    </TTGlyph>
    <TTGlyph name="Ncaron" xMin="-10" yMin="-11" xMax="718" yMax="799">
      <contour>
        <pt x="429" y="725" on="1"/>
        <pt x="562" y="799" on="1"/>
        <pt x="584" y="772" on="1"/>
        <pt x="455" y="643" on="1"/>
        <pt x="379" y="643" on="1"/>
        <pt x="295" y="775" on="1"/>
        <pt x="323" y="798" on="1"/>
      </contour>
      <contour>
        <pt x="718" y="613" on="1"/>
        <pt x="710" y="572" on="1"/>
        <pt x="627" y="551" on="1"/>
        <pt x="520" y="0" on="1"/>
        <pt x="437" y="-11" on="1"/>
        <pt x="222" y="455" on="1"/>
        <pt x="146" y="63" on="1"/>
        <pt x="222" y="41" on="1"/>
        <pt x="214" y="0" on="1"/>
        <pt x="-10" y="0" on="1"/>
        <pt x="-2" y="41" on="1"/>
        <pt x="80" y="63" on="1"/>
        <pt x="174" y="551" on="1"/>
        <pt x="101" y="572" on="1"/>
        <pt x="108" y="613" on="1"/>
        <pt x="274" y="613" on="1"/>
        <pt x="486" y="157" on="1"/>
        <pt x="561" y="551" on="1"/>
        <pt x="486" y="572" on="1"/>
        <pt x="493" y="613" on="1"/>
      </contour>
    </TTGlyph>
    <TTGlyph name="Ncommaaccent" xMin="-10" yMin="-231" xMax="718" yMax="613">
      <contour>
        <pt x="718" y="613" on="1"/>
        <pt x="710" y="572" on="1"/>
        <pt x="627" y="551" on="1"/>
        <pt x="520" y="0" on="1"/>
        <pt x="437" y="-11" on="1"/>
        <pt x="222" y="455" on="1"/>
        <pt x="146" y="63" on="1"/>
        <pt x="222" y="41" on="1"/>
        <pt x="214" y="0" on="1"/>
        <pt x="-10" y="0" on="1"/>
        <pt x="-2" y="41" on="1"/>
        <pt x="80" y="63" on="1"/>
        <pt x="174" y="551" on="1"/>
        <pt x="101" y="572" on="1"/>
        <pt x="108" y="613" on="1"/>
        <pt x="274" y="613" on="1"/>
        <pt x="486" y="157" on="1"/>
        <pt x="561" y="551" on="1"/>
        <pt x="486" y="572" on="1"/>
        <pt x="493" y="613" on="1"/>
      </contour>
      <contour>
        <pt x="223" y="-221" on="1"/>
        <pt x="259" y="-45" on="1"/>
        <pt x="345" y="-26" on="1"/>
        <pt x="364" y="-48" on="1"/>
        <pt x="258" y="-231" on="1"/>
      </contour>
    </TTGlyph>
    <TTGlyph name="Ntilde" xMin="-10" yMin="-11" xMax="718" yMax="783">
      <contour>
        <pt x="581" y="714" on="0"/>
        <pt x="542" y="660" on="0"/>
        <pt x="519" y="660" on="1"/>
        <pt x="494" y="660" on="0"/>
        <pt x="428" y="680" on="1"/>
        <pt x="406" y="687" on="0"/>
        <pt x="363" y="698" on="0"/>
        <pt x="351" y="698" on="1"/>
        <pt x="341" y="698" on="0"/>
        <pt x="323" y="684" on="0"/>
        <pt x="311" y="668" on="0"/>
        <pt x="310" y="666" on="1"/>
        <pt x="269" y="682" on="1"/>
        <pt x="285" y="727" on="0"/>
        <pt x="328" y="783" on="0"/>
        <pt x="352" y="783" on="1"/>
        <pt x="375" y="783" on="0"/>
        <pt x="441" y="763" on="1"/>
        <pt x="464" y="756" on="0"/>
        <pt x="507" y="745" on="0"/>
        <pt x="519" y="745" on="1"/>
        <pt x="530" y="745" on="0"/>
        <pt x="549" y="760" on="0"/>
        <pt x="561" y="775" on="0"/>
        <pt x="562" y="778" on="1"/>
        <pt x="601" y="761" on="1"/>
      </contour>
      <contour>
        <pt x="718" y="613" on="1"/>
        <pt x="710" y="572" on="1"/>
        <pt x="627" y="551" on="1"/>
        <pt x="520" y="0" on="1"/>
        <pt x="437" y="-11" on="1"/>
        <pt x="222" y="455" on="1"/>
        <pt x="146" y="63" on="1"/>
        <pt x="222" y="41" on="1"/>
        <pt x="214" y="0" on="1"/>
        <pt x="-10" y="0" on="1"/>
        <pt x="-2" y="41" on="1"/>
        <pt x="80" y="63" on="1"/>
        <pt x="174" y="551" on="1"/>
        <pt x="101" y="572" on="1"/>
        <pt x="108" y="613" on="1"/>
        <pt x="274" y="613" on="1"/>
        <pt x="486" y="157" on="1"/>
        <pt x="561" y="551" on="1"/>
        <pt x="486" y="572" on="1"/>
        <pt x="493" y="613" on="1"/>
      </contour>
    </TTGlyph>
    <TTGlyph name="O" xMin="38" yMin="-10" xMax="613" yMax="627">
      <contour>
        <pt x="144" y="-10" on="0"/>
        <pt x="38" y="102" on="0"/>
        <pt x="38" y="210" on="1"/>
        <pt x="38" y="319" on="0"/>
        <pt x="120" y="510" on="0"/>
        <pt x="279" y="627" on="0"/>
        <pt x="388" y="627" on="1"/>
        <pt x="506" y="627" on="0"/>
        <pt x="613" y="513" on="0"/>
        <pt x="613" y="414" on="1"/>
        <pt x="613" y="303" on="0"/>
        <pt x="531" y="109" on="0"/>
        <pt x="373" y="-10" on="0"/>
        <pt x="264" y="-10" on="1"/>
      </contour>
      <contour>
        <pt x="350" y="51" on="0"/>
        <pt x="445" y="164" on="0"/>
        <pt x="487" y="331" on="0"/>
        <pt x="487" y="415" on="1"/>
        <pt x="487" y="489" on="0"/>
        <pt x="437" y="566" on="0"/>
        <pt x="375" y="566" on="1"/>
        <pt x="295" y="566" on="0"/>
        <pt x="201" y="438" on="0"/>
        <pt x="165" y="273" on="0"/>
        <pt x="165" y="208" on="1"/>
        <pt x="165" y="130" on="0"/>
        <pt x="213" y="51" on="0"/>
        <pt x="276" y="51" on="1"/>
      </contour>
    </TTGlyph>
    <TTGlyph name="OE" xMin="47" yMin="0" xMax="847" yMax="613">
      <contour>
        <pt x="47" y="0" on="0"/>
        <pt x="47" y="210" on="1"/>
        <pt x="47" y="324" on="0"/>
        <pt x="140" y="508" on="0"/>
        <pt x="314" y="613" on="0"/>
        <pt x="430" y="613" on="1"/>
        <pt x="847" y="613" on="1"/>
        <pt x="820" y="472" on="1"/>
        <pt x="772" y="472" on="1"/>
        <pt x="769" y="551" on="1"/>
        <pt x="608" y="551" on="1"/>
        <pt x="565" y="332" on="1"/>
        <pt x="677" y="332" on="1"/>
        <pt x="708" y="398" on="1"/>
        <pt x="752" y="398" on="1"/>
        <pt x="716" y="211" on="1"/>
        <pt x="673" y="211" on="1"/>
        <pt x="666" y="280" on="1"/>
        <pt x="555" y="280" on="1"/>
        <pt x="513" y="64" on="1"/>
        <pt x="689" y="64" on="1"/>
        <pt x="731" y="157" on="1"/>
        <pt x="778" y="157" on="1"/>
        <pt x="748" y="0" on="1"/>
        <pt x="289" y="0" on="1"/>
      </contour>
      <contour>
        <pt x="359" y="58" on="0"/>
        <pt x="398" y="68" on="1"/>
        <pt x="491" y="546" on="1"/>
        <pt x="448" y="555" on="0"/>
        <pt x="407" y="555" on="1"/>
        <pt x="316" y="555" on="0"/>
        <pt x="210" y="434" on="0"/>
        <pt x="169" y="278" on="0"/>
        <pt x="169" y="217" on="1"/>
        <pt x="169" y="58" on="0"/>
        <pt x="305" y="58" on="1"/>
      </contour>
    </TTGlyph>
    <TTGlyph name="Oacute" xMin="38" yMin="-10" xMax="613" yMax="800">
      <component glyphName=".ttfautohint" x="38" y="0" flags="0x0"/>
      <component glyphName="O" x="0" y="0" flags="0x0"/>
      <component glyphName="acute.case" x="240" y="0" flags="0x0"/>
    </TTGlyph>
    <TTGlyph name="Oacute.loclPLK" xMin="38" yMin="-10" xMax="613" yMax="812">
      <component glyphName=".ttfautohint" x="38" y="0" flags="0x0"/>
      <component glyphName="O" x="0" y="0" flags="0x0"/>
      <component glyphName="acute.loclPLK.case" x="215" y="0" flags="0x0"/>
    </TTGlyph>
    <TTGlyph name="Obreve" xMin="38" yMin="-10" xMax="613" yMax="787">
      <component glyphName=".ttfautohint" x="38" y="0" flags="0x0"/>
      <component glyphName="O" x="0" y="0" flags="0x0"/>
      <component glyphName="uni0306" x="436" y="0" flags="0x0"/>
    </TTGlyph>
    <TTGlyph name="Ocircumflex" xMin="38" yMin="-10" xMax="613" yMax="798">
      <contour>
        <pt x="243" y="669" on="1"/>
        <pt x="375" y="798" on="1"/>
        <pt x="451" y="798" on="1"/>
        <pt x="532" y="666" on="1"/>
        <pt x="503" y="643" on="1"/>
        <pt x="400" y="717" on="1"/>
        <pt x="265" y="643" on="1"/>
      </contour>
      <contour>
        <pt x="144" y="-10" on="0"/>
        <pt x="38" y="102" on="0"/>
        <pt x="38" y="210" on="1"/>
        <pt x="38" y="319" on="0"/>
        <pt x="120" y="510" on="0"/>
        <pt x="279" y="627" on="0"/>
        <pt x="388" y="627" on="1"/>
        <pt x="506" y="627" on="0"/>
        <pt x="613" y="513" on="0"/>
        <pt x="613" y="414" on="1"/>
        <pt x="613" y="303" on="0"/>
        <pt x="531" y="109" on="0"/>
        <pt x="373" y="-10" on="0"/>
        <pt x="264" y="-10" on="1"/>
      </contour>
      <contour>
        <pt x="350" y="51" on="0"/>
        <pt x="445" y="164" on="0"/>
        <pt x="487" y="331" on="0"/>
        <pt x="487" y="415" on="1"/>
        <pt x="487" y="489" on="0"/>
        <pt x="437" y="566" on="0"/>
        <pt x="375" y="566" on="1"/>
        <pt x="295" y="566" on="0"/>
        <pt x="201" y="438" on="0"/>
        <pt x="165" y="273" on="0"/>
        <pt x="165" y="208" on="1"/>
        <pt x="165" y="130" on="0"/>
        <pt x="213" y="51" on="0"/>
        <pt x="276" y="51" on="1"/>
      </contour>
    </TTGlyph>
    <TTGlyph name="Odieresis" xMin="38" yMin="-10" xMax="613" yMax="789">
      <contour>
        <pt x="266" y="656" on="0"/>
        <pt x="224" y="694" on="0"/>
        <pt x="224" y="721" on="1"/>
        <pt x="224" y="749" on="0"/>
        <pt x="266" y="789" on="0"/>
        <pt x="294" y="789" on="1"/>
        <pt x="322" y="789" on="0"/>
        <pt x="362" y="749" on="0"/>
        <pt x="362" y="721" on="1"/>
        <pt x="362" y="694" on="0"/>
        <pt x="322" y="656" on="0"/>
        <pt x="294" y="656" on="1"/>
      </contour>
      <contour>
        <pt x="484" y="656" on="0"/>
        <pt x="443" y="694" on="0"/>
        <pt x="443" y="721" on="1"/>
        <pt x="443" y="749" on="0"/>
        <pt x="484" y="789" on="0"/>
        <pt x="513" y="789" on="1"/>
        <pt x="540" y="789" on="0"/>
        <pt x="580" y="749" on="0"/>
        <pt x="580" y="721" on="1"/>
        <pt x="580" y="694" on="0"/>
        <pt x="540" y="656" on="0"/>
        <pt x="513" y="656" on="1"/>
      </contour>
      <contour>
        <pt x="144" y="-10" on="0"/>
        <pt x="38" y="102" on="0"/>
        <pt x="38" y="210" on="1"/>
        <pt x="38" y="319" on="0"/>
        <pt x="120" y="510" on="0"/>
        <pt x="279" y="627" on="0"/>
        <pt x="388" y="627" on="1"/>
        <pt x="506" y="627" on="0"/>
        <pt x="613" y="513" on="0"/>
        <pt x="613" y="414" on="1"/>
        <pt x="613" y="303" on="0"/>
        <pt x="531" y="109" on="0"/>
        <pt x="373" y="-10" on="0"/>
        <pt x="264" y="-10" on="1"/>
      </contour>
      <contour>
        <pt x="350" y="51" on="0"/>
        <pt x="445" y="164" on="0"/>
        <pt x="487" y="331" on="0"/>
        <pt x="487" y="415" on="1"/>
        <pt x="487" y="489" on="0"/>
        <pt x="437" y="566" on="0"/>
        <pt x="375" y="566" on="1"/>
        <pt x="295" y="566" on="0"/>
        <pt x="201" y="438" on="0"/>
        <pt x="165" y="273" on="0"/>
        <pt x="165" y="208" on="1"/>
        <pt x="165" y="130" on="0"/>
        <pt x="213" y="51" on="0"/>
        <pt x="276" y="51" on="1"/>
      </contour>
    </TTGlyph>
    <TTGlyph name="Ograve" xMin="38" yMin="-10" xMax="613" yMax="800">
      <contour>
        <pt x="253" y="747" on="1"/>
        <pt x="256" y="768" on="1"/>
        <pt x="346" y="800" on="1"/>
        <pt x="500" y="669" on="1"/>
        <pt x="479" y="640" on="1"/>
      </contour>
      <contour>
        <pt x="144" y="-10" on="0"/>
        <pt x="38" y="102" on="0"/>
        <pt x="38" y="210" on="1"/>
        <pt x="38" y="319" on="0"/>
        <pt x="120" y="510" on="0"/>
        <pt x="279" y="627" on="0"/>
        <pt x="388" y="627" on="1"/>
        <pt x="506" y="627" on="0"/>
        <pt x="613" y="513" on="0"/>
        <pt x="613" y="414" on="1"/>
        <pt x="613" y="303" on="0"/>
        <pt x="531" y="109" on="0"/>
        <pt x="373" y="-10" on="0"/>
        <pt x="264" y="-10" on="1"/>
      </contour>
      <contour>
        <pt x="350" y="51" on="0"/>
        <pt x="445" y="164" on="0"/>
        <pt x="487" y="331" on="0"/>
        <pt x="487" y="415" on="1"/>
        <pt x="487" y="489" on="0"/>
        <pt x="437" y="566" on="0"/>
        <pt x="375" y="566" on="1"/>
        <pt x="295" y="566" on="0"/>
        <pt x="201" y="438" on="0"/>
        <pt x="165" y="273" on="0"/>
        <pt x="165" y="208" on="1"/>
        <pt x="165" y="130" on="0"/>
        <pt x="213" y="51" on="0"/>
        <pt x="276" y="51" on="1"/>
      </contour>
    </TTGlyph>
    <TTGlyph name="Ohorn" xMin="38" yMin="-10" xMax="699" yMax="697">
      <contour>
        <pt x="699" y="601" on="0"/>
        <pt x="636" y="547" on="0"/>
        <pt x="586" y="535" on="1"/>
        <pt x="613" y="487" on="0"/>
        <pt x="613" y="414" on="1"/>
        <pt x="613" y="303" on="0"/>
        <pt x="531" y="109" on="0"/>
        <pt x="373" y="-10" on="0"/>
        <pt x="264" y="-10" on="1"/>
        <pt x="144" y="-10" on="0"/>
        <pt x="38" y="102" on="0"/>
        <pt x="38" y="210" on="1"/>
        <pt x="38" y="319" on="0"/>
        <pt x="120" y="510" on="0"/>
        <pt x="279" y="627" on="0"/>
        <pt x="388" y="627" on="1"/>
        <pt x="495" y="627" on="0"/>
        <pt x="553" y="577" on="1"/>
        <pt x="579" y="579" on="0"/>
        <pt x="607" y="602" on="0"/>
        <pt x="607" y="629" on="1"/>
        <pt x="607" y="648" on="0"/>
        <pt x="602" y="670" on="1"/>
        <pt x="608" y="683" on="1"/>
        <pt x="686" y="697" on="1"/>
        <pt x="692" y="684" on="0"/>
        <pt x="699" y="652" on="0"/>
        <pt x="699" y="640" on="1"/>
      </contour>
      <contour>
        <pt x="350" y="51" on="0"/>
        <pt x="445" y="164" on="0"/>
        <pt x="487" y="331" on="0"/>
        <pt x="487" y="415" on="1"/>
        <pt x="487" y="489" on="0"/>
        <pt x="437" y="566" on="0"/>
        <pt x="375" y="566" on="1"/>
        <pt x="295" y="566" on="0"/>
        <pt x="201" y="438" on="0"/>
        <pt x="165" y="273" on="0"/>
        <pt x="165" y="208" on="1"/>
        <pt x="165" y="130" on="0"/>
        <pt x="213" y="51" on="0"/>
        <pt x="276" y="51" on="1"/>
      </contour>
    </TTGlyph>
    <TTGlyph name="Ohungarumlaut" xMin="38" yMin="-10" xMax="613" yMax="812">
      <contour>
        <pt x="255" y="655" on="1"/>
        <pt x="345" y="812" on="1"/>
        <pt x="431" y="812" on="1"/>
        <pt x="431" y="792" on="1"/>
        <pt x="282" y="637" on="1"/>
      </contour>
      <contour>
        <pt x="416" y="655" on="1"/>
        <pt x="506" y="812" on="1"/>
        <pt x="592" y="812" on="1"/>
        <pt x="592" y="792" on="1"/>
        <pt x="443" y="637" on="1"/>
      </contour>
      <contour>
        <pt x="144" y="-10" on="0"/>
        <pt x="38" y="102" on="0"/>
        <pt x="38" y="210" on="1"/>
        <pt x="38" y="319" on="0"/>
        <pt x="120" y="510" on="0"/>
        <pt x="279" y="627" on="0"/>
        <pt x="388" y="627" on="1"/>
        <pt x="506" y="627" on="0"/>
        <pt x="613" y="513" on="0"/>
        <pt x="613" y="414" on="1"/>
        <pt x="613" y="303" on="0"/>
        <pt x="531" y="109" on="0"/>
        <pt x="373" y="-10" on="0"/>
        <pt x="264" y="-10" on="1"/>
      </contour>
      <contour>
        <pt x="350" y="51" on="0"/>
        <pt x="445" y="164" on="0"/>
        <pt x="487" y="331" on="0"/>
        <pt x="487" y="415" on="1"/>
        <pt x="487" y="489" on="0"/>
        <pt x="437" y="566" on="0"/>
        <pt x="375" y="566" on="1"/>
        <pt x="295" y="566" on="0"/>
        <pt x="201" y="438" on="0"/>
        <pt x="165" y="273" on="0"/>
        <pt x="165" y="208" on="1"/>
        <pt x="165" y="130" on="0"/>
        <pt x="213" y="51" on="0"/>
        <pt x="276" y="51" on="1"/>
      </contour>
    </TTGlyph>
    <TTGlyph name="Omacron" xMin="38" yMin="-10" xMax="613" yMax="753">
      <contour>
        <pt x="283" y="753" on="1"/>
        <pt x="536" y="753" on="1"/>
        <pt x="526" y="683" on="1"/>
        <pt x="273" y="683" on="1"/>
      </contour>
      <contour>
        <pt x="144" y="-10" on="0"/>
        <pt x="38" y="102" on="0"/>
        <pt x="38" y="210" on="1"/>
        <pt x="38" y="319" on="0"/>
        <pt x="120" y="510" on="0"/>
        <pt x="279" y="627" on="0"/>
        <pt x="388" y="627" on="1"/>
        <pt x="506" y="627" on="0"/>
        <pt x="613" y="513" on="0"/>
        <pt x="613" y="414" on="1"/>
        <pt x="613" y="303" on="0"/>
        <pt x="531" y="109" on="0"/>
        <pt x="373" y="-10" on="0"/>
        <pt x="264" y="-10" on="1"/>
      </contour>
      <contour>
        <pt x="350" y="51" on="0"/>
        <pt x="445" y="164" on="0"/>
        <pt x="487" y="331" on="0"/>
        <pt x="487" y="415" on="1"/>
        <pt x="487" y="489" on="0"/>
        <pt x="437" y="566" on="0"/>
        <pt x="375" y="566" on="1"/>
        <pt x="295" y="566" on="0"/>
        <pt x="201" y="438" on="0"/>
        <pt x="165" y="273" on="0"/>
        <pt x="165" y="208" on="1"/>
        <pt x="165" y="130" on="0"/>
        <pt x="213" y="51" on="0"/>
        <pt x="276" y="51" on="1"/>
      </contour>
    </TTGlyph>
    <TTGlyph name="Oslash" xMin="38" yMin="-93" xMax="613" yMax="709">
      <contour>
        <pt x="189" y="-2" on="1"/>
        <pt x="110" y="14" on="0"/>
        <pt x="38" y="121" on="0"/>
        <pt x="38" y="210" on="1"/>
        <pt x="38" y="319" on="0"/>
        <pt x="120" y="510" on="0"/>
        <pt x="279" y="627" on="0"/>
        <pt x="388" y="627" on="1"/>
        <pt x="393" y="627" on="1"/>
        <pt x="420" y="709" on="1"/>
        <pt x="487" y="709" on="1"/>
        <pt x="458" y="621" on="1"/>
        <pt x="539" y="605" on="0"/>
        <pt x="613" y="496" on="0"/>
        <pt x="613" y="414" on="1"/>
        <pt x="613" y="303" on="0"/>
        <pt x="531" y="109" on="0"/>
        <pt x="373" y="-10" on="0"/>
        <pt x="264" y="-10" on="1"/>
        <pt x="253" y="-10" on="1"/>
        <pt x="226" y="-93" on="1"/>
        <pt x="159" y="-93" on="1"/>
      </contour>
      <contour>
        <pt x="373" y="566" on="1"/>
        <pt x="300" y="565" on="0"/>
        <pt x="207" y="448" on="0"/>
        <pt x="165" y="283" on="0"/>
        <pt x="165" y="208" on="1"/>
        <pt x="165" y="156" on="0"/>
        <pt x="186" y="85" on="0"/>
        <pt x="211" y="68" on="1"/>
      </contour>
      <contour>
        <pt x="345" y="51" on="0"/>
        <pt x="442" y="157" on="0"/>
        <pt x="487" y="324" on="0"/>
        <pt x="487" y="415" on="1"/>
        <pt x="487" y="522" on="0"/>
        <pt x="435" y="551" on="1"/>
        <pt x="273" y="51" on="1"/>
      </contour>
    </TTGlyph>
    <TTGlyph name="Oslashacute" xMin="38" yMin="-93" xMax="613" yMax="800">
      <component glyphName=".ttfautohint" x="38" y="0" flags="0x0"/>
      <component glyphName="Oslash" x="0" y="0" flags="0x0"/>
      <component glyphName="acutecomb" x="400" y="0" flags="0x0"/>
    </TTGlyph>
    <TTGlyph name="Otilde" xMin="38" yMin="-10" xMax="613" yMax="783">
      <contour>
        <pt x="457" y="660" on="0"/>
        <pt x="391" y="680" on="1"/>
        <pt x="369" y="687" on="0"/>
        <pt x="326" y="698" on="0"/>
        <pt x="315" y="698" on="1"/>
        <pt x="304" y="698" on="0"/>
        <pt x="286" y="684" on="0"/>
        <pt x="274" y="668" on="0"/>
        <pt x="273" y="666" on="1"/>
        <pt x="232" y="682" on="1"/>
        <pt x="248" y="727" on="0"/>
        <pt x="291" y="783" on="0"/>
        <pt x="315" y="783" on="1"/>
        <pt x="339" y="783" on="0"/>
        <pt x="405" y="763" on="1"/>
        <pt x="427" y="756" on="0"/>
        <pt x="470" y="745" on="0"/>
        <pt x="482" y="745" on="1"/>
        <pt x="493" y="745" on="0"/>
        <pt x="512" y="760" on="0"/>
        <pt x="524" y="775" on="0"/>
        <pt x="525" y="778" on="1"/>
        <pt x="564" y="761" on="1"/>
        <pt x="544" y="714" on="0"/>
        <pt x="505" y="660" on="0"/>
        <pt x="482" y="660" on="1"/>
      </contour>
      <contour>
        <pt x="144" y="-10" on="0"/>
        <pt x="38" y="102" on="0"/>
        <pt x="38" y="210" on="1"/>
        <pt x="38" y="319" on="0"/>
        <pt x="120" y="510" on="0"/>
        <pt x="279" y="627" on="0"/>
        <pt x="388" y="627" on="1"/>
        <pt x="506" y="627" on="0"/>
        <pt x="613" y="513" on="0"/>
        <pt x="613" y="414" on="1"/>
        <pt x="613" y="303" on="0"/>
        <pt x="531" y="109" on="0"/>
        <pt x="373" y="-10" on="0"/>
        <pt x="264" y="-10" on="1"/>
      </contour>
      <contour>
        <pt x="350" y="51" on="0"/>
        <pt x="445" y="164" on="0"/>
        <pt x="487" y="331" on="0"/>
        <pt x="487" y="415" on="1"/>
        <pt x="487" y="489" on="0"/>
        <pt x="437" y="566" on="0"/>
        <pt x="375" y="566" on="1"/>
        <pt x="295" y="566" on="0"/>
        <pt x="201" y="438" on="0"/>
        <pt x="165" y="273" on="0"/>
        <pt x="165" y="208" on="1"/>
        <pt x="165" y="130" on="0"/>
        <pt x="213" y="51" on="0"/>
        <pt x="276" y="51" on="1"/>
      </contour>
    </TTGlyph>
    <TTGlyph name="P" xMin="-12" yMin="0" xMax="540" yMax="613">
      <contour>
        <pt x="540" y="613" on="0"/>
        <pt x="540" y="474" on="1"/>
        <pt x="540" y="398" on="0"/>
        <pt x="464" y="295" on="0"/>
        <pt x="349" y="245" on="0"/>
        <pt x="291" y="245" on="1"/>
        <pt x="280" y="245" on="0"/>
        <pt x="242" y="248" on="0"/>
        <pt x="233" y="251" on="1"/>
        <pt x="196" y="63" on="1"/>
        <pt x="294" y="42" on="1"/>
        <pt x="286" y="0" on="1"/>
        <pt x="-12" y="0" on="1"/>
        <pt x="-5" y="41" on="1"/>
        <pt x="81" y="63" on="1"/>
        <pt x="175" y="549" on="1"/>
        <pt x="97" y="571" on="1"/>
        <pt x="106" y="613" on="1"/>
        <pt x="361" y="613" on="1"/>
      </contour>
      <contour>
        <pt x="254" y="292" on="0"/>
        <pt x="279" y="292" on="1"/>
        <pt x="318" y="292" on="0"/>
        <pt x="384" y="334" on="0"/>
        <pt x="424" y="415" on="0"/>
        <pt x="424" y="470" on="1"/>
        <pt x="424" y="512" on="0"/>
        <pt x="381" y="557" on="0"/>
        <pt x="339" y="557" on="1"/>
        <pt x="314" y="557" on="0"/>
        <pt x="291" y="551" on="1"/>
        <pt x="241" y="296" on="1"/>
      </contour>
    </TTGlyph>
    <TTGlyph name="Q" xMin="37" yMin="-155" xMax="610" yMax="627">
      <contour>
        <pt x="430" y="-155" on="0"/>
        <pt x="375" y="-132" on="0"/>
        <pt x="328" y="-101" on="1"/>
        <pt x="174" y="-1" on="1"/>
        <pt x="103" y="43" on="0"/>
        <pt x="37" y="144" on="0"/>
        <pt x="37" y="222" on="1"/>
        <pt x="37" y="326" on="0"/>
        <pt x="118" y="512" on="0"/>
        <pt x="277" y="627" on="0"/>
        <pt x="387" y="627" on="1"/>
        <pt x="610" y="627" on="0"/>
        <pt x="610" y="412" on="1"/>
        <pt x="610" y="305" on="0"/>
        <pt x="531" y="118" on="0"/>
        <pt x="388" y="6" on="0"/>
        <pt x="296" y="6" on="1"/>
        <pt x="298" y="0" on="1"/>
        <pt x="360" y="-34" on="0"/>
        <pt x="484" y="-90" on="0"/>
        <pt x="502" y="-90" on="1"/>
        <pt x="570" y="-90" on="1"/>
        <pt x="567" y="-123" on="1"/>
        <pt x="546" y="-135" on="0"/>
        <pt x="480" y="-155" on="0"/>
        <pt x="455" y="-155" on="1"/>
      </contour>
      <contour>
        <pt x="349" y="53" on="0"/>
        <pt x="446" y="177" on="0"/>
        <pt x="485" y="341" on="0"/>
        <pt x="485" y="410" on="1"/>
        <pt x="485" y="485" on="0"/>
        <pt x="436" y="566" on="0"/>
        <pt x="373" y="566" on="1"/>
        <pt x="299" y="566" on="0"/>
        <pt x="204" y="450" on="0"/>
        <pt x="162" y="287" on="0"/>
        <pt x="162" y="212" on="1"/>
        <pt x="162" y="144" on="0"/>
        <pt x="211" y="53" on="0"/>
        <pt x="268" y="53" on="1"/>
      </contour>
    </TTGlyph>
    <TTGlyph name="R" xMin="-12" yMin="0" xMax="541" yMax="613">
      <contour>
        <pt x="353" y="50" on="1"/>
        <pt x="330" y="165" on="0"/>
        <pt x="309" y="245" on="0"/>
        <pt x="287" y="272" on="0"/>
        <pt x="263" y="272" on="1"/>
        <pt x="238" y="272" on="1"/>
        <pt x="197" y="63" on="1"/>
        <pt x="268" y="41" on="1"/>
        <pt x="260" y="0" on="1"/>
        <pt x="-12" y="0" on="1"/>
        <pt x="-5" y="41" on="1"/>
        <pt x="81" y="63" on="1"/>
        <pt x="176" y="550" on="1"/>
        <pt x="98" y="572" on="1"/>
        <pt x="106" y="613" on="1"/>
        <pt x="364" y="613" on="1"/>
        <pt x="456" y="613" on="0"/>
        <pt x="541" y="547" on="0"/>
        <pt x="541" y="488" on="1"/>
        <pt x="541" y="420" on="0"/>
        <pt x="452" y="317" on="0"/>
        <pt x="376" y="297" on="1"/>
        <pt x="401" y="287" on="0"/>
        <pt x="425" y="257" on="0"/>
        <pt x="442" y="198" on="0"/>
        <pt x="458" y="122" on="1"/>
        <pt x="471" y="63" on="1"/>
        <pt x="533" y="41" on="1"/>
        <pt x="526" y="0" on="1"/>
        <pt x="363" y="0" on="1"/>
      </contour>
      <contour>
        <pt x="349" y="322" on="0"/>
        <pt x="422" y="412" on="0"/>
        <pt x="422" y="485" on="1"/>
        <pt x="422" y="524" on="0"/>
        <pt x="383" y="559" on="0"/>
        <pt x="340" y="559" on="1"/>
        <pt x="317" y="559" on="0"/>
        <pt x="292" y="552" on="1"/>
        <pt x="247" y="322" on="1"/>
        <pt x="290" y="322" on="1"/>
      </contour>
    </TTGlyph>
    <TTGlyph name="Racute" xMin="-9" yMin="0" xMax="544" yMax="800">
      <contour>
        <pt x="255" y="669" on="1"/>
        <pt x="410" y="800" on="1"/>
        <pt x="501" y="768" on="1"/>
        <pt x="501" y="747" on="1"/>
        <pt x="278" y="640" on="1"/>
      </contour>
      <contour>
        <pt x="356" y="50" on="1"/>
        <pt x="333" y="165" on="0"/>
        <pt x="312" y="245" on="0"/>
        <pt x="290" y="272" on="0"/>
        <pt x="266" y="272" on="1"/>
        <pt x="241" y="272" on="1"/>
        <pt x="200" y="63" on="1"/>
        <pt x="271" y="41" on="1"/>
        <pt x="263" y="0" on="1"/>
        <pt x="-9" y="0" on="1"/>
        <pt x="-2" y="41" on="1"/>
        <pt x="84" y="63" on="1"/>
        <pt x="179" y="550" on="1"/>
        <pt x="101" y="572" on="1"/>
        <pt x="109" y="613" on="1"/>
        <pt x="367" y="613" on="1"/>
        <pt x="459" y="613" on="0"/>
        <pt x="544" y="547" on="0"/>
        <pt x="544" y="488" on="1"/>
        <pt x="544" y="420" on="0"/>
        <pt x="454" y="317" on="0"/>
        <pt x="379" y="297" on="1"/>
        <pt x="404" y="287" on="0"/>
        <pt x="428" y="257" on="0"/>
        <pt x="445" y="198" on="0"/>
        <pt x="461" y="122" on="1"/>
        <pt x="474" y="63" on="1"/>
        <pt x="536" y="41" on="1"/>
        <pt x="528" y="0" on="1"/>
        <pt x="366" y="0" on="1"/>
      </contour>
      <contour>
        <pt x="352" y="322" on="0"/>
        <pt x="425" y="412" on="0"/>
        <pt x="425" y="485" on="1"/>
        <pt x="425" y="524" on="0"/>
        <pt x="386" y="559" on="0"/>
        <pt x="343" y="559" on="1"/>
        <pt x="318" y="559" on="0"/>
        <pt x="295" y="552" on="1"/>
        <pt x="250" y="322" on="1"/>
        <pt x="293" y="322" on="1"/>
      </contour>
    </TTGlyph>
    <TTGlyph name="Rcaron" xMin="-9" yMin="0" xMax="544" yMax="799">
      <contour>
        <pt x="357" y="725" on="1"/>
        <pt x="490" y="799" on="1"/>
        <pt x="511" y="772" on="1"/>
        <pt x="383" y="643" on="1"/>
        <pt x="307" y="643" on="1"/>
        <pt x="222" y="775" on="1"/>
        <pt x="251" y="798" on="1"/>
      </contour>
      <contour>
        <pt x="356" y="50" on="1"/>
        <pt x="333" y="165" on="0"/>
        <pt x="312" y="245" on="0"/>
        <pt x="290" y="272" on="0"/>
        <pt x="266" y="272" on="1"/>
        <pt x="241" y="272" on="1"/>
        <pt x="200" y="63" on="1"/>
        <pt x="271" y="41" on="1"/>
        <pt x="263" y="0" on="1"/>
        <pt x="-9" y="0" on="1"/>
        <pt x="-2" y="41" on="1"/>
        <pt x="84" y="63" on="1"/>
        <pt x="179" y="550" on="1"/>
        <pt x="101" y="572" on="1"/>
        <pt x="109" y="613" on="1"/>
        <pt x="367" y="613" on="1"/>
        <pt x="459" y="613" on="0"/>
        <pt x="544" y="547" on="0"/>
        <pt x="544" y="488" on="1"/>
        <pt x="544" y="420" on="0"/>
        <pt x="454" y="317" on="0"/>
        <pt x="379" y="297" on="1"/>
        <pt x="404" y="287" on="0"/>
        <pt x="428" y="257" on="0"/>
        <pt x="445" y="198" on="0"/>
        <pt x="461" y="122" on="1"/>
        <pt x="474" y="63" on="1"/>
        <pt x="536" y="41" on="1"/>
        <pt x="528" y="0" on="1"/>
        <pt x="366" y="0" on="1"/>
      </contour>
      <contour>
        <pt x="352" y="322" on="0"/>
        <pt x="425" y="412" on="0"/>
        <pt x="425" y="485" on="1"/>
        <pt x="425" y="524" on="0"/>
        <pt x="386" y="559" on="0"/>
        <pt x="343" y="559" on="1"/>
        <pt x="318" y="559" on="0"/>
        <pt x="295" y="552" on="1"/>
        <pt x="250" y="322" on="1"/>
        <pt x="293" y="322" on="1"/>
      </contour>
    </TTGlyph>
    <TTGlyph name="Rcommaaccent" xMin="-9" yMin="-231" xMax="544" yMax="613">
      <contour>
        <pt x="356" y="50" on="1"/>
        <pt x="333" y="165" on="0"/>
        <pt x="312" y="245" on="0"/>
        <pt x="290" y="272" on="0"/>
        <pt x="266" y="272" on="1"/>
        <pt x="241" y="272" on="1"/>
        <pt x="200" y="63" on="1"/>
        <pt x="271" y="41" on="1"/>
        <pt x="263" y="0" on="1"/>
        <pt x="-9" y="0" on="1"/>
        <pt x="-2" y="41" on="1"/>
        <pt x="84" y="63" on="1"/>
        <pt x="179" y="550" on="1"/>
        <pt x="101" y="572" on="1"/>
        <pt x="109" y="613" on="1"/>
        <pt x="367" y="613" on="1"/>
        <pt x="459" y="613" on="0"/>
        <pt x="544" y="547" on="0"/>
        <pt x="544" y="488" on="1"/>
        <pt x="544" y="420" on="0"/>
        <pt x="454" y="317" on="0"/>
        <pt x="379" y="297" on="1"/>
        <pt x="404" y="287" on="0"/>
        <pt x="428" y="257" on="0"/>
        <pt x="445" y="198" on="0"/>
        <pt x="461" y="122" on="1"/>
        <pt x="474" y="63" on="1"/>
        <pt x="536" y="41" on="1"/>
        <pt x="528" y="0" on="1"/>
        <pt x="366" y="0" on="1"/>
      </contour>
      <contour>
        <pt x="352" y="322" on="0"/>
        <pt x="425" y="412" on="0"/>
        <pt x="425" y="485" on="1"/>
        <pt x="425" y="524" on="0"/>
        <pt x="386" y="559" on="0"/>
        <pt x="343" y="559" on="1"/>
        <pt x="318" y="559" on="0"/>
        <pt x="295" y="552" on="1"/>
        <pt x="250" y="322" on="1"/>
        <pt x="293" y="322" on="1"/>
      </contour>
      <contour>
        <pt x="185" y="-221" on="1"/>
        <pt x="220" y="-45" on="1"/>
        <pt x="306" y="-26" on="1"/>
        <pt x="326" y="-48" on="1"/>
        <pt x="219" y="-231" on="1"/>
      </contour>
    </TTGlyph>
    <TTGlyph name="S" xMin="-7" yMin="-10" xMax="475" yMax="628">
      <contour>
        <pt x="116" y="-10" on="0"/>
        <pt x="27" y="6" on="0"/>
        <pt x="-7" y="21" on="1"/>
        <pt x="25" y="154" on="1"/>
        <pt x="72" y="154" on="1"/>
        <pt x="78" y="67" on="1"/>
        <pt x="125" y="52" on="0"/>
        <pt x="174" y="52" on="1"/>
        <pt x="236" y="52" on="0"/>
        <pt x="306" y="111" on="0"/>
        <pt x="306" y="161" on="1"/>
        <pt x="306" y="192" on="0"/>
        <pt x="276" y="235" on="0"/>
        <pt x="242" y="250" on="1"/>
        <pt x="171" y="285" on="1"/>
        <pt x="138" y="300" on="0"/>
        <pt x="82" y="369" on="0"/>
        <pt x="82" y="421" on="1"/>
        <pt x="82" y="518" on="0"/>
        <pt x="205" y="628" on="0"/>
        <pt x="321" y="628" on="1"/>
        <pt x="395" y="628" on="0"/>
        <pt x="475" y="598" on="1"/>
        <pt x="443" y="460" on="1"/>
        <pt x="397" y="460" on="1"/>
        <pt x="389" y="552" on="1"/>
        <pt x="376" y="558" on="0"/>
        <pt x="333" y="565" on="0"/>
        <pt x="311" y="565" on="1"/>
        <pt x="255" y="565" on="0"/>
        <pt x="190" y="515" on="0"/>
        <pt x="190" y="466" on="1"/>
        <pt x="190" y="436" on="0"/>
        <pt x="221" y="399" on="0"/>
        <pt x="254" y="384" on="1"/>
        <pt x="325" y="349" on="1"/>
        <pt x="418" y="305" on="0"/>
        <pt x="418" y="211" on="1"/>
        <pt x="418" y="111" on="0"/>
        <pt x="285" y="-10" on="0"/>
        <pt x="157" y="-10" on="1"/>
      </contour>
    </TTGlyph>
    <TTGlyph name="Sacute" xMin="-7" yMin="-10" xMax="475" yMax="800">
      <contour>
        <pt x="211" y="669" on="1"/>
        <pt x="366" y="800" on="1"/>
        <pt x="457" y="768" on="1"/>
        <pt x="457" y="747" on="1"/>
        <pt x="234" y="640" on="1"/>
      </contour>
      <contour>
        <pt x="116" y="-10" on="0"/>
        <pt x="27" y="6" on="0"/>
        <pt x="-7" y="21" on="1"/>
        <pt x="25" y="154" on="1"/>
        <pt x="72" y="154" on="1"/>
        <pt x="78" y="67" on="1"/>
        <pt x="125" y="52" on="0"/>
        <pt x="174" y="52" on="1"/>
        <pt x="236" y="52" on="0"/>
        <pt x="306" y="111" on="0"/>
        <pt x="306" y="161" on="1"/>
        <pt x="306" y="192" on="0"/>
        <pt x="275" y="235" on="0"/>
        <pt x="241" y="250" on="1"/>
        <pt x="170" y="285" on="1"/>
        <pt x="137" y="300" on="0"/>
        <pt x="82" y="369" on="0"/>
        <pt x="82" y="421" on="1"/>
        <pt x="82" y="517" on="0"/>
        <pt x="204" y="628" on="0"/>
        <pt x="320" y="628" on="1"/>
        <pt x="395" y="628" on="0"/>
        <pt x="475" y="598" on="1"/>
        <pt x="442" y="460" on="1"/>
        <pt x="396" y="460" on="1"/>
        <pt x="388" y="552" on="1"/>
        <pt x="375" y="557" on="0"/>
        <pt x="333" y="565" on="0"/>
        <pt x="311" y="565" on="1"/>
        <pt x="255" y="565" on="0"/>
        <pt x="189" y="515" on="0"/>
        <pt x="189" y="466" on="1"/>
        <pt x="189" y="436" on="0"/>
        <pt x="221" y="399" on="0"/>
        <pt x="254" y="384" on="1"/>
        <pt x="325" y="349" on="1"/>
        <pt x="418" y="305" on="0"/>
        <pt x="418" y="211" on="1"/>
        <pt x="418" y="111" on="0"/>
        <pt x="285" y="-10" on="0"/>
        <pt x="157" y="-10" on="1"/>
      </contour>
    </TTGlyph>
    <TTGlyph name="Sacute.loclPLK" xMin="-7" yMin="-10" xMax="475" yMax="812">
      <component glyphName=".ttfautohint" x="0" y="0" flags="0x0"/>
      <component glyphName="S" x="0" y="0" flags="0x0"/>
      <component glyphName="acute.loclPLK.case" x="137" y="0" flags="0x0"/>
    </TTGlyph>
    <TTGlyph name="Scaron" xMin="-7" yMin="-10" xMax="475" yMax="799">
      <contour>
        <pt x="318" y="725" on="1"/>
        <pt x="451" y="799" on="1"/>
        <pt x="473" y="772" on="1"/>
        <pt x="344" y="643" on="1"/>
        <pt x="268" y="643" on="1"/>
        <pt x="183" y="775" on="1"/>
        <pt x="212" y="798" on="1"/>
      </contour>
      <contour>
        <pt x="116" y="-10" on="0"/>
        <pt x="27" y="6" on="0"/>
        <pt x="-7" y="21" on="1"/>
        <pt x="25" y="154" on="1"/>
        <pt x="72" y="154" on="1"/>
        <pt x="78" y="67" on="1"/>
        <pt x="125" y="52" on="0"/>
        <pt x="174" y="52" on="1"/>
        <pt x="236" y="52" on="0"/>
        <pt x="306" y="111" on="0"/>
        <pt x="306" y="161" on="1"/>
        <pt x="306" y="192" on="0"/>
        <pt x="275" y="235" on="0"/>
        <pt x="241" y="250" on="1"/>
        <pt x="170" y="285" on="1"/>
        <pt x="137" y="300" on="0"/>
        <pt x="82" y="369" on="0"/>
        <pt x="82" y="421" on="1"/>
        <pt x="82" y="517" on="0"/>
        <pt x="204" y="628" on="0"/>
        <pt x="320" y="628" on="1"/>
        <pt x="395" y="628" on="0"/>
        <pt x="475" y="598" on="1"/>
        <pt x="442" y="460" on="1"/>
        <pt x="396" y="460" on="1"/>
        <pt x="388" y="552" on="1"/>
        <pt x="375" y="557" on="0"/>
        <pt x="333" y="565" on="0"/>
        <pt x="311" y="565" on="1"/>
        <pt x="255" y="565" on="0"/>
        <pt x="189" y="515" on="0"/>
        <pt x="189" y="466" on="1"/>
        <pt x="189" y="436" on="0"/>
        <pt x="221" y="399" on="0"/>
        <pt x="254" y="384" on="1"/>
        <pt x="325" y="349" on="1"/>
        <pt x="418" y="305" on="0"/>
        <pt x="418" y="211" on="1"/>
        <pt x="418" y="111" on="0"/>
        <pt x="285" y="-10" on="0"/>
        <pt x="157" y="-10" on="1"/>
      </contour>
    </TTGlyph>
    <TTGlyph name="Scedilla" xMin="-10" yMin="-220" xMax="472" yMax="628">
      <contour>
        <pt x="415" y="116" on="0"/>
        <pt x="295" y="-3" on="0"/>
        <pt x="178" y="-9" on="1"/>
        <pt x="161" y="-45" on="1"/>
        <pt x="206" y="-45" on="0"/>
        <pt x="250" y="-78" on="0"/>
        <pt x="250" y="-106" on="1"/>
        <pt x="250" y="-140" on="0"/>
        <pt x="208" y="-192" on="0"/>
        <pt x="143" y="-220" on="0"/>
        <pt x="112" y="-220" on="1"/>
        <pt x="88" y="-220" on="0"/>
        <pt x="58" y="-213" on="0"/>
        <pt x="43" y="-207" on="1"/>
        <pt x="58" y="-175" on="1"/>
        <pt x="70" y="-181" on="0"/>
        <pt x="93" y="-181" on="1"/>
        <pt x="120" y="-181" on="0"/>
        <pt x="163" y="-148" on="0"/>
        <pt x="163" y="-123" on="1"/>
        <pt x="163" y="-87" on="0"/>
        <pt x="107" y="-86" on="1"/>
        <pt x="104" y="-71" on="1"/>
        <pt x="137" y="-10" on="1"/>
        <pt x="98" y="-8" on="0"/>
        <pt x="20" y="7" on="0"/>
        <pt x="-10" y="21" on="1"/>
        <pt x="23" y="154" on="1"/>
        <pt x="69" y="154" on="1"/>
        <pt x="75" y="67" on="1"/>
        <pt x="122" y="52" on="0"/>
        <pt x="171" y="52" on="1"/>
        <pt x="233" y="52" on="0"/>
        <pt x="303" y="111" on="0"/>
        <pt x="303" y="161" on="1"/>
        <pt x="303" y="192" on="0"/>
        <pt x="273" y="235" on="0"/>
        <pt x="239" y="250" on="1"/>
        <pt x="168" y="285" on="1"/>
        <pt x="135" y="300" on="0"/>
        <pt x="79" y="369" on="0"/>
        <pt x="79" y="421" on="1"/>
        <pt x="79" y="518" on="0"/>
        <pt x="202" y="628" on="0"/>
        <pt x="318" y="628" on="1"/>
        <pt x="392" y="628" on="0"/>
        <pt x="472" y="598" on="1"/>
        <pt x="440" y="460" on="1"/>
        <pt x="394" y="460" on="1"/>
        <pt x="386" y="552" on="1"/>
        <pt x="373" y="558" on="0"/>
        <pt x="330" y="565" on="0"/>
        <pt x="308" y="565" on="1"/>
        <pt x="252" y="565" on="0"/>
        <pt x="187" y="515" on="0"/>
        <pt x="187" y="466" on="1"/>
        <pt x="187" y="436" on="0"/>
        <pt x="218" y="399" on="0"/>
        <pt x="251" y="384" on="1"/>
        <pt x="322" y="349" on="1"/>
        <pt x="415" y="305" on="0"/>
        <pt x="415" y="211" on="1"/>
      </contour>
    </TTGlyph>
    <TTGlyph name="Scircumflex" xMin="-7" yMin="-10" xMax="475" yMax="798">
      <component glyphName=".ttfautohint" x="0" y="0" flags="0x0"/>
      <component glyphName="S" x="0" y="0" flags="0x0"/>
      <component glyphName="uni0302" x="361" y="0" flags="0x0"/>
    </TTGlyph>
    <TTGlyph name="Scommaaccent" xMin="-10" yMin="-231" xMax="472" yMax="628">
      <contour>
        <pt x="113" y="-10" on="0"/>
        <pt x="24" y="6" on="0"/>
        <pt x="-10" y="21" on="1"/>
        <pt x="23" y="154" on="1"/>
        <pt x="69" y="154" on="1"/>
        <pt x="75" y="67" on="1"/>
        <pt x="122" y="52" on="0"/>
        <pt x="171" y="52" on="1"/>
        <pt x="233" y="52" on="0"/>
        <pt x="303" y="111" on="0"/>
        <pt x="303" y="161" on="1"/>
        <pt x="303" y="192" on="0"/>
        <pt x="273" y="235" on="0"/>
        <pt x="239" y="250" on="1"/>
        <pt x="168" y="285" on="1"/>
        <pt x="135" y="300" on="0"/>
        <pt x="79" y="369" on="0"/>
        <pt x="79" y="421" on="1"/>
        <pt x="79" y="518" on="0"/>
        <pt x="202" y="628" on="0"/>
        <pt x="318" y="628" on="1"/>
        <pt x="392" y="628" on="0"/>
        <pt x="472" y="598" on="1"/>
        <pt x="440" y="460" on="1"/>
        <pt x="394" y="460" on="1"/>
        <pt x="386" y="552" on="1"/>
        <pt x="373" y="558" on="0"/>
        <pt x="330" y="565" on="0"/>
        <pt x="308" y="565" on="1"/>
        <pt x="252" y="565" on="0"/>
        <pt x="187" y="515" on="0"/>
        <pt x="187" y="466" on="1"/>
        <pt x="187" y="436" on="0"/>
        <pt x="218" y="399" on="0"/>
        <pt x="251" y="384" on="1"/>
        <pt x="322" y="349" on="1"/>
        <pt x="415" y="305" on="0"/>
        <pt x="415" y="211" on="1"/>
        <pt x="415" y="111" on="0"/>
        <pt x="282" y="-10" on="0"/>
        <pt x="154" y="-10" on="1"/>
      </contour>
      <contour>
        <pt x="84" y="-221" on="1"/>
        <pt x="120" y="-45" on="1"/>
        <pt x="206" y="-26" on="1"/>
        <pt x="225" y="-48" on="1"/>
        <pt x="119" y="-231" on="1"/>
      </contour>
    </TTGlyph>
    <TTGlyph name="T" xMin="48" yMin="0" xMax="560" yMax="613">
      <contour>
        <pt x="560" y="613" on="1"/>
        <pt x="525" y="461" on="1"/>
        <pt x="477" y="461" on="1"/>
        <pt x="477" y="551" on="1"/>
        <pt x="362" y="551" on="1"/>
        <pt x="267" y="63" on="1"/>
        <pt x="349" y="41" on="1"/>
        <pt x="342" y="0" on="1"/>
        <pt x="53" y="0" on="1"/>
        <pt x="60" y="41" on="1"/>
        <pt x="151" y="63" on="1"/>
        <pt x="246" y="551" on="1"/>
        <pt x="130" y="551" on="1"/>
        <pt x="94" y="461" on="1"/>
        <pt x="48" y="461" on="1"/>
        <pt x="71" y="613" on="1"/>
      </contour>
    </TTGlyph>
    <TTGlyph name="Tbar" xMin="39" yMin="0" xMax="560" yMax="613">
      <contour>
        <pt x="477" y="461" on="1"/>
        <pt x="477" y="551" on="1"/>
        <pt x="362" y="551" on="1"/>
        <pt x="321" y="339" on="1"/>
        <pt x="486" y="339" on="1"/>
        <pt x="476" y="287" on="1"/>
        <pt x="311" y="287" on="1"/>
        <pt x="267" y="63" on="1"/>
        <pt x="349" y="41" on="1"/>
        <pt x="342" y="0" on="1"/>
        <pt x="53" y="0" on="1"/>
        <pt x="60" y="41" on="1"/>
        <pt x="151" y="63" on="1"/>
        <pt x="195" y="287" on="1"/>
        <pt x="39" y="287" on="1"/>
        <pt x="48" y="339" on="1"/>
        <pt x="205" y="339" on="1"/>
        <pt x="246" y="551" on="1"/>
        <pt x="130" y="551" on="1"/>
        <pt x="94" y="461" on="1"/>
        <pt x="48" y="461" on="1"/>
        <pt x="71" y="613" on="1"/>
        <pt x="560" y="613" on="1"/>
        <pt x="525" y="461" on="1"/>
      </contour>
    </TTGlyph>
    <TTGlyph name="Tcaron" xMin="53" yMin="0" xMax="565" yMax="799">
      <contour>
        <pt x="333" y="725" on="1"/>
        <pt x="466" y="799" on="1"/>
        <pt x="487" y="772" on="1"/>
        <pt x="359" y="643" on="1"/>
        <pt x="283" y="643" on="1"/>
        <pt x="198" y="775" on="1"/>
        <pt x="227" y="798" on="1"/>
      </contour>
      <contour>
        <pt x="565" y="613" on="1"/>
        <pt x="530" y="461" on="1"/>
        <pt x="482" y="461" on="1"/>
        <pt x="482" y="551" on="1"/>
        <pt x="367" y="551" on="1"/>
        <pt x="272" y="63" on="1"/>
        <pt x="354" y="41" on="1"/>
        <pt x="347" y="0" on="1"/>
        <pt x="58" y="0" on="1"/>
        <pt x="65" y="41" on="1"/>
        <pt x="156" y="63" on="1"/>
        <pt x="251" y="551" on="1"/>
        <pt x="135" y="551" on="1"/>
        <pt x="99" y="461" on="1"/>
        <pt x="53" y="461" on="1"/>
        <pt x="76" y="613" on="1"/>
      </contour>
    </TTGlyph>
    <TTGlyph name="Thorn" xMin="-12" yMin="0" xMax="496" yMax="613">
      <contour>
        <pt x="-5" y="41" on="1"/>
        <pt x="80" y="63" on="1"/>
        <pt x="175" y="550" on="1"/>
        <pt x="98" y="572" on="1"/>
        <pt x="106" y="613" on="1"/>
        <pt x="384" y="613" on="1"/>
        <pt x="376" y="572" on="1"/>
        <pt x="291" y="550" on="1"/>
        <pt x="277" y="481" on="1"/>
        <pt x="331" y="481" on="1"/>
        <pt x="496" y="481" on="0"/>
        <pt x="496" y="352" on="1"/>
        <pt x="496" y="281" on="0"/>
        <pt x="424" y="183" on="0"/>
        <pt x="316" y="135" on="0"/>
        <pt x="262" y="135" on="1"/>
        <pt x="231" y="135" on="0"/>
        <pt x="211" y="139" on="1"/>
        <pt x="196" y="63" on="1"/>
        <pt x="273" y="41" on="1"/>
        <pt x="266" y="0" on="1"/>
        <pt x="-12" y="0" on="1"/>
      </contour>
      <contour>
        <pt x="311" y="183" on="0"/>
        <pt x="386" y="266" on="0"/>
        <pt x="386" y="347" on="1"/>
        <pt x="386" y="388" on="0"/>
        <pt x="345" y="429" on="0"/>
        <pt x="307" y="429" on="1"/>
        <pt x="285" y="429" on="0"/>
        <pt x="266" y="424" on="1"/>
        <pt x="220" y="186" on="1"/>
        <pt x="230" y="183" on="0"/>
        <pt x="251" y="183" on="1"/>
      </contour>
    </TTGlyph>
    <TTGlyph name="U" xMin="64" yMin="-10" xMax="678" yMax="613">
      <contour>
        <pt x="508" y="140" on="0"/>
        <pt x="391" y="-10" on="0"/>
        <pt x="261" y="-10" on="1"/>
        <pt x="71" y="-10" on="0"/>
        <pt x="71" y="157" on="1"/>
        <pt x="71" y="194" on="0"/>
        <pt x="84" y="265" on="1"/>
        <pt x="140" y="551" on="1"/>
        <pt x="64" y="572" on="1"/>
        <pt x="72" y="613" on="1"/>
        <pt x="347" y="613" on="1"/>
        <pt x="339" y="572" on="1"/>
        <pt x="255" y="551" on="1"/>
        <pt x="200" y="264" on="1"/>
        <pt x="187" y="201" on="0"/>
        <pt x="187" y="156" on="1"/>
        <pt x="187" y="105" on="0"/>
        <pt x="233" y="51" on="0"/>
        <pt x="287" y="51" on="1"/>
        <pt x="423" y="51" on="0"/>
        <pt x="461" y="242" on="1"/>
        <pt x="520" y="551" on="1"/>
        <pt x="444" y="572" on="1"/>
        <pt x="452" y="613" on="1"/>
        <pt x="678" y="613" on="1"/>
        <pt x="670" y="572" on="1"/>
        <pt x="587" y="551" on="1"/>
        <pt x="526" y="236" on="1"/>
      </contour>
    </TTGlyph>
    <TTGlyph name="Uacute" xMin="73" yMin="-10" xMax="686" yMax="800">
      <contour>
        <pt x="315" y="669" on="1"/>
        <pt x="471" y="800" on="1"/>
        <pt x="561" y="768" on="1"/>
        <pt x="561" y="747" on="1"/>
        <pt x="338" y="640" on="1"/>
      </contour>
      <contour>
        <pt x="516" y="140" on="0"/>
        <pt x="399" y="-10" on="0"/>
        <pt x="269" y="-10" on="1"/>
        <pt x="79" y="-10" on="0"/>
        <pt x="79" y="157" on="1"/>
        <pt x="79" y="194" on="0"/>
        <pt x="92" y="265" on="1"/>
        <pt x="148" y="551" on="1"/>
        <pt x="73" y="572" on="1"/>
        <pt x="80" y="613" on="1"/>
        <pt x="355" y="613" on="1"/>
        <pt x="347" y="572" on="1"/>
        <pt x="264" y="551" on="1"/>
        <pt x="208" y="264" on="1"/>
        <pt x="195" y="201" on="0"/>
        <pt x="195" y="156" on="1"/>
        <pt x="195" y="105" on="0"/>
        <pt x="241" y="51" on="0"/>
        <pt x="295" y="51" on="1"/>
        <pt x="431" y="51" on="0"/>
        <pt x="469" y="242" on="1"/>
        <pt x="528" y="551" on="1"/>
        <pt x="452" y="572" on="1"/>
        <pt x="460" y="613" on="1"/>
        <pt x="686" y="613" on="1"/>
        <pt x="678" y="572" on="1"/>
        <pt x="596" y="551" on="1"/>
        <pt x="535" y="236" on="1"/>
      </contour>
    </TTGlyph>
    <TTGlyph name="Ubreve" xMin="64" yMin="-10" xMax="678" yMax="787">
      <component glyphName=".ttfautohint" x="64" y="0" flags="0x0"/>
      <component glyphName="U" x="0" y="0" flags="0x0"/>
      <component glyphName="uni0306" x="428" y="0" flags="0x0"/>
    </TTGlyph>
    <TTGlyph name="Ucircumflex" xMin="73" yMin="-10" xMax="686" yMax="798">
      <contour>
        <pt x="415" y="717" on="1"/>
        <pt x="280" y="643" on="1"/>
        <pt x="258" y="669" on="1"/>
        <pt x="390" y="798" on="1"/>
        <pt x="466" y="798" on="1"/>
        <pt x="547" y="666" on="1"/>
        <pt x="519" y="643" on="1"/>
      </contour>
      <contour>
        <pt x="516" y="140" on="0"/>
        <pt x="399" y="-10" on="0"/>
        <pt x="269" y="-10" on="1"/>
        <pt x="79" y="-10" on="0"/>
        <pt x="79" y="157" on="1"/>
        <pt x="79" y="194" on="0"/>
        <pt x="92" y="265" on="1"/>
        <pt x="148" y="551" on="1"/>
        <pt x="73" y="572" on="1"/>
        <pt x="80" y="613" on="1"/>
        <pt x="355" y="613" on="1"/>
        <pt x="347" y="572" on="1"/>
        <pt x="264" y="551" on="1"/>
        <pt x="208" y="264" on="1"/>
        <pt x="195" y="201" on="0"/>
        <pt x="195" y="156" on="1"/>
        <pt x="195" y="105" on="0"/>
        <pt x="241" y="51" on="0"/>
        <pt x="295" y="51" on="1"/>
        <pt x="431" y="51" on="0"/>
        <pt x="469" y="242" on="1"/>
        <pt x="528" y="551" on="1"/>
        <pt x="452" y="572" on="1"/>
        <pt x="460" y="613" on="1"/>
        <pt x="686" y="613" on="1"/>
        <pt x="678" y="572" on="1"/>
        <pt x="596" y="551" on="1"/>
        <pt x="535" y="236" on="1"/>
      </contour>
    </TTGlyph>
    <TTGlyph name="Udieresis" xMin="73" yMin="-10" xMax="686" yMax="789">
      <contour>
        <pt x="376" y="694" on="0"/>
        <pt x="336" y="656" on="0"/>
        <pt x="308" y="656" on="1"/>
        <pt x="280" y="656" on="0"/>
        <pt x="238" y="694" on="0"/>
        <pt x="238" y="721" on="1"/>
        <pt x="238" y="749" on="0"/>
        <pt x="280" y="789" on="0"/>
        <pt x="308" y="789" on="1"/>
        <pt x="336" y="789" on="0"/>
        <pt x="376" y="749" on="0"/>
        <pt x="376" y="721" on="1"/>
      </contour>
      <contour>
        <pt x="594" y="694" on="0"/>
        <pt x="554" y="656" on="0"/>
        <pt x="527" y="656" on="1"/>
        <pt x="498" y="656" on="0"/>
        <pt x="457" y="694" on="0"/>
        <pt x="457" y="721" on="1"/>
        <pt x="457" y="749" on="0"/>
        <pt x="498" y="789" on="0"/>
        <pt x="527" y="789" on="1"/>
        <pt x="554" y="789" on="0"/>
        <pt x="594" y="749" on="0"/>
        <pt x="594" y="721" on="1"/>
      </contour>
      <contour>
        <pt x="516" y="140" on="0"/>
        <pt x="399" y="-10" on="0"/>
        <pt x="269" y="-10" on="1"/>
        <pt x="79" y="-10" on="0"/>
        <pt x="79" y="157" on="1"/>
        <pt x="79" y="194" on="0"/>
        <pt x="92" y="265" on="1"/>
        <pt x="148" y="551" on="1"/>
        <pt x="73" y="572" on="1"/>
        <pt x="80" y="613" on="1"/>
        <pt x="355" y="613" on="1"/>
        <pt x="347" y="572" on="1"/>
        <pt x="264" y="551" on="1"/>
        <pt x="208" y="264" on="1"/>
        <pt x="195" y="201" on="0"/>
        <pt x="195" y="156" on="1"/>
        <pt x="195" y="105" on="0"/>
        <pt x="241" y="51" on="0"/>
        <pt x="295" y="51" on="1"/>
        <pt x="431" y="51" on="0"/>
        <pt x="469" y="242" on="1"/>
        <pt x="528" y="551" on="1"/>
        <pt x="452" y="572" on="1"/>
        <pt x="460" y="613" on="1"/>
        <pt x="686" y="613" on="1"/>
        <pt x="678" y="572" on="1"/>
        <pt x="596" y="551" on="1"/>
        <pt x="535" y="236" on="1"/>
      </contour>
    </TTGlyph>
    <TTGlyph name="Ugrave" xMin="73" yMin="-10" xMax="686" yMax="800">
      <contour>
        <pt x="265" y="747" on="1"/>
        <pt x="268" y="768" on="1"/>
        <pt x="357" y="800" on="1"/>
        <pt x="511" y="669" on="1"/>
        <pt x="491" y="640" on="1"/>
      </contour>
      <contour>
        <pt x="516" y="140" on="0"/>
        <pt x="399" y="-10" on="0"/>
        <pt x="269" y="-10" on="1"/>
        <pt x="79" y="-10" on="0"/>
        <pt x="79" y="157" on="1"/>
        <pt x="79" y="194" on="0"/>
        <pt x="92" y="265" on="1"/>
        <pt x="148" y="551" on="1"/>
        <pt x="73" y="572" on="1"/>
        <pt x="80" y="613" on="1"/>
        <pt x="355" y="613" on="1"/>
        <pt x="347" y="572" on="1"/>
        <pt x="264" y="551" on="1"/>
        <pt x="208" y="264" on="1"/>
        <pt x="195" y="201" on="0"/>
        <pt x="195" y="156" on="1"/>
        <pt x="195" y="105" on="0"/>
        <pt x="241" y="51" on="0"/>
        <pt x="295" y="51" on="1"/>
        <pt x="431" y="51" on="0"/>
        <pt x="469" y="242" on="1"/>
        <pt x="528" y="551" on="1"/>
        <pt x="452" y="572" on="1"/>
        <pt x="460" y="613" on="1"/>
        <pt x="686" y="613" on="1"/>
        <pt x="678" y="572" on="1"/>
        <pt x="596" y="551" on="1"/>
        <pt x="535" y="236" on="1"/>
      </contour>
    </TTGlyph>
    <TTGlyph name="Uhorn" xMin="64" yMin="-10" xMax="719" yMax="734">
      <contour>
        <pt x="719" y="646" on="0"/>
        <pt x="677" y="598" on="0"/>
        <pt x="641" y="583" on="1"/>
        <pt x="589" y="560" on="1"/>
        <pt x="526" y="236" on="1"/>
        <pt x="508" y="140" on="0"/>
        <pt x="391" y="-10" on="0"/>
        <pt x="261" y="-10" on="1"/>
        <pt x="71" y="-10" on="0"/>
        <pt x="71" y="157" on="1"/>
        <pt x="71" y="194" on="0"/>
        <pt x="84" y="265" on="1"/>
        <pt x="140" y="551" on="1"/>
        <pt x="64" y="572" on="1"/>
        <pt x="72" y="613" on="1"/>
        <pt x="347" y="613" on="1"/>
        <pt x="339" y="572" on="1"/>
        <pt x="255" y="551" on="1"/>
        <pt x="200" y="264" on="1"/>
        <pt x="187" y="201" on="0"/>
        <pt x="187" y="156" on="1"/>
        <pt x="187" y="105" on="0"/>
        <pt x="233" y="51" on="0"/>
        <pt x="287" y="51" on="1"/>
        <pt x="423" y="51" on="0"/>
        <pt x="461" y="242" on="1"/>
        <pt x="520" y="551" on="1"/>
        <pt x="444" y="572" on="1"/>
        <pt x="452" y="613" on="1"/>
        <pt x="557" y="613" on="1"/>
        <pt x="591" y="613" on="0"/>
        <pt x="627" y="635" on="0"/>
        <pt x="627" y="666" on="1"/>
        <pt x="627" y="685" on="0"/>
        <pt x="622" y="707" on="1"/>
        <pt x="628" y="720" on="1"/>
        <pt x="706" y="734" on="1"/>
        <pt x="712" y="721" on="0"/>
        <pt x="719" y="689" on="0"/>
        <pt x="719" y="677" on="1"/>
      </contour>
    </TTGlyph>
    <TTGlyph name="Uhungarumlaut" xMin="73" yMin="-10" xMax="686" yMax="812">
      <contour>
        <pt x="284" y="655" on="1"/>
        <pt x="373" y="812" on="1"/>
        <pt x="459" y="812" on="1"/>
        <pt x="459" y="792" on="1"/>
        <pt x="310" y="637" on="1"/>
      </contour>
      <contour>
        <pt x="445" y="655" on="1"/>
        <pt x="534" y="812" on="1"/>
        <pt x="620" y="812" on="1"/>
        <pt x="620" y="792" on="1"/>
        <pt x="471" y="637" on="1"/>
      </contour>
      <contour>
        <pt x="516" y="140" on="0"/>
        <pt x="399" y="-10" on="0"/>
        <pt x="269" y="-10" on="1"/>
        <pt x="79" y="-10" on="0"/>
        <pt x="79" y="157" on="1"/>
        <pt x="79" y="194" on="0"/>
        <pt x="92" y="265" on="1"/>
        <pt x="148" y="551" on="1"/>
        <pt x="73" y="572" on="1"/>
        <pt x="80" y="613" on="1"/>
        <pt x="355" y="613" on="1"/>
        <pt x="347" y="572" on="1"/>
        <pt x="264" y="551" on="1"/>
        <pt x="208" y="264" on="1"/>
        <pt x="195" y="201" on="0"/>
        <pt x="195" y="156" on="1"/>
        <pt x="195" y="105" on="0"/>
        <pt x="241" y="51" on="0"/>
        <pt x="295" y="51" on="1"/>
        <pt x="431" y="51" on="0"/>
        <pt x="469" y="242" on="1"/>
        <pt x="528" y="551" on="1"/>
        <pt x="452" y="572" on="1"/>
        <pt x="460" y="613" on="1"/>
        <pt x="686" y="613" on="1"/>
        <pt x="678" y="572" on="1"/>
        <pt x="596" y="551" on="1"/>
        <pt x="535" y="236" on="1"/>
      </contour>
    </TTGlyph>
    <TTGlyph name="Umacron" xMin="73" yMin="-10" xMax="686" yMax="753">
      <contour>
        <pt x="549" y="753" on="1"/>
        <pt x="539" y="683" on="1"/>
        <pt x="287" y="683" on="1"/>
        <pt x="297" y="753" on="1"/>
      </contour>
      <contour>
        <pt x="516" y="140" on="0"/>
        <pt x="399" y="-10" on="0"/>
        <pt x="269" y="-10" on="1"/>
        <pt x="79" y="-10" on="0"/>
        <pt x="79" y="157" on="1"/>
        <pt x="79" y="194" on="0"/>
        <pt x="92" y="265" on="1"/>
        <pt x="148" y="551" on="1"/>
        <pt x="73" y="572" on="1"/>
        <pt x="80" y="613" on="1"/>
        <pt x="355" y="613" on="1"/>
        <pt x="347" y="572" on="1"/>
        <pt x="264" y="551" on="1"/>
        <pt x="208" y="264" on="1"/>
        <pt x="195" y="201" on="0"/>
        <pt x="195" y="156" on="1"/>
        <pt x="195" y="105" on="0"/>
        <pt x="241" y="51" on="0"/>
        <pt x="295" y="51" on="1"/>
        <pt x="431" y="51" on="0"/>
        <pt x="469" y="242" on="1"/>
        <pt x="528" y="551" on="1"/>
        <pt x="452" y="572" on="1"/>
        <pt x="460" y="613" on="1"/>
        <pt x="686" y="613" on="1"/>
        <pt x="678" y="572" on="1"/>
        <pt x="596" y="551" on="1"/>
        <pt x="535" y="236" on="1"/>
      </contour>
    </TTGlyph>
    <TTGlyph name="Uogonek" xMin="73" yMin="-236" xMax="686" yMax="613">
      <contour>
        <pt x="498" y="56" on="0"/>
        <pt x="370" y="8" on="1"/>
        <pt x="335" y="-9" on="0"/>
        <pt x="288" y="-64" on="0"/>
        <pt x="267" y="-119" on="0"/>
        <pt x="267" y="-137" on="1"/>
        <pt x="267" y="-180" on="0"/>
        <pt x="308" y="-180" on="1"/>
        <pt x="339" y="-180" on="0"/>
        <pt x="368" y="-158" on="1"/>
        <pt x="386" y="-178" on="1"/>
        <pt x="386" y="-180" on="0"/>
        <pt x="356" y="-210" on="0"/>
        <pt x="306" y="-236" on="0"/>
        <pt x="274" y="-236" on="1"/>
        <pt x="227" y="-236" on="0"/>
        <pt x="185" y="-194" on="0"/>
        <pt x="185" y="-162" on="1"/>
        <pt x="185" y="-128" on="0"/>
        <pt x="243" y="-42" on="0"/>
        <pt x="293" y="-9" on="1"/>
        <pt x="269" y="-10" on="1"/>
        <pt x="79" y="-10" on="0"/>
        <pt x="79" y="157" on="1"/>
        <pt x="79" y="194" on="0"/>
        <pt x="92" y="265" on="1"/>
        <pt x="148" y="551" on="1"/>
        <pt x="73" y="572" on="1"/>
        <pt x="80" y="613" on="1"/>
        <pt x="355" y="613" on="1"/>
        <pt x="347" y="572" on="1"/>
        <pt x="264" y="551" on="1"/>
        <pt x="208" y="264" on="1"/>
        <pt x="195" y="201" on="0"/>
        <pt x="195" y="156" on="1"/>
        <pt x="195" y="105" on="0"/>
        <pt x="241" y="51" on="0"/>
        <pt x="295" y="51" on="1"/>
        <pt x="431" y="51" on="0"/>
        <pt x="469" y="242" on="1"/>
        <pt x="528" y="551" on="1"/>
        <pt x="452" y="572" on="1"/>
        <pt x="460" y="613" on="1"/>
        <pt x="686" y="613" on="1"/>
        <pt x="678" y="572" on="1"/>
        <pt x="596" y="551" on="1"/>
        <pt x="535" y="236" on="1"/>
      </contour>
    </TTGlyph>
    <TTGlyph name="Uring" xMin="73" yMin="-10" xMax="686" yMax="819">
      <contour>
        <pt x="364" y="631" on="0"/>
        <pt x="315" y="669" on="0"/>
        <pt x="315" y="702" on="1"/>
        <pt x="315" y="753" on="0"/>
        <pt x="381" y="819" on="0"/>
        <pt x="444" y="819" on="1"/>
        <pt x="488" y="819" on="0"/>
        <pt x="533" y="777" on="0"/>
        <pt x="533" y="743" on="1"/>
        <pt x="533" y="694" on="0"/>
        <pt x="463" y="631" on="0"/>
        <pt x="408" y="631" on="1"/>
      </contour>
      <contour>
        <pt x="444" y="674" on="0"/>
        <pt x="467" y="714" on="0"/>
        <pt x="467" y="742" on="1"/>
        <pt x="467" y="758" on="0"/>
        <pt x="449" y="776" on="0"/>
        <pt x="432" y="776" on="1"/>
        <pt x="404" y="776" on="0"/>
        <pt x="381" y="736" on="0"/>
        <pt x="381" y="708" on="1"/>
        <pt x="381" y="691" on="0"/>
        <pt x="395" y="674" on="0"/>
        <pt x="415" y="674" on="1"/>
      </contour>
      <contour>
        <pt x="79" y="-10" on="0"/>
        <pt x="79" y="157" on="1"/>
        <pt x="79" y="194" on="0"/>
        <pt x="92" y="265" on="1"/>
        <pt x="148" y="551" on="1"/>
        <pt x="73" y="572" on="1"/>
        <pt x="80" y="613" on="1"/>
        <pt x="355" y="613" on="1"/>
        <pt x="347" y="572" on="1"/>
        <pt x="264" y="551" on="1"/>
        <pt x="208" y="264" on="1"/>
        <pt x="195" y="201" on="0"/>
        <pt x="195" y="156" on="1"/>
        <pt x="195" y="105" on="0"/>
        <pt x="241" y="51" on="0"/>
        <pt x="295" y="51" on="1"/>
        <pt x="431" y="51" on="0"/>
        <pt x="469" y="242" on="1"/>
        <pt x="528" y="551" on="1"/>
        <pt x="452" y="572" on="1"/>
        <pt x="460" y="613" on="1"/>
        <pt x="686" y="613" on="1"/>
        <pt x="678" y="572" on="1"/>
        <pt x="596" y="551" on="1"/>
        <pt x="535" y="236" on="1"/>
        <pt x="516" y="140" on="0"/>
        <pt x="399" y="-10" on="0"/>
        <pt x="269" y="-10" on="1"/>
      </contour>
    </TTGlyph>
    <TTGlyph name="Utilde" xMin="75" yMin="-10" xMax="688" yMax="783">
      <contour>
        <pt x="559" y="714" on="0"/>
        <pt x="520" y="660" on="0"/>
        <pt x="497" y="660" on="1"/>
        <pt x="473" y="660" on="0"/>
        <pt x="405" y="680" on="1"/>
        <pt x="383" y="687" on="0"/>
        <pt x="340" y="698" on="0"/>
        <pt x="329" y="698" on="1"/>
        <pt x="319" y="698" on="0"/>
        <pt x="300" y="684" on="0"/>
        <pt x="288" y="668" on="0"/>
        <pt x="287" y="666" on="1"/>
        <pt x="246" y="682" on="1"/>
        <pt x="263" y="727" on="0"/>
        <pt x="307" y="783" on="0"/>
        <pt x="330" y="783" on="1"/>
        <pt x="354" y="783" on="0"/>
        <pt x="418" y="763" on="1"/>
        <pt x="441" y="756" on="0"/>
        <pt x="485" y="745" on="0"/>
        <pt x="497" y="745" on="1"/>
        <pt x="508" y="745" on="0"/>
        <pt x="526" y="760" on="0"/>
        <pt x="538" y="775" on="0"/>
        <pt x="539" y="778" on="1"/>
        <pt x="579" y="761" on="1"/>
      </contour>
      <contour>
        <pt x="518" y="140" on="0"/>
        <pt x="401" y="-10" on="0"/>
        <pt x="271" y="-10" on="1"/>
        <pt x="81" y="-10" on="0"/>
        <pt x="81" y="157" on="1"/>
        <pt x="81" y="194" on="0"/>
        <pt x="94" y="265" on="1"/>
        <pt x="150" y="551" on="1"/>
        <pt x="75" y="572" on="1"/>
        <pt x="82" y="613" on="1"/>
        <pt x="357" y="613" on="1"/>
        <pt x="349" y="572" on="1"/>
        <pt x="266" y="551" on="1"/>
        <pt x="210" y="264" on="1"/>
        <pt x="197" y="201" on="0"/>
        <pt x="197" y="156" on="1"/>
        <pt x="197" y="105" on="0"/>
        <pt x="243" y="51" on="0"/>
        <pt x="297" y="51" on="1"/>
        <pt x="371" y="51" on="0"/>
        <pt x="455" y="157" on="0"/>
        <pt x="471" y="242" on="1"/>
        <pt x="530" y="551" on="1"/>
        <pt x="454" y="572" on="1"/>
        <pt x="462" y="613" on="1"/>
        <pt x="688" y="613" on="1"/>
        <pt x="680" y="572" on="1"/>
        <pt x="598" y="551" on="1"/>
        <pt x="537" y="236" on="1"/>
      </contour>
    </TTGlyph>
    <TTGlyph name="V" xMin="43" yMin="-8" xMax="617" yMax="613">
      <contour>
        <pt x="416" y="613" on="1"/>
        <pt x="617" y="613" on="1"/>
        <pt x="610" y="571" on="1"/>
        <pt x="538" y="550" on="1"/>
        <pt x="258" y="3" on="1"/>
        <pt x="181" y="-8" on="1"/>
        <pt x="106" y="550" on="1"/>
        <pt x="43" y="572" on="1"/>
        <pt x="51" y="613" on="1"/>
        <pt x="293" y="613" on="1"/>
        <pt x="285" y="572" on="1"/>
        <pt x="222" y="552" on="1"/>
        <pt x="270" y="155" on="1"/>
        <pt x="471" y="552" on="1"/>
        <pt x="409" y="572" on="1"/>
      </contour>
    </TTGlyph>
    <TTGlyph name="W" xMin="45" yMin="-11" xMax="874" yMax="613">
      <contour>
        <pt x="672" y="613" on="1"/>
        <pt x="874" y="613" on="1"/>
        <pt x="867" y="573" on="1"/>
        <pt x="795" y="550" on="1"/>
        <pt x="550" y="3" on="1"/>
        <pt x="474" y="-11" on="1"/>
        <pt x="428" y="406" on="1"/>
        <pt x="246" y="3" on="1"/>
        <pt x="167" y="-11" on="1"/>
        <pt x="108" y="550" on="1"/>
        <pt x="45" y="572" on="1"/>
        <pt x="53" y="613" on="1"/>
        <pt x="294" y="613" on="1"/>
        <pt x="286" y="572" on="1"/>
        <pt x="224" y="552" on="1"/>
        <pt x="260" y="179" on="1"/>
        <pt x="423" y="551" on="1"/>
        <pt x="524" y="569" on="1"/>
        <pt x="565" y="176" on="1"/>
        <pt x="726" y="552" on="1"/>
        <pt x="664" y="572" on="1"/>
      </contour>
    </TTGlyph>
    <TTGlyph name="Wacute" xMin="45" yMin="-11" xMax="874" yMax="800">
      <component glyphName=".ttfautohint" x="45" y="0" flags="0x0"/>
      <component glyphName="W" x="0" y="0" flags="0x0"/>
      <component glyphName="acutecomb" x="578" y="0" flags="0x0"/>
    </TTGlyph>
    <TTGlyph name="Wcircumflex" xMin="45" yMin="-11" xMax="874" yMax="798">
      <component glyphName=".ttfautohint" x="45" y="0" flags="0x0"/>
      <component glyphName="W" x="0" y="0" flags="0x0"/>
      <component glyphName="uni0302" x="522" y="0" flags="0x0"/>
    </TTGlyph>
    <TTGlyph name="Wdieresis" xMin="45" yMin="-11" xMax="874" yMax="789">
      <component glyphName=".ttfautohint" x="45" y="0" flags="0x0"/>
      <component glyphName="W" x="0" y="0" flags="0x0"/>
      <component glyphName="uni0308" x="525" y="0" flags="0x0"/>
    </TTGlyph>
    <TTGlyph name="Wgrave" xMin="45" yMin="-11" xMax="874" yMax="800">
      <component glyphName=".ttfautohint" x="45" y="0" flags="0x0"/>
      <component glyphName="W" x="0" y="0" flags="0x0"/>
      <component glyphName="gravecomb" x="453" y="0" flags="0x0"/>
    </TTGlyph>
    <TTGlyph name="X" xMin="-47" yMin="0" xMax="616" yMax="613">
      <contour>
        <pt x="-40" y="41" on="1"/>
        <pt x="27" y="61" on="1"/>
        <pt x="226" y="301" on="1"/>
        <pt x="125" y="552" on="1"/>
        <pt x="66" y="572" on="1"/>
        <pt x="74" y="613" on="1"/>
        <pt x="322" y="613" on="1"/>
        <pt x="314" y="570" on="1"/>
        <pt x="248" y="552" on="1"/>
        <pt x="316" y="382" on="1"/>
        <pt x="463" y="552" on="1"/>
        <pt x="400" y="570" on="1"/>
        <pt x="409" y="613" on="1"/>
        <pt x="616" y="613" on="1"/>
        <pt x="608" y="572" on="1"/>
        <pt x="540" y="552" on="1"/>
        <pt x="340" y="321" on="1"/>
        <pt x="447" y="60" on="1"/>
        <pt x="513" y="41" on="1"/>
        <pt x="505" y="0" on="1"/>
        <pt x="254" y="0" on="1"/>
        <pt x="262" y="43" on="1"/>
        <pt x="323" y="60" on="1"/>
        <pt x="250" y="239" on="1"/>
        <pt x="104" y="61" on="1"/>
        <pt x="167" y="41" on="1"/>
        <pt x="159" y="0" on="1"/>
        <pt x="-47" y="0" on="1"/>
      </contour>
    </TTGlyph>
    <TTGlyph name="Y" xMin="49" yMin="0" xMax="588" yMax="613">
      <contour>
        <pt x="386" y="613" on="1"/>
        <pt x="588" y="613" on="1"/>
        <pt x="580" y="573" on="1"/>
        <pt x="509" y="550" on="1"/>
        <pt x="308" y="245" on="1"/>
        <pt x="273" y="63" on="1"/>
        <pt x="356" y="41" on="1"/>
        <pt x="349" y="0" on="1"/>
        <pt x="59" y="0" on="1"/>
        <pt x="67" y="41" on="1"/>
        <pt x="158" y="63" on="1"/>
        <pt x="195" y="253" on="1"/>
        <pt x="110" y="549" on="1"/>
        <pt x="49" y="572" on="1"/>
        <pt x="57" y="612" on="1"/>
        <pt x="297" y="613" on="1"/>
        <pt x="289" y="571" on="1"/>
        <pt x="224" y="550" on="1"/>
        <pt x="287" y="317" on="1"/>
        <pt x="440" y="552" on="1"/>
        <pt x="378" y="572" on="1"/>
      </contour>
    </TTGlyph>
    <TTGlyph name="Y.loclGUA" xMin="40" yMin="-167" xMax="702" yMax="613">
      <contour>
        <pt x="119" y="-167" on="0"/>
        <pt x="40" y="-117" on="1"/>
        <pt x="77" y="17" on="1"/>
        <pt x="123" y="17" on="1"/>
        <pt x="129" y="-64" on="1"/>
        <pt x="151" y="-79" on="0"/>
        <pt x="214" y="-97" on="0"/>
        <pt x="243" y="-97" on="1"/>
        <pt x="325" y="-97" on="0"/>
        <pt x="409" y="-12" on="0"/>
        <pt x="425" y="75" on="1"/>
        <pt x="430" y="98" on="1"/>
        <pt x="355" y="46" on="0"/>
        <pt x="262" y="46" on="1"/>
        <pt x="169" y="46" on="0"/>
        <pt x="92" y="128" on="0"/>
        <pt x="92" y="212" on="1"/>
        <pt x="92" y="251" on="0"/>
        <pt x="105" y="322" on="1"/>
        <pt x="149" y="551" on="1"/>
        <pt x="74" y="572" on="1"/>
        <pt x="82" y="613" on="1"/>
        <pt x="356" y="613" on="1"/>
        <pt x="348" y="572" on="1"/>
        <pt x="265" y="551" on="1"/>
        <pt x="220" y="320" on="1"/>
        <pt x="207" y="257" on="0"/>
        <pt x="207" y="216" on="1"/>
        <pt x="207" y="161" on="0"/>
        <pt x="248" y="111" on="0"/>
        <pt x="297" y="111" on="1"/>
        <pt x="342" y="111" on="0"/>
        <pt x="424" y="161" on="0"/>
        <pt x="447" y="197" on="1"/>
        <pt x="514" y="551" on="1"/>
        <pt x="438" y="572" on="1"/>
        <pt x="446" y="613" on="1"/>
        <pt x="702" y="613" on="1"/>
        <pt x="694" y="572" on="1"/>
        <pt x="611" y="551" on="1"/>
        <pt x="522" y="78" on="1"/>
        <pt x="496" y="-59" on="0"/>
        <pt x="350" y="-167" on="0"/>
        <pt x="233" y="-167" on="1"/>
      </contour>
    </TTGlyph>
    <TTGlyph name="Yacute" xMin="54" yMin="0" xMax="593" yMax="800">
      <contour>
        <pt x="253" y="669" on="1"/>
        <pt x="408" y="800" on="1"/>
        <pt x="499" y="768" on="1"/>
        <pt x="499" y="747" on="1"/>
        <pt x="276" y="640" on="1"/>
      </contour>
      <contour>
        <pt x="391" y="613" on="1"/>
        <pt x="593" y="613" on="1"/>
        <pt x="586" y="573" on="1"/>
        <pt x="514" y="550" on="1"/>
        <pt x="314" y="245" on="1"/>
        <pt x="279" y="63" on="1"/>
        <pt x="362" y="41" on="1"/>
        <pt x="354" y="0" on="1"/>
        <pt x="65" y="0" on="1"/>
        <pt x="72" y="41" on="1"/>
        <pt x="164" y="63" on="1"/>
        <pt x="201" y="253" on="1"/>
        <pt x="116" y="549" on="1"/>
        <pt x="54" y="572" on="1"/>
        <pt x="62" y="612" on="1"/>
        <pt x="302" y="613" on="1"/>
        <pt x="294" y="571" on="1"/>
        <pt x="229" y="550" on="1"/>
        <pt x="293" y="317" on="1"/>
        <pt x="445" y="552" on="1"/>
        <pt x="383" y="572" on="1"/>
      </contour>
    </TTGlyph>
    <TTGlyph name="Yacute.loclGUA" xMin="40" yMin="-167" xMax="702" yMax="800">
      <contour>
        <pt x="317" y="669" on="1"/>
        <pt x="473" y="800" on="1"/>
        <pt x="564" y="768" on="1"/>
        <pt x="564" y="747" on="1"/>
        <pt x="341" y="640" on="1"/>
      </contour>
      <contour>
        <pt x="119" y="-167" on="0"/>
        <pt x="40" y="-117" on="1"/>
        <pt x="77" y="17" on="1"/>
        <pt x="123" y="17" on="1"/>
        <pt x="129" y="-64" on="1"/>
        <pt x="151" y="-79" on="0"/>
        <pt x="214" y="-97" on="0"/>
        <pt x="243" y="-97" on="1"/>
        <pt x="325" y="-97" on="0"/>
        <pt x="409" y="-12" on="0"/>
        <pt x="425" y="75" on="1"/>
        <pt x="430" y="98" on="1"/>
        <pt x="355" y="46" on="0"/>
        <pt x="262" y="46" on="1"/>
        <pt x="169" y="46" on="0"/>
        <pt x="92" y="128" on="0"/>
        <pt x="92" y="212" on="1"/>
        <pt x="92" y="251" on="0"/>
        <pt x="105" y="322" on="1"/>
        <pt x="149" y="551" on="1"/>
        <pt x="74" y="572" on="1"/>
        <pt x="82" y="613" on="1"/>
        <pt x="356" y="613" on="1"/>
        <pt x="348" y="572" on="1"/>
        <pt x="265" y="551" on="1"/>
        <pt x="220" y="320" on="1"/>
        <pt x="207" y="257" on="0"/>
        <pt x="207" y="216" on="1"/>
        <pt x="207" y="161" on="0"/>
        <pt x="248" y="111" on="0"/>
        <pt x="297" y="111" on="1"/>
        <pt x="342" y="111" on="0"/>
        <pt x="424" y="161" on="0"/>
        <pt x="447" y="197" on="1"/>
        <pt x="514" y="551" on="1"/>
        <pt x="438" y="572" on="1"/>
        <pt x="446" y="613" on="1"/>
        <pt x="702" y="613" on="1"/>
        <pt x="694" y="572" on="1"/>
        <pt x="611" y="551" on="1"/>
        <pt x="522" y="78" on="1"/>
        <pt x="496" y="-59" on="0"/>
        <pt x="350" y="-167" on="0"/>
        <pt x="233" y="-167" on="1"/>
      </contour>
    </TTGlyph>
    <TTGlyph name="Ycircumflex" xMin="54" yMin="0" xMax="593" yMax="798">
      <contour>
        <pt x="360" y="717" on="1"/>
        <pt x="224" y="643" on="1"/>
        <pt x="203" y="669" on="1"/>
        <pt x="334" y="798" on="1"/>
        <pt x="411" y="798" on="1"/>
        <pt x="491" y="666" on="1"/>
        <pt x="463" y="643" on="1"/>
      </contour>
      <contour>
        <pt x="391" y="613" on="1"/>
        <pt x="593" y="613" on="1"/>
        <pt x="586" y="573" on="1"/>
        <pt x="514" y="550" on="1"/>
        <pt x="314" y="245" on="1"/>
        <pt x="279" y="63" on="1"/>
        <pt x="362" y="41" on="1"/>
        <pt x="354" y="0" on="1"/>
        <pt x="65" y="0" on="1"/>
        <pt x="72" y="41" on="1"/>
        <pt x="164" y="63" on="1"/>
        <pt x="201" y="253" on="1"/>
        <pt x="116" y="549" on="1"/>
        <pt x="54" y="572" on="1"/>
        <pt x="62" y="612" on="1"/>
        <pt x="302" y="613" on="1"/>
        <pt x="294" y="571" on="1"/>
        <pt x="229" y="550" on="1"/>
        <pt x="293" y="317" on="1"/>
        <pt x="445" y="552" on="1"/>
        <pt x="383" y="572" on="1"/>
      </contour>
    </TTGlyph>
    <TTGlyph name="Ycircumflex.loclGUA" xMin="40" yMin="-167" xMax="702" yMax="798">
      <contour>
        <pt x="266" y="669" on="1"/>
        <pt x="398" y="798" on="1"/>
        <pt x="474" y="798" on="1"/>
        <pt x="555" y="666" on="1"/>
        <pt x="526" y="643" on="1"/>
        <pt x="423" y="717" on="1"/>
        <pt x="288" y="643" on="1"/>
      </contour>
      <contour>
        <pt x="119" y="-167" on="0"/>
        <pt x="40" y="-117" on="1"/>
        <pt x="77" y="17" on="1"/>
        <pt x="123" y="17" on="1"/>
        <pt x="129" y="-64" on="1"/>
        <pt x="151" y="-79" on="0"/>
        <pt x="214" y="-97" on="0"/>
        <pt x="243" y="-97" on="1"/>
        <pt x="325" y="-97" on="0"/>
        <pt x="409" y="-12" on="0"/>
        <pt x="425" y="75" on="1"/>
        <pt x="430" y="98" on="1"/>
        <pt x="355" y="46" on="0"/>
        <pt x="262" y="46" on="1"/>
        <pt x="169" y="46" on="0"/>
        <pt x="92" y="128" on="0"/>
        <pt x="92" y="212" on="1"/>
        <pt x="92" y="251" on="0"/>
        <pt x="105" y="322" on="1"/>
        <pt x="149" y="551" on="1"/>
        <pt x="74" y="572" on="1"/>
        <pt x="82" y="613" on="1"/>
        <pt x="356" y="613" on="1"/>
        <pt x="348" y="572" on="1"/>
        <pt x="265" y="551" on="1"/>
        <pt x="220" y="320" on="1"/>
        <pt x="207" y="257" on="0"/>
        <pt x="207" y="216" on="1"/>
        <pt x="207" y="161" on="0"/>
        <pt x="248" y="111" on="0"/>
        <pt x="297" y="111" on="1"/>
        <pt x="342" y="111" on="0"/>
        <pt x="424" y="161" on="0"/>
        <pt x="447" y="197" on="1"/>
        <pt x="514" y="551" on="1"/>
        <pt x="438" y="572" on="1"/>
        <pt x="446" y="613" on="1"/>
        <pt x="702" y="613" on="1"/>
        <pt x="694" y="572" on="1"/>
        <pt x="611" y="551" on="1"/>
        <pt x="522" y="78" on="1"/>
        <pt x="496" y="-59" on="0"/>
        <pt x="350" y="-167" on="0"/>
        <pt x="233" y="-167" on="1"/>
      </contour>
    </TTGlyph>
    <TTGlyph name="Ydieresis" xMin="54" yMin="0" xMax="593" yMax="789">
      <contour>
        <pt x="323" y="694" on="0"/>
        <pt x="283" y="656" on="0"/>
        <pt x="255" y="656" on="1"/>
        <pt x="227" y="656" on="0"/>
        <pt x="185" y="694" on="0"/>
        <pt x="185" y="721" on="1"/>
        <pt x="185" y="749" on="0"/>
        <pt x="227" y="789" on="0"/>
        <pt x="255" y="789" on="1"/>
        <pt x="283" y="789" on="0"/>
        <pt x="323" y="749" on="0"/>
        <pt x="323" y="721" on="1"/>
      </contour>
      <contour>
        <pt x="542" y="694" on="0"/>
        <pt x="501" y="656" on="0"/>
        <pt x="474" y="656" on="1"/>
        <pt x="445" y="656" on="0"/>
        <pt x="404" y="694" on="0"/>
        <pt x="404" y="721" on="1"/>
        <pt x="404" y="749" on="0"/>
        <pt x="445" y="789" on="0"/>
        <pt x="474" y="789" on="1"/>
        <pt x="501" y="789" on="0"/>
        <pt x="542" y="749" on="0"/>
        <pt x="542" y="721" on="1"/>
      </contour>
      <contour>
        <pt x="391" y="613" on="1"/>
        <pt x="593" y="613" on="1"/>
        <pt x="586" y="573" on="1"/>
        <pt x="514" y="550" on="1"/>
        <pt x="314" y="245" on="1"/>
        <pt x="279" y="63" on="1"/>
        <pt x="362" y="41" on="1"/>
        <pt x="354" y="0" on="1"/>
        <pt x="65" y="0" on="1"/>
        <pt x="72" y="41" on="1"/>
        <pt x="164" y="63" on="1"/>
        <pt x="201" y="253" on="1"/>
        <pt x="116" y="549" on="1"/>
        <pt x="54" y="572" on="1"/>
        <pt x="62" y="612" on="1"/>
        <pt x="302" y="613" on="1"/>
        <pt x="294" y="571" on="1"/>
        <pt x="229" y="550" on="1"/>
        <pt x="293" y="317" on="1"/>
        <pt x="445" y="552" on="1"/>
        <pt x="383" y="572" on="1"/>
      </contour>
    </TTGlyph>
    <TTGlyph name="Ydieresis.loclGUA" xMin="48" yMin="-167" xMax="711" yMax="789">
      <contour>
        <pt x="283" y="656" on="0"/>
        <pt x="241" y="694" on="0"/>
        <pt x="241" y="721" on="1"/>
        <pt x="241" y="749" on="0"/>
        <pt x="283" y="789" on="0"/>
        <pt x="311" y="789" on="1"/>
        <pt x="339" y="789" on="0"/>
        <pt x="379" y="749" on="0"/>
        <pt x="379" y="721" on="1"/>
        <pt x="379" y="694" on="0"/>
        <pt x="339" y="656" on="0"/>
        <pt x="311" y="656" on="1"/>
      </contour>
      <contour>
        <pt x="501" y="656" on="0"/>
        <pt x="460" y="694" on="0"/>
        <pt x="460" y="721" on="1"/>
        <pt x="460" y="749" on="0"/>
        <pt x="501" y="789" on="0"/>
        <pt x="530" y="789" on="1"/>
        <pt x="557" y="789" on="0"/>
        <pt x="597" y="749" on="0"/>
        <pt x="597" y="721" on="1"/>
        <pt x="597" y="694" on="0"/>
        <pt x="557" y="656" on="0"/>
        <pt x="530" y="656" on="1"/>
      </contour>
      <contour>
        <pt x="127" y="-167" on="0"/>
        <pt x="48" y="-117" on="1"/>
        <pt x="86" y="17" on="1"/>
        <pt x="132" y="17" on="1"/>
        <pt x="137" y="-64" on="1"/>
        <pt x="159" y="-79" on="0"/>
        <pt x="222" y="-97" on="0"/>
        <pt x="251" y="-97" on="1"/>
        <pt x="333" y="-97" on="0"/>
        <pt x="417" y="-12" on="0"/>
        <pt x="433" y="75" on="1"/>
        <pt x="438" y="98" on="1"/>
        <pt x="363" y="46" on="0"/>
        <pt x="270" y="46" on="1"/>
        <pt x="177" y="46" on="0"/>
        <pt x="101" y="128" on="0"/>
        <pt x="101" y="212" on="1"/>
        <pt x="101" y="251" on="0"/>
        <pt x="114" y="322" on="1"/>
        <pt x="158" y="551" on="1"/>
        <pt x="83" y="572" on="1"/>
        <pt x="90" y="613" on="1"/>
        <pt x="365" y="613" on="1"/>
        <pt x="357" y="572" on="1"/>
        <pt x="273" y="551" on="1"/>
        <pt x="229" y="320" on="1"/>
        <pt x="216" y="257" on="0"/>
        <pt x="216" y="216" on="1"/>
        <pt x="216" y="161" on="0"/>
        <pt x="257" y="111" on="0"/>
        <pt x="306" y="111" on="1"/>
        <pt x="350" y="111" on="0"/>
        <pt x="432" y="160" on="0"/>
        <pt x="456" y="197" on="1"/>
        <pt x="522" y="551" on="1"/>
        <pt x="447" y="572" on="1"/>
        <pt x="454" y="613" on="1"/>
        <pt x="711" y="613" on="1"/>
        <pt x="703" y="572" on="1"/>
        <pt x="619" y="551" on="1"/>
        <pt x="530" y="78" on="1"/>
        <pt x="505" y="-59" on="0"/>
        <pt x="359" y="-167" on="0"/>
        <pt x="241" y="-167" on="1"/>
      </contour>
    </TTGlyph>
    <TTGlyph name="Ygrave" xMin="54" yMin="0" xMax="593" yMax="800">
      <contour>
        <pt x="199" y="747" on="1"/>
        <pt x="202" y="768" on="1"/>
        <pt x="292" y="800" on="1"/>
        <pt x="446" y="669" on="1"/>
        <pt x="425" y="640" on="1"/>
      </contour>
      <contour>
        <pt x="72" y="41" on="1"/>
        <pt x="164" y="63" on="1"/>
        <pt x="201" y="253" on="1"/>
        <pt x="116" y="549" on="1"/>
        <pt x="54" y="572" on="1"/>
        <pt x="62" y="612" on="1"/>
        <pt x="302" y="613" on="1"/>
        <pt x="294" y="571" on="1"/>
        <pt x="229" y="550" on="1"/>
        <pt x="293" y="317" on="1"/>
        <pt x="445" y="552" on="1"/>
        <pt x="383" y="572" on="1"/>
        <pt x="391" y="613" on="1"/>
        <pt x="593" y="613" on="1"/>
        <pt x="586" y="573" on="1"/>
        <pt x="514" y="550" on="1"/>
        <pt x="314" y="245" on="1"/>
        <pt x="279" y="63" on="1"/>
        <pt x="362" y="41" on="1"/>
        <pt x="354" y="0" on="1"/>
        <pt x="65" y="0" on="1"/>
      </contour>
    </TTGlyph>
    <TTGlyph name="Ygrave.loclGUA" xMin="40" yMin="-167" xMax="702" yMax="800">
      <contour>
        <pt x="249" y="747" on="1"/>
        <pt x="252" y="768" on="1"/>
        <pt x="341" y="800" on="1"/>
        <pt x="495" y="669" on="1"/>
        <pt x="475" y="640" on="1"/>
      </contour>
      <contour>
        <pt x="119" y="-167" on="0"/>
        <pt x="40" y="-117" on="1"/>
        <pt x="77" y="17" on="1"/>
        <pt x="123" y="17" on="1"/>
        <pt x="129" y="-64" on="1"/>
        <pt x="151" y="-79" on="0"/>
        <pt x="214" y="-97" on="0"/>
        <pt x="243" y="-97" on="1"/>
        <pt x="325" y="-97" on="0"/>
        <pt x="409" y="-12" on="0"/>
        <pt x="425" y="75" on="1"/>
        <pt x="430" y="98" on="1"/>
        <pt x="355" y="46" on="0"/>
        <pt x="262" y="46" on="1"/>
        <pt x="169" y="46" on="0"/>
        <pt x="92" y="128" on="0"/>
        <pt x="92" y="212" on="1"/>
        <pt x="92" y="251" on="0"/>
        <pt x="105" y="322" on="1"/>
        <pt x="149" y="551" on="1"/>
        <pt x="74" y="572" on="1"/>
        <pt x="82" y="613" on="1"/>
        <pt x="356" y="613" on="1"/>
        <pt x="348" y="572" on="1"/>
        <pt x="265" y="551" on="1"/>
        <pt x="220" y="320" on="1"/>
        <pt x="207" y="257" on="0"/>
        <pt x="207" y="216" on="1"/>
        <pt x="207" y="161" on="0"/>
        <pt x="248" y="111" on="0"/>
        <pt x="297" y="111" on="1"/>
        <pt x="342" y="111" on="0"/>
        <pt x="424" y="161" on="0"/>
        <pt x="447" y="197" on="1"/>
        <pt x="514" y="551" on="1"/>
        <pt x="438" y="572" on="1"/>
        <pt x="446" y="613" on="1"/>
        <pt x="702" y="613" on="1"/>
        <pt x="694" y="572" on="1"/>
        <pt x="611" y="551" on="1"/>
        <pt x="522" y="78" on="1"/>
        <pt x="496" y="-59" on="0"/>
        <pt x="350" y="-167" on="0"/>
        <pt x="233" y="-167" on="1"/>
      </contour>
    </TTGlyph>
    <TTGlyph name="Z" xMin="-21" yMin="0" xMax="523" yMax="613">
      <contour>
        <pt x="405" y="0" on="1"/>
        <pt x="-11" y="0" on="1"/>
        <pt x="-21" y="33" on="1"/>
        <pt x="372" y="550" on="1"/>
        <pt x="172" y="550" on="1"/>
        <pt x="136" y="472" on="1"/>
        <pt x="87" y="472" on="1"/>
        <pt x="106" y="613" on="1"/>
        <pt x="523" y="613" on="1"/>
        <pt x="522" y="580" on="1"/>
        <pt x="129" y="64" on="1"/>
        <pt x="343" y="64" on="1"/>
        <pt x="397" y="157" on="1"/>
        <pt x="443" y="157" on="1"/>
      </contour>
    </TTGlyph>
    <TTGlyph name="Zacute" xMin="-26" yMin="0" xMax="518" yMax="800">
      <contour>
        <pt x="209" y="669" on="1"/>
        <pt x="364" y="800" on="1"/>
        <pt x="455" y="768" on="1"/>
        <pt x="455" y="747" on="1"/>
        <pt x="232" y="640" on="1"/>
      </contour>
      <contour>
        <pt x="400" y="0" on="1"/>
        <pt x="-16" y="0" on="1"/>
        <pt x="-26" y="33" on="1"/>
        <pt x="367" y="550" on="1"/>
        <pt x="168" y="550" on="1"/>
        <pt x="131" y="472" on="1"/>
        <pt x="83" y="472" on="1"/>
        <pt x="101" y="613" on="1"/>
        <pt x="518" y="613" on="1"/>
        <pt x="517" y="580" on="1"/>
        <pt x="124" y="64" on="1"/>
        <pt x="338" y="64" on="1"/>
        <pt x="392" y="157" on="1"/>
        <pt x="439" y="157" on="1"/>
      </contour>
    </TTGlyph>
    <TTGlyph name="Zacute.loclPLK" xMin="-21" yMin="0" xMax="523" yMax="812">
      <component glyphName=".ttfautohint" x="0" y="0" flags="0x0"/>
      <component glyphName="Z" x="0" y="0" flags="0x0"/>
      <component glyphName="acute.loclPLK.case" x="144" y="0" flags="0x0"/>
    </TTGlyph>
    <TTGlyph name="Zcaron" xMin="-26" yMin="0" xMax="518" yMax="799">
      <contour>
        <pt x="325" y="725" on="1"/>
        <pt x="457" y="799" on="1"/>
        <pt x="479" y="772" on="1"/>
        <pt x="351" y="643" on="1"/>
        <pt x="275" y="643" on="1"/>
        <pt x="190" y="775" on="1"/>
        <pt x="219" y="798" on="1"/>
      </contour>
      <contour>
        <pt x="400" y="0" on="1"/>
        <pt x="-16" y="0" on="1"/>
        <pt x="-26" y="33" on="1"/>
        <pt x="367" y="550" on="1"/>
        <pt x="168" y="550" on="1"/>
        <pt x="131" y="472" on="1"/>
        <pt x="83" y="472" on="1"/>
        <pt x="101" y="613" on="1"/>
        <pt x="518" y="613" on="1"/>
        <pt x="517" y="580" on="1"/>
        <pt x="124" y="64" on="1"/>
        <pt x="338" y="64" on="1"/>
        <pt x="392" y="157" on="1"/>
        <pt x="439" y="157" on="1"/>
      </contour>
    </TTGlyph>
    <TTGlyph name="Zdotaccent" xMin="-26" yMin="0" xMax="518" yMax="794">
      <contour>
        <pt x="386" y="689" on="0"/>
        <pt x="342" y="647" on="0"/>
        <pt x="312" y="647" on="1"/>
        <pt x="281" y="647" on="0"/>
        <pt x="235" y="689" on="0"/>
        <pt x="235" y="719" on="1"/>
        <pt x="235" y="749" on="0"/>
        <pt x="281" y="794" on="0"/>
        <pt x="312" y="794" on="1"/>
        <pt x="342" y="794" on="0"/>
        <pt x="386" y="749" on="0"/>
        <pt x="386" y="719" on="1"/>
      </contour>
      <contour>
        <pt x="400" y="0" on="1"/>
        <pt x="-16" y="0" on="1"/>
        <pt x="-26" y="33" on="1"/>
        <pt x="367" y="550" on="1"/>
        <pt x="168" y="550" on="1"/>
        <pt x="131" y="472" on="1"/>
        <pt x="83" y="472" on="1"/>
        <pt x="101" y="613" on="1"/>
        <pt x="518" y="613" on="1"/>
        <pt x="517" y="580" on="1"/>
        <pt x="124" y="64" on="1"/>
        <pt x="338" y="64" on="1"/>
        <pt x="392" y="157" on="1"/>
        <pt x="439" y="157" on="1"/>
      </contour>
    </TTGlyph>
    <TTGlyph name="a" xMin="33" yMin="-9" xMax="492" yMax="530">
      <contour>
        <pt x="422" y="151" on="0"/>
        <pt x="415" y="63" on="0"/>
        <pt x="414" y="60" on="1"/>
        <pt x="490" y="60" on="1"/>
        <pt x="490" y="19" on="1"/>
        <pt x="418" y="-9" on="0"/>
        <pt x="360" y="-9" on="1"/>
        <pt x="331" y="-9" on="0"/>
        <pt x="300" y="15" on="0"/>
        <pt x="300" y="39" on="1"/>
        <pt x="301" y="51" on="0"/>
        <pt x="304" y="83" on="0"/>
        <pt x="305" y="89" on="1"/>
        <pt x="275" y="45" on="0"/>
        <pt x="196" y="-9" on="0"/>
        <pt x="159" y="-9" on="1"/>
        <pt x="33" y="-9" on="0"/>
        <pt x="33" y="143" on="1"/>
        <pt x="33" y="253" on="0"/>
        <pt x="106" y="420" on="0"/>
        <pt x="234" y="510" on="0"/>
        <pt x="313" y="510" on="1"/>
        <pt x="334" y="510" on="0"/>
        <pt x="376" y="503" on="0"/>
        <pt x="404" y="496" on="0"/>
        <pt x="408" y="495" on="1"/>
        <pt x="437" y="530" on="1"/>
        <pt x="492" y="521" on="1"/>
        <pt x="433" y="210" on="1"/>
      </contour>
      <contour>
        <pt x="219" y="66" on="0"/>
        <pt x="291" y="125" on="0"/>
        <pt x="310" y="155" on="1"/>
        <pt x="311" y="155" on="0"/>
        <pt x="340" y="307" on="1"/>
        <pt x="365" y="434" on="1"/>
        <pt x="338" y="449" on="0"/>
        <pt x="309" y="449" on="1"/>
        <pt x="259" y="449" on="0"/>
        <pt x="187" y="366" on="0"/>
        <pt x="150" y="228" on="0"/>
        <pt x="150" y="145" on="1"/>
        <pt x="150" y="102" on="0"/>
        <pt x="173" y="66" on="0"/>
        <pt x="195" y="66" on="1"/>
      </contour>
    </TTGlyph>
    <TTGlyph name="aacute" xMin="33" yMin="-9" xMax="492" yMax="730">
      <component glyphName=".ttfautohint" x="33" y="0" flags="0x0"/>
      <component glyphName="a" x="0" y="0" flags="0x0"/>
      <component glyphName="acute" x="147" y="0" flags="0x0"/>
    </TTGlyph>
    <TTGlyph name="abreve" xMin="33" yMin="-9" xMax="492" yMax="717">
      <contour>
        <pt x="214" y="587" on="0"/>
        <pt x="214" y="676" on="1"/>
        <pt x="214" y="689" on="0"/>
        <pt x="221" y="717" on="1"/>
        <pt x="270" y="717" on="1"/>
        <pt x="267" y="710" on="0"/>
        <pt x="267" y="700" on="1"/>
        <pt x="268" y="679" on="0"/>
        <pt x="292" y="656" on="0"/>
        <pt x="326" y="656" on="1"/>
        <pt x="371" y="656" on="0"/>
        <pt x="408" y="688" on="0"/>
        <pt x="414" y="717" on="1"/>
        <pt x="461" y="717" on="1"/>
        <pt x="449" y="658" on="0"/>
        <pt x="384" y="587" on="0"/>
        <pt x="316" y="587" on="1"/>
      </contour>
      <contour>
        <pt x="422" y="151" on="0"/>
        <pt x="415" y="63" on="0"/>
        <pt x="414" y="60" on="1"/>
        <pt x="490" y="60" on="1"/>
        <pt x="490" y="19" on="1"/>
        <pt x="418" y="-9" on="0"/>
        <pt x="360" y="-9" on="1"/>
        <pt x="331" y="-9" on="0"/>
        <pt x="300" y="15" on="0"/>
        <pt x="300" y="39" on="1"/>
        <pt x="301" y="51" on="0"/>
        <pt x="304" y="83" on="0"/>
        <pt x="305" y="89" on="1"/>
        <pt x="275" y="45" on="0"/>
        <pt x="196" y="-9" on="0"/>
        <pt x="159" y="-9" on="1"/>
        <pt x="33" y="-9" on="0"/>
        <pt x="33" y="143" on="1"/>
        <pt x="33" y="253" on="0"/>
        <pt x="106" y="420" on="0"/>
        <pt x="234" y="510" on="0"/>
        <pt x="313" y="510" on="1"/>
        <pt x="334" y="510" on="0"/>
        <pt x="376" y="503" on="0"/>
        <pt x="404" y="496" on="0"/>
        <pt x="408" y="495" on="1"/>
        <pt x="437" y="530" on="1"/>
        <pt x="492" y="521" on="1"/>
        <pt x="433" y="210" on="1"/>
      </contour>
      <contour>
        <pt x="219" y="66" on="0"/>
        <pt x="291" y="125" on="0"/>
        <pt x="310" y="155" on="1"/>
        <pt x="311" y="155" on="0"/>
        <pt x="340" y="307" on="1"/>
        <pt x="365" y="434" on="1"/>
        <pt x="338" y="449" on="0"/>
        <pt x="309" y="449" on="1"/>
        <pt x="259" y="449" on="0"/>
        <pt x="187" y="366" on="0"/>
        <pt x="150" y="228" on="0"/>
        <pt x="150" y="145" on="1"/>
        <pt x="150" y="102" on="0"/>
        <pt x="173" y="66" on="0"/>
        <pt x="195" y="66" on="1"/>
      </contour>
    </TTGlyph>
    <TTGlyph name="acircumflex" xMin="33" yMin="-9" xMax="492" yMax="730">
      <contour>
        <pt x="338" y="648" on="1"/>
        <pt x="216" y="567" on="1"/>
        <pt x="190" y="594" on="1"/>
        <pt x="312" y="730" on="1"/>
        <pt x="388" y="730" on="1"/>
        <pt x="458" y="588" on="1"/>
        <pt x="424" y="567" on="1"/>
      </contour>
      <contour>
        <pt x="422" y="151" on="0"/>
        <pt x="415" y="63" on="0"/>
        <pt x="414" y="60" on="1"/>
        <pt x="490" y="60" on="1"/>
        <pt x="490" y="19" on="1"/>
        <pt x="418" y="-9" on="0"/>
        <pt x="360" y="-9" on="1"/>
        <pt x="331" y="-9" on="0"/>
        <pt x="300" y="15" on="0"/>
        <pt x="300" y="39" on="1"/>
        <pt x="301" y="51" on="0"/>
        <pt x="304" y="83" on="0"/>
        <pt x="305" y="89" on="1"/>
        <pt x="275" y="45" on="0"/>
        <pt x="196" y="-9" on="0"/>
        <pt x="159" y="-9" on="1"/>
        <pt x="33" y="-9" on="0"/>
        <pt x="33" y="143" on="1"/>
        <pt x="33" y="253" on="0"/>
        <pt x="106" y="420" on="0"/>
        <pt x="234" y="510" on="0"/>
        <pt x="313" y="510" on="1"/>
        <pt x="334" y="510" on="0"/>
        <pt x="376" y="503" on="0"/>
        <pt x="404" y="496" on="0"/>
        <pt x="408" y="495" on="1"/>
        <pt x="437" y="530" on="1"/>
        <pt x="492" y="521" on="1"/>
        <pt x="433" y="210" on="1"/>
      </contour>
      <contour>
        <pt x="219" y="66" on="0"/>
        <pt x="291" y="125" on="0"/>
        <pt x="310" y="155" on="1"/>
        <pt x="311" y="155" on="0"/>
        <pt x="340" y="307" on="1"/>
        <pt x="365" y="434" on="1"/>
        <pt x="338" y="449" on="0"/>
        <pt x="309" y="449" on="1"/>
        <pt x="259" y="449" on="0"/>
        <pt x="187" y="366" on="0"/>
        <pt x="150" y="228" on="0"/>
        <pt x="150" y="145" on="1"/>
        <pt x="150" y="102" on="0"/>
        <pt x="173" y="66" on="0"/>
        <pt x="195" y="66" on="1"/>
      </contour>
    </TTGlyph>
    <TTGlyph name="acute" xMin="80" yMin="570" xMax="326" yMax="730">
      <contour>
        <pt x="80" y="599" on="1"/>
        <pt x="235" y="730" on="1"/>
        <pt x="326" y="698" on="1"/>
        <pt x="326" y="677" on="1"/>
        <pt x="103" y="570" on="1"/>
      </contour>
    </TTGlyph>
    <TTGlyph name="acute.case" xMin="94" yMin="640" xMax="340" yMax="800">
      <contour>
        <pt x="94" y="669" on="1"/>
        <pt x="249" y="800" on="1"/>
        <pt x="340" y="768" on="1"/>
        <pt x="340" y="747" on="1"/>
        <pt x="117" y="640" on="1"/>
      </contour>
    </TTGlyph>
    <TTGlyph name="acute.loclPLK" xMin="122" yMin="557" xMax="299" yMax="735">
      <contour>
        <pt x="122" y="576" on="1"/>
        <pt x="213" y="735" on="1"/>
        <pt x="299" y="735" on="1"/>
        <pt x="299" y="715" on="1"/>
        <pt x="149" y="557" on="1"/>
      </contour>
    </TTGlyph>
    <TTGlyph name="acute.loclPLK.case" xMin="124" yMin="637" xMax="300" yMax="812">
      <contour>
        <pt x="124" y="655" on="1"/>
        <pt x="214" y="812" on="1"/>
        <pt x="300" y="812" on="1"/>
        <pt x="300" y="792" on="1"/>
        <pt x="151" y="637" on="1"/>
      </contour>
    </TTGlyph>
    <TTGlyph name="acutecomb" xMin="-161" yMin="640" xMax="85" yMax="800">
      <contour>
        <pt x="-161" y="669" on="1"/>
        <pt x="-6" y="800" on="1"/>
        <pt x="85" y="768" on="1"/>
        <pt x="85" y="747" on="1"/>
        <pt x="-138" y="640" on="1"/>
      </contour>
    </TTGlyph>
    <TTGlyph name="adieresis" xMin="33" yMin="-9" xMax="501" yMax="718">
      <contour>
        <pt x="283" y="623" on="0"/>
        <pt x="242" y="584" on="0"/>
        <pt x="215" y="584" on="1"/>
        <pt x="187" y="584" on="0"/>
        <pt x="144" y="623" on="0"/>
        <pt x="144" y="650" on="1"/>
        <pt x="144" y="678" on="0"/>
        <pt x="187" y="718" on="0"/>
        <pt x="215" y="718" on="1"/>
        <pt x="242" y="718" on="0"/>
        <pt x="283" y="678" on="0"/>
        <pt x="283" y="650" on="1"/>
      </contour>
      <contour>
        <pt x="501" y="623" on="0"/>
        <pt x="460" y="584" on="0"/>
        <pt x="433" y="584" on="1"/>
        <pt x="404" y="584" on="0"/>
        <pt x="363" y="622" on="0"/>
        <pt x="363" y="650" on="1"/>
        <pt x="363" y="678" on="0"/>
        <pt x="404" y="718" on="0"/>
        <pt x="433" y="718" on="1"/>
        <pt x="460" y="718" on="0"/>
        <pt x="501" y="678" on="0"/>
        <pt x="501" y="650" on="1"/>
      </contour>
      <contour>
        <pt x="422" y="151" on="0"/>
        <pt x="415" y="63" on="0"/>
        <pt x="414" y="60" on="1"/>
        <pt x="490" y="60" on="1"/>
        <pt x="490" y="19" on="1"/>
        <pt x="418" y="-9" on="0"/>
        <pt x="360" y="-9" on="1"/>
        <pt x="331" y="-9" on="0"/>
        <pt x="300" y="15" on="0"/>
        <pt x="300" y="39" on="1"/>
        <pt x="301" y="51" on="0"/>
        <pt x="304" y="83" on="0"/>
        <pt x="305" y="89" on="1"/>
        <pt x="275" y="45" on="0"/>
        <pt x="196" y="-9" on="0"/>
        <pt x="159" y="-9" on="1"/>
        <pt x="33" y="-9" on="0"/>
        <pt x="33" y="143" on="1"/>
        <pt x="33" y="253" on="0"/>
        <pt x="106" y="420" on="0"/>
        <pt x="234" y="510" on="0"/>
        <pt x="313" y="510" on="1"/>
        <pt x="334" y="510" on="0"/>
        <pt x="376" y="503" on="0"/>
        <pt x="404" y="496" on="0"/>
        <pt x="408" y="495" on="1"/>
        <pt x="437" y="530" on="1"/>
        <pt x="492" y="521" on="1"/>
        <pt x="433" y="210" on="1"/>
      </contour>
      <contour>
        <pt x="219" y="66" on="0"/>
        <pt x="291" y="125" on="0"/>
        <pt x="310" y="155" on="1"/>
        <pt x="311" y="155" on="0"/>
        <pt x="340" y="307" on="1"/>
        <pt x="365" y="434" on="1"/>
        <pt x="338" y="449" on="0"/>
        <pt x="309" y="449" on="1"/>
        <pt x="259" y="449" on="0"/>
        <pt x="187" y="366" on="0"/>
        <pt x="150" y="228" on="0"/>
        <pt x="150" y="145" on="1"/>
        <pt x="150" y="102" on="0"/>
        <pt x="173" y="66" on="0"/>
        <pt x="195" y="66" on="1"/>
      </contour>
    </TTGlyph>
    <TTGlyph name="ae" xMin="31" yMin="-10" xMax="724" yMax="530">
      <contour>
        <pt x="421" y="-10" on="0"/>
        <pt x="339" y="47" on="0"/>
        <pt x="326" y="106" on="1"/>
        <pt x="280" y="47" on="0"/>
        <pt x="194" y="-9" on="0"/>
        <pt x="157" y="-9" on="1"/>
        <pt x="100" y="-9" on="0"/>
        <pt x="31" y="61" on="0"/>
        <pt x="31" y="143" on="1"/>
        <pt x="31" y="253" on="0"/>
        <pt x="104" y="420" on="0"/>
        <pt x="233" y="511" on="0"/>
        <pt x="312" y="511" on="1"/>
        <pt x="332" y="511" on="0"/>
        <pt x="375" y="504" on="0"/>
        <pt x="403" y="497" on="0"/>
        <pt x="407" y="496" on="1"/>
        <pt x="436" y="530" on="1"/>
        <pt x="481" y="519" on="1"/>
        <pt x="471" y="471" on="1"/>
        <pt x="494" y="488" on="0"/>
        <pt x="569" y="511" on="0"/>
        <pt x="605" y="511" on="1"/>
        <pt x="659" y="511" on="0"/>
        <pt x="724" y="461" on="0"/>
        <pt x="724" y="413" on="1"/>
        <pt x="724" y="330" on="0"/>
        <pt x="578" y="236" on="0"/>
        <pt x="441" y="236" on="1"/>
        <pt x="436" y="204" on="0"/>
        <pt x="436" y="167" on="1"/>
        <pt x="436" y="110" on="0"/>
        <pt x="483" y="58" on="0"/>
        <pt x="536" y="58" on="1"/>
        <pt x="582" y="58" on="0"/>
        <pt x="631" y="76" on="1"/>
        <pt x="641" y="32" on="1"/>
        <pt x="607" y="13" on="0"/>
        <pt x="532" y="-10" on="0"/>
        <pt x="480" y="-10" on="1"/>
      </contour>
      <contour>
        <pt x="218" y="66" on="0"/>
        <pt x="290" y="124" on="0"/>
        <pt x="308" y="153" on="1"/>
        <pt x="309" y="152" on="0"/>
        <pt x="344" y="336" on="1"/>
        <pt x="364" y="436" on="1"/>
        <pt x="350" y="444" on="0"/>
        <pt x="324" y="451" on="0"/>
        <pt x="307" y="451" on="1"/>
        <pt x="256" y="451" on="0"/>
        <pt x="185" y="368" on="0"/>
        <pt x="148" y="228" on="0"/>
        <pt x="148" y="145" on="1"/>
        <pt x="148" y="102" on="0"/>
        <pt x="171" y="66" on="0"/>
        <pt x="193" y="66" on="1"/>
      </contour>
      <contour>
        <pt x="527" y="283" on="0"/>
        <pt x="623" y="347" on="0"/>
        <pt x="623" y="402" on="1"/>
        <pt x="623" y="449" on="0"/>
        <pt x="579" y="449" on="1"/>
        <pt x="531" y="449" on="0"/>
        <pt x="463" y="362" on="0"/>
        <pt x="449" y="283" on="1"/>
      </contour>
    </TTGlyph>
    <TTGlyph name="aeacute" xMin="31" yMin="-10" xMax="724" yMax="730">
      <component glyphName=".ttfautohint" x="31" y="0" flags="0x0"/>
      <component glyphName="ae" x="0" y="0" flags="0x0"/>
      <component glyphName="acute" x="236" y="0" flags="0x0"/>
    </TTGlyph>
    <TTGlyph name="agrave" xMin="33" yMin="-9" xMax="492" yMax="731">
      <contour>
        <pt x="185" y="678" on="1"/>
        <pt x="187" y="699" on="1"/>
        <pt x="277" y="731" on="1"/>
        <pt x="431" y="600" on="1"/>
        <pt x="410" y="571" on="1"/>
      </contour>
      <contour>
        <pt x="422" y="151" on="0"/>
        <pt x="415" y="63" on="0"/>
        <pt x="414" y="60" on="1"/>
        <pt x="490" y="60" on="1"/>
        <pt x="490" y="19" on="1"/>
        <pt x="418" y="-9" on="0"/>
        <pt x="360" y="-9" on="1"/>
        <pt x="331" y="-9" on="0"/>
        <pt x="300" y="15" on="0"/>
        <pt x="300" y="39" on="1"/>
        <pt x="301" y="51" on="0"/>
        <pt x="304" y="83" on="0"/>
        <pt x="305" y="89" on="1"/>
        <pt x="275" y="45" on="0"/>
        <pt x="196" y="-9" on="0"/>
        <pt x="159" y="-9" on="1"/>
        <pt x="33" y="-9" on="0"/>
        <pt x="33" y="143" on="1"/>
        <pt x="33" y="253" on="0"/>
        <pt x="106" y="420" on="0"/>
        <pt x="234" y="510" on="0"/>
        <pt x="313" y="510" on="1"/>
        <pt x="334" y="510" on="0"/>
        <pt x="376" y="503" on="0"/>
        <pt x="404" y="496" on="0"/>
        <pt x="408" y="495" on="1"/>
        <pt x="437" y="530" on="1"/>
        <pt x="492" y="521" on="1"/>
        <pt x="433" y="210" on="1"/>
      </contour>
      <contour>
        <pt x="219" y="66" on="0"/>
        <pt x="291" y="125" on="0"/>
        <pt x="310" y="155" on="1"/>
        <pt x="311" y="155" on="0"/>
        <pt x="340" y="307" on="1"/>
        <pt x="365" y="434" on="1"/>
        <pt x="338" y="449" on="0"/>
        <pt x="309" y="449" on="1"/>
        <pt x="259" y="449" on="0"/>
        <pt x="187" y="366" on="0"/>
        <pt x="150" y="228" on="0"/>
        <pt x="150" y="145" on="1"/>
        <pt x="150" y="102" on="0"/>
        <pt x="173" y="66" on="0"/>
        <pt x="195" y="66" on="1"/>
      </contour>
    </TTGlyph>
    <TTGlyph name="amacron" xMin="33" yMin="-9" xMax="492" yMax="674">
      <contour>
        <pt x="445" y="674" on="1"/>
        <pt x="435" y="604" on="1"/>
        <pt x="203" y="604" on="1"/>
        <pt x="213" y="674" on="1"/>
      </contour>
      <contour>
        <pt x="422" y="151" on="0"/>
        <pt x="415" y="63" on="0"/>
        <pt x="414" y="60" on="1"/>
        <pt x="490" y="60" on="1"/>
        <pt x="490" y="19" on="1"/>
        <pt x="418" y="-9" on="0"/>
        <pt x="360" y="-9" on="1"/>
        <pt x="331" y="-9" on="0"/>
        <pt x="300" y="15" on="0"/>
        <pt x="300" y="39" on="1"/>
        <pt x="301" y="51" on="0"/>
        <pt x="304" y="83" on="0"/>
        <pt x="305" y="89" on="1"/>
        <pt x="275" y="45" on="0"/>
        <pt x="196" y="-9" on="0"/>
        <pt x="159" y="-9" on="1"/>
        <pt x="33" y="-9" on="0"/>
        <pt x="33" y="143" on="1"/>
        <pt x="33" y="253" on="0"/>
        <pt x="106" y="420" on="0"/>
        <pt x="234" y="510" on="0"/>
        <pt x="313" y="510" on="1"/>
        <pt x="334" y="510" on="0"/>
        <pt x="376" y="503" on="0"/>
        <pt x="404" y="496" on="0"/>
        <pt x="408" y="495" on="1"/>
        <pt x="437" y="530" on="1"/>
        <pt x="492" y="521" on="1"/>
        <pt x="433" y="210" on="1"/>
      </contour>
      <contour>
        <pt x="219" y="66" on="0"/>
        <pt x="291" y="125" on="0"/>
        <pt x="310" y="155" on="1"/>
        <pt x="311" y="155" on="0"/>
        <pt x="340" y="307" on="1"/>
        <pt x="365" y="434" on="1"/>
        <pt x="338" y="449" on="0"/>
        <pt x="309" y="449" on="1"/>
        <pt x="259" y="449" on="0"/>
        <pt x="187" y="366" on="0"/>
        <pt x="150" y="228" on="0"/>
        <pt x="150" y="145" on="1"/>
        <pt x="150" y="102" on="0"/>
        <pt x="173" y="66" on="0"/>
        <pt x="195" y="66" on="1"/>
      </contour>
    </TTGlyph>
    <TTGlyph name="ampersand" xMin="21" yMin="-11" xMax="584" yMax="627">
      <contour>
        <pt x="462" y="37" on="1"/>
        <pt x="418" y="16" on="0"/>
        <pt x="297" y="-11" on="0"/>
        <pt x="227" y="-11" on="1"/>
        <pt x="130" y="-11" on="0"/>
        <pt x="21" y="73" on="0"/>
        <pt x="21" y="153" on="1"/>
        <pt x="21" y="228" on="0"/>
        <pt x="125" y="344" on="0"/>
        <pt x="212" y="363" on="1"/>
        <pt x="179" y="382" on="0"/>
        <pt x="141" y="436" on="0"/>
        <pt x="141" y="475" on="1"/>
        <pt x="141" y="527" on="0"/>
        <pt x="202" y="596" on="0"/>
        <pt x="295" y="627" on="0"/>
        <pt x="345" y="627" on="1"/>
        <pt x="431" y="627" on="0"/>
        <pt x="519" y="595" on="1"/>
        <pt x="484" y="453" on="1"/>
        <pt x="430" y="453" on="1"/>
        <pt x="426" y="543" on="1"/>
        <pt x="384" y="558" on="0"/>
        <pt x="343" y="558" on="1"/>
        <pt x="302" y="558" on="0"/>
        <pt x="254" y="511" on="0"/>
        <pt x="254" y="468" on="1"/>
        <pt x="254" y="427" on="0"/>
        <pt x="299" y="385" on="0"/>
        <pt x="344" y="377" on="1"/>
        <pt x="341" y="320" on="1"/>
        <pt x="238" y="317" on="0"/>
        <pt x="138" y="247" on="0"/>
        <pt x="138" y="155" on="1"/>
        <pt x="138" y="107" on="0"/>
        <pt x="205" y="54" on="0"/>
        <pt x="261" y="54" on="1"/>
        <pt x="311" y="54" on="0"/>
        <pt x="365" y="72" on="1"/>
        <pt x="392" y="209" on="1"/>
        <pt x="320" y="214" on="1"/>
        <pt x="313" y="273" on="1"/>
        <pt x="584" y="273" on="1"/>
        <pt x="584" y="200" on="1"/>
        <pt x="493" y="204" on="1"/>
      </contour>
    </TTGlyph>
    <TTGlyph name="aogonek" xMin="33" yMin="-236" xMax="492" yMax="530">
      <contour>
        <pt x="333" y="-236" on="0"/>
        <pt x="291" y="-194" on="0"/>
        <pt x="291" y="-162" on="1"/>
        <pt x="291" y="-133" on="0"/>
        <pt x="335" y="-53" on="0"/>
        <pt x="393" y="-6" on="1"/>
        <pt x="375" y="-9" on="0"/>
        <pt x="360" y="-9" on="1"/>
        <pt x="331" y="-9" on="0"/>
        <pt x="300" y="15" on="0"/>
        <pt x="300" y="39" on="1"/>
        <pt x="301" y="51" on="0"/>
        <pt x="304" y="83" on="0"/>
        <pt x="305" y="89" on="1"/>
        <pt x="275" y="45" on="0"/>
        <pt x="196" y="-9" on="0"/>
        <pt x="159" y="-9" on="1"/>
        <pt x="33" y="-9" on="0"/>
        <pt x="33" y="143" on="1"/>
        <pt x="33" y="253" on="0"/>
        <pt x="106" y="420" on="0"/>
        <pt x="234" y="510" on="0"/>
        <pt x="313" y="510" on="1"/>
        <pt x="334" y="510" on="0"/>
        <pt x="376" y="503" on="0"/>
        <pt x="404" y="496" on="0"/>
        <pt x="408" y="495" on="1"/>
        <pt x="437" y="530" on="1"/>
        <pt x="492" y="521" on="1"/>
        <pt x="433" y="210" on="1"/>
        <pt x="422" y="151" on="0"/>
        <pt x="415" y="63" on="0"/>
        <pt x="414" y="60" on="1"/>
        <pt x="490" y="60" on="1"/>
        <pt x="490" y="19" on="1"/>
        <pt x="448" y="-3" on="0"/>
        <pt x="395" y="-63" on="0"/>
        <pt x="373" y="-119" on="0"/>
        <pt x="373" y="-137" on="1"/>
        <pt x="373" y="-158" on="0"/>
        <pt x="394" y="-180" on="0"/>
        <pt x="414" y="-180" on="1"/>
        <pt x="445" y="-180" on="0"/>
        <pt x="474" y="-158" on="1"/>
        <pt x="492" y="-178" on="1"/>
        <pt x="492" y="-180" on="0"/>
        <pt x="462" y="-210" on="0"/>
        <pt x="412" y="-236" on="0"/>
        <pt x="380" y="-236" on="1"/>
      </contour>
      <contour>
        <pt x="219" y="66" on="0"/>
        <pt x="291" y="125" on="0"/>
        <pt x="310" y="155" on="1"/>
        <pt x="311" y="155" on="0"/>
        <pt x="340" y="307" on="1"/>
        <pt x="365" y="434" on="1"/>
        <pt x="338" y="449" on="0"/>
        <pt x="309" y="449" on="1"/>
        <pt x="259" y="449" on="0"/>
        <pt x="187" y="366" on="0"/>
        <pt x="150" y="228" on="0"/>
        <pt x="150" y="145" on="1"/>
        <pt x="150" y="102" on="0"/>
        <pt x="173" y="66" on="0"/>
        <pt x="195" y="66" on="1"/>
      </contour>
    </TTGlyph>
    <TTGlyph name="approxequal" xMin="38" yMin="162" xMax="471" yMax="444">
      <contour>
        <pt x="38" y="342" on="1"/>
        <pt x="88" y="443" on="0"/>
        <pt x="159" y="443" on="1"/>
        <pt x="181" y="443" on="0"/>
        <pt x="226" y="428" on="0"/>
        <pt x="256" y="415" on="1"/>
        <pt x="285" y="402" on="0"/>
        <pt x="325" y="388" on="0"/>
        <pt x="344" y="388" on="1"/>
        <pt x="371" y="388" on="0"/>
        <pt x="406" y="413" on="0"/>
        <pt x="426" y="444" on="1"/>
        <pt x="471" y="419" on="1"/>
        <pt x="412" y="314" on="0"/>
        <pt x="339" y="314" on="1"/>
        <pt x="318" y="314" on="0"/>
        <pt x="278" y="328" on="0"/>
        <pt x="248" y="342" on="1"/>
        <pt x="218" y="356" on="0"/>
        <pt x="176" y="371" on="0"/>
        <pt x="155" y="371" on="1"/>
        <pt x="134" y="371" on="0"/>
        <pt x="100" y="346" on="0"/>
        <pt x="80" y="317" on="1"/>
      </contour>
      <contour>
        <pt x="38" y="190" on="1"/>
        <pt x="88" y="291" on="0"/>
        <pt x="159" y="291" on="1"/>
        <pt x="181" y="291" on="0"/>
        <pt x="226" y="276" on="0"/>
        <pt x="256" y="263" on="1"/>
        <pt x="285" y="250" on="0"/>
        <pt x="325" y="236" on="0"/>
        <pt x="344" y="236" on="1"/>
        <pt x="371" y="236" on="0"/>
        <pt x="406" y="261" on="0"/>
        <pt x="426" y="292" on="1"/>
        <pt x="471" y="267" on="1"/>
        <pt x="412" y="162" on="0"/>
        <pt x="339" y="162" on="1"/>
        <pt x="318" y="162" on="0"/>
        <pt x="278" y="176" on="0"/>
        <pt x="248" y="190" on="1"/>
        <pt x="216" y="204" on="0"/>
        <pt x="176" y="218" on="0"/>
        <pt x="155" y="218" on="1"/>
        <pt x="134" y="218" on="0"/>
        <pt x="99" y="193" on="0"/>
        <pt x="80" y="164" on="1"/>
      </contour>
    </TTGlyph>
    <TTGlyph name="aring" xMin="33" yMin="-9" xMax="492" yMax="758">
      <contour>
        <pt x="268" y="550" on="0"/>
        <pt x="219" y="596" on="0"/>
        <pt x="219" y="633" on="1"/>
        <pt x="219" y="686" on="0"/>
        <pt x="287" y="758" on="0"/>
        <pt x="345" y="758" on="1"/>
        <pt x="392" y="758" on="0"/>
        <pt x="439" y="710" on="0"/>
        <pt x="439" y="672" on="1"/>
        <pt x="439" y="618" on="0"/>
        <pt x="370" y="550" on="0"/>
        <pt x="314" y="550" on="1"/>
      </contour>
      <contour>
        <pt x="372" y="596" on="0"/>
        <pt x="372" y="674" on="1"/>
        <pt x="372" y="692" on="0"/>
        <pt x="357" y="712" on="0"/>
        <pt x="338" y="712" on="1"/>
        <pt x="286" y="712" on="0"/>
        <pt x="286" y="631" on="1"/>
        <pt x="286" y="614" on="0"/>
        <pt x="302" y="596" on="0"/>
        <pt x="321" y="596" on="1"/>
      </contour>
      <contour>
        <pt x="33" y="-9" on="0"/>
        <pt x="33" y="143" on="1"/>
        <pt x="33" y="253" on="0"/>
        <pt x="106" y="420" on="0"/>
        <pt x="234" y="510" on="0"/>
        <pt x="313" y="510" on="1"/>
        <pt x="334" y="510" on="0"/>
        <pt x="376" y="503" on="0"/>
        <pt x="404" y="496" on="0"/>
        <pt x="408" y="495" on="1"/>
        <pt x="437" y="530" on="1"/>
        <pt x="492" y="521" on="1"/>
        <pt x="433" y="210" on="1"/>
        <pt x="422" y="151" on="0"/>
        <pt x="415" y="63" on="0"/>
        <pt x="414" y="60" on="1"/>
        <pt x="490" y="60" on="1"/>
        <pt x="490" y="19" on="1"/>
        <pt x="418" y="-9" on="0"/>
        <pt x="360" y="-9" on="1"/>
        <pt x="331" y="-9" on="0"/>
        <pt x="300" y="15" on="0"/>
        <pt x="300" y="39" on="1"/>
        <pt x="301" y="51" on="0"/>
        <pt x="304" y="83" on="0"/>
        <pt x="305" y="89" on="1"/>
        <pt x="275" y="45" on="0"/>
        <pt x="196" y="-9" on="0"/>
        <pt x="159" y="-9" on="1"/>
      </contour>
      <contour>
        <pt x="219" y="66" on="0"/>
        <pt x="291" y="125" on="0"/>
        <pt x="310" y="155" on="1"/>
        <pt x="311" y="155" on="0"/>
        <pt x="340" y="307" on="1"/>
        <pt x="365" y="434" on="1"/>
        <pt x="338" y="449" on="0"/>
        <pt x="309" y="449" on="1"/>
        <pt x="259" y="449" on="0"/>
        <pt x="187" y="366" on="0"/>
        <pt x="150" y="228" on="0"/>
        <pt x="150" y="145" on="1"/>
        <pt x="150" y="102" on="0"/>
        <pt x="173" y="66" on="0"/>
        <pt x="195" y="66" on="1"/>
      </contour>
    </TTGlyph>
    <TTGlyph name="aringacute" xMin="33" yMin="-9" xMax="546" yMax="859">
      <component glyphName=".ttfautohint" x="33" y="0" flags="0x0"/>
      <component glyphName="a" x="0" y="0" flags="0x0"/>
      <component glyphName="uni030A" x="372" y="-121" flags="0x4"/>
      <component glyphName="acutecomb" x="461" y="59" flags="0x4"/>
    </TTGlyph>
    <TTGlyph name="arrowdown" xMin="65" yMin="28" xMax="495" yMax="499">
      <contour>
        <pt x="101" y="359" on="1"/>
        <pt x="249" y="196" on="1"/>
        <pt x="237" y="499" on="1"/>
        <pt x="338" y="499" on="1"/>
        <pt x="324" y="197" on="1"/>
        <pt x="461" y="359" on="1"/>
        <pt x="495" y="323" on="1"/>
        <pt x="294" y="28" on="1"/>
        <pt x="279" y="28" on="1"/>
        <pt x="65" y="323" on="1"/>
      </contour>
    </TTGlyph>
    <TTGlyph name="arrowleft" xMin="45" yMin="46" xMax="516" yMax="475">
      <contour>
        <pt x="516" y="319" on="1"/>
        <pt x="516" y="217" on="1"/>
        <pt x="211" y="229" on="1"/>
        <pt x="374" y="81" on="1"/>
        <pt x="338" y="46" on="1"/>
        <pt x="45" y="259" on="1"/>
        <pt x="45" y="275" on="1"/>
        <pt x="338" y="475" on="1"/>
        <pt x="375" y="441" on="1"/>
        <pt x="212" y="305" on="1"/>
      </contour>
    </TTGlyph>
    <TTGlyph name="arrowright" xMin="46" yMin="46" xMax="517" yMax="475">
      <contour>
        <pt x="187" y="81" on="1"/>
        <pt x="349" y="229" on="1"/>
        <pt x="46" y="217" on="1"/>
        <pt x="46" y="319" on="1"/>
        <pt x="348" y="305" on="1"/>
        <pt x="186" y="441" on="1"/>
        <pt x="222" y="475" on="1"/>
        <pt x="517" y="275" on="1"/>
        <pt x="517" y="259" on="1"/>
        <pt x="222" y="46" on="1"/>
      </contour>
    </TTGlyph>
    <TTGlyph name="arrowup" xMin="66" yMin="23" xMax="496" yMax="492">
      <contour>
        <pt x="460" y="164" on="1"/>
        <pt x="313" y="327" on="1"/>
        <pt x="325" y="23" on="1"/>
        <pt x="224" y="23" on="1"/>
        <pt x="237" y="325" on="1"/>
        <pt x="99" y="163" on="1"/>
        <pt x="66" y="200" on="1"/>
        <pt x="265" y="492" on="1"/>
        <pt x="282" y="492" on="1"/>
        <pt x="496" y="200" on="1"/>
      </contour>
    </TTGlyph>
    <TTGlyph name="asciicircum" xMin="32" yMin="250" xMax="444" yMax="613">
      <contour>
        <pt x="212" y="613" on="1"/>
        <pt x="265" y="613" on="1"/>
        <pt x="444" y="250" on="1"/>
        <pt x="361" y="250" on="1"/>
        <pt x="239" y="504" on="1"/>
        <pt x="115" y="250" on="1"/>
        <pt x="32" y="250" on="1"/>
      </contour>
    </TTGlyph>
    <TTGlyph name="asciitilde" xMin="53" yMin="207" xMax="467" yMax="332">
      <contour>
        <pt x="146" y="261" on="0"/>
        <pt x="114" y="238" on="0"/>
        <pt x="94" y="211" on="1"/>
        <pt x="53" y="234" on="1"/>
        <pt x="100" y="331" on="0"/>
        <pt x="169" y="331" on="1"/>
        <pt x="190" y="331" on="0"/>
        <pt x="230" y="318" on="0"/>
        <pt x="262" y="304" on="1"/>
        <pt x="289" y="292" on="0"/>
        <pt x="326" y="279" on="0"/>
        <pt x="344" y="279" on="1"/>
        <pt x="371" y="279" on="0"/>
        <pt x="403" y="301" on="0"/>
        <pt x="422" y="332" on="1"/>
        <pt x="467" y="307" on="1"/>
        <pt x="412" y="207" on="0"/>
        <pt x="340" y="207" on="1"/>
        <pt x="320" y="207" on="0"/>
        <pt x="280" y="221" on="0"/>
        <pt x="254" y="234" on="1"/>
        <pt x="223" y="248" on="0"/>
        <pt x="185" y="261" on="0"/>
        <pt x="165" y="261" on="1"/>
      </contour>
    </TTGlyph>
    <TTGlyph name="asterisk" xMin="49" yMin="421" xMax="390" yMax="748">
      <contour>
        <pt x="62" y="477" on="1"/>
        <pt x="160" y="561" on="1"/>
        <pt x="159" y="569" on="1"/>
        <pt x="49" y="588" on="1"/>
        <pt x="93" y="679" on="1"/>
        <pt x="191" y="626" on="1"/>
        <pt x="198" y="630" on="1"/>
        <pt x="203" y="748" on="1"/>
        <pt x="296" y="748" on="1"/>
        <pt x="257" y="630" on="1"/>
        <pt x="263" y="625" on="1"/>
        <pt x="380" y="679" on="1"/>
        <pt x="390" y="588" on="1"/>
        <pt x="271" y="569" on="1"/>
        <pt x="267" y="561" on="1"/>
        <pt x="332" y="477" on="1"/>
        <pt x="245" y="421" on="1"/>
        <pt x="211" y="525" on="1"/>
        <pt x="203" y="525" on="1"/>
        <pt x="130" y="421" on="1"/>
      </contour>
    </TTGlyph>
    <TTGlyph name="at" xMin="10" yMin="-80" xMax="722" yMax="557">
      <contour>
        <pt x="520" y="557" on="0"/>
        <pt x="654" y="493" on="0"/>
        <pt x="722" y="383" on="0"/>
        <pt x="722" y="314" on="1"/>
        <pt x="722" y="244" on="0"/>
        <pt x="657" y="125" on="0"/>
        <pt x="544" y="56" on="0"/>
        <pt x="474" y="56" on="1"/>
        <pt x="406" y="56" on="0"/>
        <pt x="406" y="109" on="1"/>
        <pt x="406" y="123" on="0"/>
        <pt x="410" y="141" on="1"/>
        <pt x="359" y="56" on="0"/>
        <pt x="281" y="56" on="1"/>
        <pt x="233" y="56" on="0"/>
        <pt x="183" y="122" on="0"/>
        <pt x="183" y="182" on="1"/>
        <pt x="183" y="245" on="0"/>
        <pt x="238" y="355" on="0"/>
        <pt x="336" y="421" on="0"/>
        <pt x="397" y="421" on="1"/>
        <pt x="415" y="421" on="0"/>
        <pt x="469" y="415" on="0"/>
        <pt x="483" y="411" on="1"/>
        <pt x="498" y="436" on="1"/>
        <pt x="522" y="437" on="1"/>
        <pt x="533" y="437" on="0"/>
        <pt x="550" y="433" on="0"/>
        <pt x="550" y="430" on="1"/>
        <pt x="549" y="426" on="0"/>
        <pt x="489" y="208" on="0"/>
        <pt x="489" y="160" on="1"/>
        <pt x="489" y="147" on="0"/>
        <pt x="498" y="137" on="0"/>
        <pt x="509" y="137" on="1"/>
        <pt x="544" y="137" on="0"/>
        <pt x="598" y="185" on="0"/>
        <pt x="628" y="266" on="0"/>
        <pt x="628" y="313" on="1"/>
        <pt x="628" y="399" on="0"/>
        <pt x="523" y="501" on="0"/>
        <pt x="426" y="501" on="1"/>
        <pt x="333" y="501" on="0"/>
        <pt x="187" y="414" on="0"/>
        <pt x="105" y="267" on="0"/>
        <pt x="105" y="181" on="1"/>
        <pt x="105" y="88" on="0"/>
        <pt x="215" y="-17" on="0"/>
        <pt x="315" y="-17" on="1"/>
        <pt x="426" y="-17" on="0"/>
        <pt x="536" y="30" on="1"/>
        <pt x="554" y="-12" on="1"/>
        <pt x="494" y="-45" on="0"/>
        <pt x="360" y="-80" on="0"/>
        <pt x="292" y="-80" on="1"/>
        <pt x="206" y="-80" on="0"/>
        <pt x="79" y="-15" on="0"/>
        <pt x="10" y="104" on="0"/>
        <pt x="10" y="184" on="1"/>
        <pt x="10" y="282" on="0"/>
        <pt x="116" y="454" on="0"/>
        <pt x="306" y="557" on="0"/>
        <pt x="426" y="557" on="1"/>
      </contour>
      <contour>
        <pt x="396" y="126" on="0"/>
        <pt x="432" y="358" on="1"/>
        <pt x="414" y="365" on="0"/>
        <pt x="392" y="365" on="1"/>
        <pt x="360" y="365" on="0"/>
        <pt x="311" y="312" on="0"/>
        <pt x="283" y="226" on="0"/>
        <pt x="283" y="180" on="1"/>
        <pt x="283" y="153" on="0"/>
        <pt x="297" y="126" on="0"/>
        <pt x="315" y="126" on="1"/>
      </contour>
    </TTGlyph>
</ttFont>
